<mxfile host="app.diagrams.net" modified="2022-11-08T07:51:14.556Z" agent="5.0 (Macintosh; Intel Mac OS X 10_15_7) AppleWebKit/537.36 (KHTML, like Gecko) Chrome/107.0.0.0 Safari/537.36" etag="2yEXMwY89yGgEE2Zh_D2" version="20.5.3" type="github">
  <diagram id="H3SxZ43efbbaYmBA8pNz" name="第 1 页">
    <mxGraphModel dx="2728" dy="1059" grid="1" gridSize="10" guides="1" tooltips="1" connect="1" arrows="1" fold="1" page="1" pageScale="1" pageWidth="827" pageHeight="1169" math="0" shadow="0">
      <root>
        <mxCell id="0" />
        <mxCell id="1" parent="0" />
        <mxCell id="K7jrmlSnKd5e08-iuxen-289" value="" style="group" vertex="1" connectable="0" parent="1">
          <mxGeometry x="566.5" y="489.18" width="193.5" height="280" as="geometry" />
        </mxCell>
        <mxCell id="K7jrmlSnKd5e08-iuxen-297" value="" style="rounded=0;whiteSpace=wrap;html=1;fontFamily=Georgia;fontSize=22;strokeColor=#000000;fillColor=none;dashed=1;" vertex="1" parent="K7jrmlSnKd5e08-iuxen-289">
          <mxGeometry x="-126.5" y="20" width="320" height="260" as="geometry" />
        </mxCell>
        <mxCell id="K7jrmlSnKd5e08-iuxen-296" value="" style="endArrow=classic;html=1;rounded=0;fontSize=11;exitX=0.5;exitY=0;exitDx=0;exitDy=0;entryX=0.5;entryY=1;entryDx=0;entryDy=0;" edge="1" parent="K7jrmlSnKd5e08-iuxen-289" source="K7jrmlSnKd5e08-iuxen-298">
          <mxGeometry width="50" height="50" relative="1" as="geometry">
            <mxPoint x="19.84999999999991" y="25" as="sourcePoint" />
            <mxPoint x="19.84999999999991" as="targetPoint" />
          </mxGeometry>
        </mxCell>
        <mxCell id="K7jrmlSnKd5e08-iuxen-385" value="" style="group;fontStyle=1" vertex="1" connectable="0" parent="K7jrmlSnKd5e08-iuxen-289">
          <mxGeometry x="-20.5" y="-10" width="80" height="10" as="geometry" />
        </mxCell>
        <mxCell id="K7jrmlSnKd5e08-iuxen-290" value="" style="group;fillColor=#dae8fc;strokeColor=#6c8ebf;fontStyle=1" vertex="1" connectable="0" parent="K7jrmlSnKd5e08-iuxen-385">
          <mxGeometry width="40" height="10" as="geometry" />
        </mxCell>
        <mxCell id="K7jrmlSnKd5e08-iuxen-291" value="" style="rounded=0;whiteSpace=wrap;html=1;fontSize=22;strokeColor=#82b366;fillColor=#d5e8d4;fontStyle=1" vertex="1" parent="K7jrmlSnKd5e08-iuxen-290">
          <mxGeometry width="10" height="10" as="geometry" />
        </mxCell>
        <mxCell id="K7jrmlSnKd5e08-iuxen-292" style="edgeStyle=none;rounded=0;orthogonalLoop=1;jettySize=auto;html=1;exitX=1;exitY=1;exitDx=0;exitDy=0;fontSize=22;strokeColor=none;fontStyle=1" edge="1" parent="K7jrmlSnKd5e08-iuxen-290" source="K7jrmlSnKd5e08-iuxen-291" target="K7jrmlSnKd5e08-iuxen-291">
          <mxGeometry relative="1" as="geometry" />
        </mxCell>
        <mxCell id="K7jrmlSnKd5e08-iuxen-293" value="" style="rounded=0;whiteSpace=wrap;html=1;fontSize=22;strokeColor=#6c8ebf;fillColor=#dae8fc;fontStyle=1" vertex="1" parent="K7jrmlSnKd5e08-iuxen-290">
          <mxGeometry x="10" width="10" height="10" as="geometry" />
        </mxCell>
        <mxCell id="K7jrmlSnKd5e08-iuxen-294" value="" style="rounded=0;whiteSpace=wrap;html=1;fontSize=22;strokeColor=#82b366;fillColor=#d5e8d4;fontStyle=1" vertex="1" parent="K7jrmlSnKd5e08-iuxen-290">
          <mxGeometry x="20" width="10" height="10" as="geometry" />
        </mxCell>
        <mxCell id="K7jrmlSnKd5e08-iuxen-295" value="" style="rounded=0;whiteSpace=wrap;html=1;fontSize=22;strokeColor=#6c8ebf;fillColor=#dae8fc;fontStyle=1" vertex="1" parent="K7jrmlSnKd5e08-iuxen-290">
          <mxGeometry x="30" width="10" height="10" as="geometry" />
        </mxCell>
        <mxCell id="K7jrmlSnKd5e08-iuxen-379" value="" style="group;fillColor=#dae8fc;strokeColor=#6c8ebf;fontStyle=1" vertex="1" connectable="0" parent="K7jrmlSnKd5e08-iuxen-385">
          <mxGeometry x="40" width="40" height="10" as="geometry" />
        </mxCell>
        <mxCell id="K7jrmlSnKd5e08-iuxen-380" value="" style="rounded=0;whiteSpace=wrap;html=1;fontSize=22;strokeColor=#82b366;fillColor=#d5e8d4;fontStyle=1" vertex="1" parent="K7jrmlSnKd5e08-iuxen-379">
          <mxGeometry width="10" height="10" as="geometry" />
        </mxCell>
        <mxCell id="K7jrmlSnKd5e08-iuxen-381" style="edgeStyle=none;rounded=0;orthogonalLoop=1;jettySize=auto;html=1;exitX=1;exitY=1;exitDx=0;exitDy=0;fontSize=22;strokeColor=none;fontStyle=1" edge="1" parent="K7jrmlSnKd5e08-iuxen-379" source="K7jrmlSnKd5e08-iuxen-380" target="K7jrmlSnKd5e08-iuxen-380">
          <mxGeometry relative="1" as="geometry" />
        </mxCell>
        <mxCell id="K7jrmlSnKd5e08-iuxen-382" value="" style="rounded=0;whiteSpace=wrap;html=1;fontSize=22;strokeColor=#6c8ebf;fillColor=#dae8fc;fontStyle=1" vertex="1" parent="K7jrmlSnKd5e08-iuxen-379">
          <mxGeometry x="10" width="10" height="10" as="geometry" />
        </mxCell>
        <mxCell id="K7jrmlSnKd5e08-iuxen-383" value="" style="rounded=0;whiteSpace=wrap;html=1;fontSize=22;strokeColor=#82b366;fillColor=#d5e8d4;fontStyle=1" vertex="1" parent="K7jrmlSnKd5e08-iuxen-379">
          <mxGeometry x="20" width="10" height="10" as="geometry" />
        </mxCell>
        <mxCell id="K7jrmlSnKd5e08-iuxen-384" value="" style="rounded=0;whiteSpace=wrap;html=1;fontSize=22;strokeColor=#6c8ebf;fillColor=#dae8fc;fontStyle=1" vertex="1" parent="K7jrmlSnKd5e08-iuxen-379">
          <mxGeometry x="30" width="10" height="10" as="geometry" />
        </mxCell>
        <mxCell id="K7jrmlSnKd5e08-iuxen-1" value="All Features Embedding" style="rounded=0;whiteSpace=wrap;html=1;fillColor=#fff2cc;strokeColor=#d6b656;gradientColor=#ffd966;" vertex="1" parent="1">
          <mxGeometry x="250" y="300" width="1200" height="20" as="geometry" />
        </mxCell>
        <mxCell id="K7jrmlSnKd5e08-iuxen-2" value="" style="group" vertex="1" connectable="0" parent="1">
          <mxGeometry x="1331" y="320" width="135" height="200" as="geometry" />
        </mxCell>
        <mxCell id="K7jrmlSnKd5e08-iuxen-3" value="" style="group" vertex="1" connectable="0" parent="K7jrmlSnKd5e08-iuxen-2">
          <mxGeometry x="5" width="50" height="165" as="geometry" />
        </mxCell>
        <mxCell id="K7jrmlSnKd5e08-iuxen-4" value="" style="group" vertex="1" connectable="0" parent="K7jrmlSnKd5e08-iuxen-3">
          <mxGeometry y="25" width="50" height="65" as="geometry" />
        </mxCell>
        <mxCell id="K7jrmlSnKd5e08-iuxen-5" value="" style="group" vertex="1" connectable="0" parent="K7jrmlSnKd5e08-iuxen-4">
          <mxGeometry x="5" width="40" height="10" as="geometry" />
        </mxCell>
        <mxCell id="K7jrmlSnKd5e08-iuxen-6" value="" style="rounded=0;whiteSpace=wrap;html=1;fontSize=22;strokeColor=none;fillColor=#000000;" vertex="1" parent="K7jrmlSnKd5e08-iuxen-5">
          <mxGeometry width="10" height="10" as="geometry" />
        </mxCell>
        <mxCell id="K7jrmlSnKd5e08-iuxen-7" style="edgeStyle=none;rounded=0;orthogonalLoop=1;jettySize=auto;html=1;exitX=1;exitY=1;exitDx=0;exitDy=0;fontSize=22;strokeColor=none;" edge="1" parent="K7jrmlSnKd5e08-iuxen-5" source="K7jrmlSnKd5e08-iuxen-6" target="K7jrmlSnKd5e08-iuxen-6">
          <mxGeometry relative="1" as="geometry" />
        </mxCell>
        <mxCell id="K7jrmlSnKd5e08-iuxen-8" value="" style="rounded=0;whiteSpace=wrap;html=1;fontSize=22;strokeColor=none;fillColor=#BFBFBF;" vertex="1" parent="K7jrmlSnKd5e08-iuxen-5">
          <mxGeometry x="10" width="10" height="10" as="geometry" />
        </mxCell>
        <mxCell id="K7jrmlSnKd5e08-iuxen-9" value="" style="rounded=0;whiteSpace=wrap;html=1;fontSize=22;strokeColor=none;fillColor=#000000;" vertex="1" parent="K7jrmlSnKd5e08-iuxen-5">
          <mxGeometry x="20" width="10" height="10" as="geometry" />
        </mxCell>
        <mxCell id="K7jrmlSnKd5e08-iuxen-10" value="" style="rounded=0;whiteSpace=wrap;html=1;fontSize=22;strokeColor=none;fillColor=#BFBFBF;" vertex="1" parent="K7jrmlSnKd5e08-iuxen-5">
          <mxGeometry x="30" width="10" height="10" as="geometry" />
        </mxCell>
        <mxCell id="K7jrmlSnKd5e08-iuxen-11" value="" style="shape=curlyBracket;whiteSpace=wrap;html=1;rounded=1;flipH=1;fontSize=22;strokeColor=#000000;fillColor=#000000;rotation=-90;size=0.5;" vertex="1" parent="K7jrmlSnKd5e08-iuxen-4">
          <mxGeometry x="15" y="30" width="20" height="50" as="geometry" />
        </mxCell>
        <mxCell id="K7jrmlSnKd5e08-iuxen-12" value="&lt;font style=&quot;font-size: 11px;&quot;&gt;concat&lt;/font&gt;" style="rounded=1;whiteSpace=wrap;html=1;fontSize=11;strokeColor=#000000;fillColor=none;" vertex="1" parent="K7jrmlSnKd5e08-iuxen-4">
          <mxGeometry x="2.5" y="20" width="45" height="20" as="geometry" />
        </mxCell>
        <mxCell id="K7jrmlSnKd5e08-iuxen-13" value="" style="rounded=0;whiteSpace=wrap;html=1;fontSize=22;strokeColor=none;fillColor=#000000;" vertex="1" parent="K7jrmlSnKd5e08-iuxen-3">
          <mxGeometry x="10" y="90" width="10" height="10" as="geometry" />
        </mxCell>
        <mxCell id="K7jrmlSnKd5e08-iuxen-14" value="" style="rounded=0;whiteSpace=wrap;html=1;fontSize=22;strokeColor=none;fillColor=#BFBFBF;" vertex="1" parent="K7jrmlSnKd5e08-iuxen-3">
          <mxGeometry x="10" y="100" width="10" height="10" as="geometry" />
        </mxCell>
        <mxCell id="K7jrmlSnKd5e08-iuxen-15" value="" style="rounded=0;whiteSpace=wrap;html=1;fontSize=22;strokeColor=none;fillColor=#000000;" vertex="1" parent="K7jrmlSnKd5e08-iuxen-3">
          <mxGeometry x="10" y="110" width="10" height="10" as="geometry" />
        </mxCell>
        <mxCell id="K7jrmlSnKd5e08-iuxen-16" value="" style="rounded=0;whiteSpace=wrap;html=1;fontSize=22;strokeColor=none;fillColor=#BFBFBF;" vertex="1" parent="K7jrmlSnKd5e08-iuxen-3">
          <mxGeometry x="10" y="120" width="10" height="10" as="geometry" />
        </mxCell>
        <mxCell id="K7jrmlSnKd5e08-iuxen-17" value="" style="rounded=0;whiteSpace=wrap;html=1;fontSize=22;strokeColor=none;fillColor=#000000;" vertex="1" parent="K7jrmlSnKd5e08-iuxen-3">
          <mxGeometry x="30" y="90" width="10" height="10" as="geometry" />
        </mxCell>
        <mxCell id="K7jrmlSnKd5e08-iuxen-18" value="" style="rounded=0;whiteSpace=wrap;html=1;fontSize=22;strokeColor=none;fillColor=#BFBFBF;" vertex="1" parent="K7jrmlSnKd5e08-iuxen-3">
          <mxGeometry x="30" y="100" width="10" height="10" as="geometry" />
        </mxCell>
        <mxCell id="K7jrmlSnKd5e08-iuxen-19" value="" style="rounded=0;whiteSpace=wrap;html=1;fontSize=22;strokeColor=none;fillColor=#000000;" vertex="1" parent="K7jrmlSnKd5e08-iuxen-3">
          <mxGeometry x="30" y="110" width="10" height="15" as="geometry" />
        </mxCell>
        <mxCell id="K7jrmlSnKd5e08-iuxen-20" value="" style="rounded=0;whiteSpace=wrap;html=1;fontSize=22;strokeColor=none;fillColor=#BFBFBF;" vertex="1" parent="K7jrmlSnKd5e08-iuxen-3">
          <mxGeometry x="30" y="120" width="10" height="10" as="geometry" />
        </mxCell>
        <mxCell id="K7jrmlSnKd5e08-iuxen-21" value="" style="ellipse;whiteSpace=wrap;html=1;aspect=fixed;fontSize=11;strokeColor=#000000;fillColor=none;" vertex="1" parent="K7jrmlSnKd5e08-iuxen-3">
          <mxGeometry x="10" y="155" width="10" height="10" as="geometry" />
        </mxCell>
        <mxCell id="K7jrmlSnKd5e08-iuxen-22" value="" style="ellipse;whiteSpace=wrap;html=1;aspect=fixed;fontSize=11;strokeColor=#000000;fillColor=none;" vertex="1" parent="K7jrmlSnKd5e08-iuxen-3">
          <mxGeometry x="30" y="155" width="10" height="10" as="geometry" />
        </mxCell>
        <mxCell id="K7jrmlSnKd5e08-iuxen-23" value="" style="endArrow=classic;html=1;rounded=0;fontSize=11;exitX=0.5;exitY=0;exitDx=0;exitDy=0;entryX=0.5;entryY=1;entryDx=0;entryDy=0;" edge="1" parent="K7jrmlSnKd5e08-iuxen-3" source="K7jrmlSnKd5e08-iuxen-21" target="K7jrmlSnKd5e08-iuxen-16">
          <mxGeometry width="50" height="50" relative="1" as="geometry">
            <mxPoint x="-20" y="65" as="sourcePoint" />
            <mxPoint x="30" y="15" as="targetPoint" />
          </mxGeometry>
        </mxCell>
        <mxCell id="K7jrmlSnKd5e08-iuxen-24" value="" style="endArrow=classic;html=1;rounded=0;fontSize=11;exitX=0.5;exitY=0;exitDx=0;exitDy=0;entryX=0.5;entryY=1;entryDx=0;entryDy=0;" edge="1" parent="K7jrmlSnKd5e08-iuxen-3" source="K7jrmlSnKd5e08-iuxen-22" target="K7jrmlSnKd5e08-iuxen-20">
          <mxGeometry width="50" height="50" relative="1" as="geometry">
            <mxPoint x="34.81999999999999" y="155" as="sourcePoint" />
            <mxPoint x="34.81999999999999" y="130" as="targetPoint" />
          </mxGeometry>
        </mxCell>
        <mxCell id="K7jrmlSnKd5e08-iuxen-25" value="" style="endArrow=classic;html=1;rounded=0;fontSize=11;exitX=0.5;exitY=0;exitDx=0;exitDy=0;entryX=0.5;entryY=1;entryDx=0;entryDy=0;" edge="1" parent="K7jrmlSnKd5e08-iuxen-3">
          <mxGeometry width="50" height="50" relative="1" as="geometry">
            <mxPoint x="24.84999999999991" y="25" as="sourcePoint" />
            <mxPoint x="24.84999999999991" as="targetPoint" />
          </mxGeometry>
        </mxCell>
        <mxCell id="K7jrmlSnKd5e08-iuxen-26" value="" style="group" vertex="1" connectable="0" parent="K7jrmlSnKd5e08-iuxen-2">
          <mxGeometry x="75" width="50" height="165" as="geometry" />
        </mxCell>
        <mxCell id="K7jrmlSnKd5e08-iuxen-27" value="" style="group" vertex="1" connectable="0" parent="K7jrmlSnKd5e08-iuxen-26">
          <mxGeometry y="25" width="50" height="65" as="geometry" />
        </mxCell>
        <mxCell id="K7jrmlSnKd5e08-iuxen-28" value="" style="group" vertex="1" connectable="0" parent="K7jrmlSnKd5e08-iuxen-27">
          <mxGeometry x="5" width="40" height="10" as="geometry" />
        </mxCell>
        <mxCell id="K7jrmlSnKd5e08-iuxen-29" value="" style="rounded=0;whiteSpace=wrap;html=1;fontSize=22;strokeColor=none;fillColor=#000000;" vertex="1" parent="K7jrmlSnKd5e08-iuxen-28">
          <mxGeometry width="10" height="10" as="geometry" />
        </mxCell>
        <mxCell id="K7jrmlSnKd5e08-iuxen-30" style="edgeStyle=none;rounded=0;orthogonalLoop=1;jettySize=auto;html=1;exitX=1;exitY=1;exitDx=0;exitDy=0;fontSize=22;strokeColor=none;" edge="1" parent="K7jrmlSnKd5e08-iuxen-28" source="K7jrmlSnKd5e08-iuxen-29" target="K7jrmlSnKd5e08-iuxen-29">
          <mxGeometry relative="1" as="geometry" />
        </mxCell>
        <mxCell id="K7jrmlSnKd5e08-iuxen-31" value="" style="rounded=0;whiteSpace=wrap;html=1;fontSize=22;strokeColor=none;fillColor=#BFBFBF;" vertex="1" parent="K7jrmlSnKd5e08-iuxen-28">
          <mxGeometry x="10" width="10" height="10" as="geometry" />
        </mxCell>
        <mxCell id="K7jrmlSnKd5e08-iuxen-32" value="" style="rounded=0;whiteSpace=wrap;html=1;fontSize=22;strokeColor=none;fillColor=#000000;" vertex="1" parent="K7jrmlSnKd5e08-iuxen-28">
          <mxGeometry x="20" width="10" height="10" as="geometry" />
        </mxCell>
        <mxCell id="K7jrmlSnKd5e08-iuxen-33" value="" style="rounded=0;whiteSpace=wrap;html=1;fontSize=22;strokeColor=none;fillColor=#BFBFBF;" vertex="1" parent="K7jrmlSnKd5e08-iuxen-28">
          <mxGeometry x="30" width="10" height="10" as="geometry" />
        </mxCell>
        <mxCell id="K7jrmlSnKd5e08-iuxen-34" value="" style="shape=curlyBracket;whiteSpace=wrap;html=1;rounded=1;flipH=1;fontSize=22;strokeColor=#000000;fillColor=#000000;rotation=-90;size=0.5;" vertex="1" parent="K7jrmlSnKd5e08-iuxen-27">
          <mxGeometry x="15" y="30" width="20" height="50" as="geometry" />
        </mxCell>
        <mxCell id="K7jrmlSnKd5e08-iuxen-35" value="&lt;font style=&quot;font-size: 11px;&quot;&gt;concat&lt;/font&gt;" style="rounded=1;whiteSpace=wrap;html=1;fontSize=11;strokeColor=#000000;fillColor=none;" vertex="1" parent="K7jrmlSnKd5e08-iuxen-27">
          <mxGeometry x="2.5" y="20" width="45" height="20" as="geometry" />
        </mxCell>
        <mxCell id="K7jrmlSnKd5e08-iuxen-36" value="" style="rounded=0;whiteSpace=wrap;html=1;fontSize=22;strokeColor=none;fillColor=#000000;" vertex="1" parent="K7jrmlSnKd5e08-iuxen-26">
          <mxGeometry x="10" y="90" width="10" height="10" as="geometry" />
        </mxCell>
        <mxCell id="K7jrmlSnKd5e08-iuxen-37" value="" style="rounded=0;whiteSpace=wrap;html=1;fontSize=22;strokeColor=none;fillColor=#BFBFBF;" vertex="1" parent="K7jrmlSnKd5e08-iuxen-26">
          <mxGeometry x="10" y="100" width="10" height="10" as="geometry" />
        </mxCell>
        <mxCell id="K7jrmlSnKd5e08-iuxen-38" value="" style="rounded=0;whiteSpace=wrap;html=1;fontSize=22;strokeColor=none;fillColor=#000000;" vertex="1" parent="K7jrmlSnKd5e08-iuxen-26">
          <mxGeometry x="10" y="110" width="10" height="10" as="geometry" />
        </mxCell>
        <mxCell id="K7jrmlSnKd5e08-iuxen-39" value="" style="rounded=0;whiteSpace=wrap;html=1;fontSize=22;strokeColor=none;fillColor=#BFBFBF;" vertex="1" parent="K7jrmlSnKd5e08-iuxen-26">
          <mxGeometry x="10" y="120" width="10" height="10" as="geometry" />
        </mxCell>
        <mxCell id="K7jrmlSnKd5e08-iuxen-40" value="" style="rounded=0;whiteSpace=wrap;html=1;fontSize=22;strokeColor=none;fillColor=#000000;" vertex="1" parent="K7jrmlSnKd5e08-iuxen-26">
          <mxGeometry x="30" y="90" width="10" height="10" as="geometry" />
        </mxCell>
        <mxCell id="K7jrmlSnKd5e08-iuxen-41" value="" style="rounded=0;whiteSpace=wrap;html=1;fontSize=22;strokeColor=none;fillColor=#BFBFBF;" vertex="1" parent="K7jrmlSnKd5e08-iuxen-26">
          <mxGeometry x="30" y="100" width="10" height="10" as="geometry" />
        </mxCell>
        <mxCell id="K7jrmlSnKd5e08-iuxen-42" value="" style="rounded=0;whiteSpace=wrap;html=1;fontSize=22;strokeColor=none;fillColor=#000000;" vertex="1" parent="K7jrmlSnKd5e08-iuxen-26">
          <mxGeometry x="30" y="110" width="10" height="15" as="geometry" />
        </mxCell>
        <mxCell id="K7jrmlSnKd5e08-iuxen-43" value="" style="rounded=0;whiteSpace=wrap;html=1;fontSize=22;strokeColor=none;fillColor=#BFBFBF;" vertex="1" parent="K7jrmlSnKd5e08-iuxen-26">
          <mxGeometry x="30" y="120" width="10" height="10" as="geometry" />
        </mxCell>
        <mxCell id="K7jrmlSnKd5e08-iuxen-44" value="" style="ellipse;whiteSpace=wrap;html=1;aspect=fixed;fontSize=11;strokeColor=#000000;fillColor=none;" vertex="1" parent="K7jrmlSnKd5e08-iuxen-26">
          <mxGeometry x="10" y="155" width="10" height="10" as="geometry" />
        </mxCell>
        <mxCell id="K7jrmlSnKd5e08-iuxen-45" value="" style="ellipse;whiteSpace=wrap;html=1;aspect=fixed;fontSize=11;strokeColor=#000000;fillColor=none;" vertex="1" parent="K7jrmlSnKd5e08-iuxen-26">
          <mxGeometry x="30" y="155" width="10" height="10" as="geometry" />
        </mxCell>
        <mxCell id="K7jrmlSnKd5e08-iuxen-46" value="" style="endArrow=classic;html=1;rounded=0;fontSize=11;exitX=0.5;exitY=0;exitDx=0;exitDy=0;entryX=0.5;entryY=1;entryDx=0;entryDy=0;" edge="1" parent="K7jrmlSnKd5e08-iuxen-26" source="K7jrmlSnKd5e08-iuxen-44" target="K7jrmlSnKd5e08-iuxen-39">
          <mxGeometry width="50" height="50" relative="1" as="geometry">
            <mxPoint x="-20" y="65" as="sourcePoint" />
            <mxPoint x="30" y="15" as="targetPoint" />
          </mxGeometry>
        </mxCell>
        <mxCell id="K7jrmlSnKd5e08-iuxen-47" value="" style="endArrow=classic;html=1;rounded=0;fontSize=11;exitX=0.5;exitY=0;exitDx=0;exitDy=0;entryX=0.5;entryY=1;entryDx=0;entryDy=0;" edge="1" parent="K7jrmlSnKd5e08-iuxen-26" source="K7jrmlSnKd5e08-iuxen-45" target="K7jrmlSnKd5e08-iuxen-43">
          <mxGeometry width="50" height="50" relative="1" as="geometry">
            <mxPoint x="34.81999999999999" y="155" as="sourcePoint" />
            <mxPoint x="34.81999999999999" y="130" as="targetPoint" />
          </mxGeometry>
        </mxCell>
        <mxCell id="K7jrmlSnKd5e08-iuxen-48" value="" style="endArrow=classic;html=1;rounded=0;fontSize=11;exitX=0.5;exitY=0;exitDx=0;exitDy=0;entryX=0.5;entryY=1;entryDx=0;entryDy=0;" edge="1" parent="K7jrmlSnKd5e08-iuxen-26">
          <mxGeometry width="50" height="50" relative="1" as="geometry">
            <mxPoint x="24.849999999999966" y="25" as="sourcePoint" />
            <mxPoint x="24.849999999999966" as="targetPoint" />
          </mxGeometry>
        </mxCell>
        <mxCell id="K7jrmlSnKd5e08-iuxen-49" value="UI&lt;br&gt;Features" style="text;html=1;strokeColor=none;fillColor=none;align=center;verticalAlign=middle;whiteSpace=wrap;rounded=0;fontSize=11;" vertex="1" parent="K7jrmlSnKd5e08-iuxen-2">
          <mxGeometry y="170" width="60" height="30" as="geometry" />
        </mxCell>
        <mxCell id="K7jrmlSnKd5e08-iuxen-50" value="User Profile&lt;br&gt;Features" style="text;html=1;strokeColor=none;fillColor=none;align=center;verticalAlign=middle;whiteSpace=wrap;rounded=0;fontSize=11;" vertex="1" parent="K7jrmlSnKd5e08-iuxen-2">
          <mxGeometry x="70" y="170" width="65" height="30" as="geometry" />
        </mxCell>
        <mxCell id="K7jrmlSnKd5e08-iuxen-51" value="" style="group" vertex="1" connectable="0" parent="1">
          <mxGeometry x="912.5" y="489.18" width="193.5" height="280" as="geometry" />
        </mxCell>
        <mxCell id="K7jrmlSnKd5e08-iuxen-52" value="" style="group" vertex="1" connectable="0" parent="K7jrmlSnKd5e08-iuxen-51">
          <mxGeometry y="25" width="40" height="10" as="geometry" />
        </mxCell>
        <mxCell id="K7jrmlSnKd5e08-iuxen-53" value="" style="rounded=0;whiteSpace=wrap;html=1;fontSize=22;strokeColor=none;fillColor=#CDA2BE;" vertex="1" parent="K7jrmlSnKd5e08-iuxen-52">
          <mxGeometry width="10" height="10" as="geometry" />
        </mxCell>
        <mxCell id="K7jrmlSnKd5e08-iuxen-54" style="edgeStyle=none;rounded=0;orthogonalLoop=1;jettySize=auto;html=1;exitX=1;exitY=1;exitDx=0;exitDy=0;fontSize=22;strokeColor=none;" edge="1" parent="K7jrmlSnKd5e08-iuxen-52" source="K7jrmlSnKd5e08-iuxen-53" target="K7jrmlSnKd5e08-iuxen-53">
          <mxGeometry relative="1" as="geometry" />
        </mxCell>
        <mxCell id="K7jrmlSnKd5e08-iuxen-55" value="" style="rounded=0;whiteSpace=wrap;html=1;fontSize=22;strokeColor=none;fillColor=#FFCE9F;" vertex="1" parent="K7jrmlSnKd5e08-iuxen-52">
          <mxGeometry x="10" width="10" height="10" as="geometry" />
        </mxCell>
        <mxCell id="K7jrmlSnKd5e08-iuxen-56" value="" style="rounded=0;whiteSpace=wrap;html=1;fontSize=22;strokeColor=none;fillColor=#CDA2BE;" vertex="1" parent="K7jrmlSnKd5e08-iuxen-52">
          <mxGeometry x="20" width="10" height="10" as="geometry" />
        </mxCell>
        <mxCell id="K7jrmlSnKd5e08-iuxen-57" value="" style="rounded=0;whiteSpace=wrap;html=1;fontSize=22;strokeColor=none;fillColor=#FFCE9F;" vertex="1" parent="K7jrmlSnKd5e08-iuxen-52">
          <mxGeometry x="30" width="10" height="10" as="geometry" />
        </mxCell>
        <mxCell id="K7jrmlSnKd5e08-iuxen-58" value="" style="endArrow=classic;html=1;rounded=0;fontSize=11;exitX=0.5;exitY=0;exitDx=0;exitDy=0;entryX=0.568;entryY=1.041;entryDx=0;entryDy=0;entryPerimeter=0;" edge="1" parent="K7jrmlSnKd5e08-iuxen-51" target="K7jrmlSnKd5e08-iuxen-1">
          <mxGeometry width="50" height="50" relative="1" as="geometry">
            <mxPoint x="19.84999999999991" y="25" as="sourcePoint" />
            <mxPoint x="19.84999999999991" as="targetPoint" />
          </mxGeometry>
        </mxCell>
        <mxCell id="K7jrmlSnKd5e08-iuxen-181" value="" style="rounded=0;whiteSpace=wrap;html=1;fontFamily=Georgia;fontSize=22;strokeColor=#000000;fillColor=none;dashed=1;" vertex="1" parent="K7jrmlSnKd5e08-iuxen-51">
          <mxGeometry x="-126.5" y="20" width="320" height="260" as="geometry" />
        </mxCell>
        <mxCell id="K7jrmlSnKd5e08-iuxen-520" value="&lt;i&gt;&lt;font face=&quot;Times New Roman&quot;&gt;E&lt;sub&gt;u-s&lt;/sub&gt;&lt;/font&gt;&lt;/i&gt;" style="text;html=1;strokeColor=none;fillColor=none;align=center;verticalAlign=middle;whiteSpace=wrap;rounded=0;" vertex="1" parent="K7jrmlSnKd5e08-iuxen-51">
          <mxGeometry x="37.5" y="15" width="60" height="30" as="geometry" />
        </mxCell>
        <mxCell id="K7jrmlSnKd5e08-iuxen-59" value="&lt;font style=&quot;font-size: 11px;&quot;&gt;concat&lt;/font&gt;" style="rounded=1;whiteSpace=wrap;html=1;fontSize=11;strokeColor=#000000;fillColor=none;" vertex="1" parent="1">
          <mxGeometry x="909.5" y="529.1800000000001" width="45" height="20" as="geometry" />
        </mxCell>
        <mxCell id="K7jrmlSnKd5e08-iuxen-60" value="" style="shape=curlyBracket;whiteSpace=wrap;html=1;rounded=1;flipH=1;fontSize=22;strokeColor=#000000;fillColor=#000000;rotation=-90;size=0.5;" vertex="1" parent="1">
          <mxGeometry x="922" y="429.18" width="20" height="260" as="geometry" />
        </mxCell>
        <mxCell id="K7jrmlSnKd5e08-iuxen-61" value="" style="group" vertex="1" connectable="0" parent="1">
          <mxGeometry x="1260" y="321.65" width="65" height="200" as="geometry" />
        </mxCell>
        <mxCell id="K7jrmlSnKd5e08-iuxen-62" value="" style="group" vertex="1" connectable="0" parent="K7jrmlSnKd5e08-iuxen-61">
          <mxGeometry x="5" width="50" height="165" as="geometry" />
        </mxCell>
        <mxCell id="K7jrmlSnKd5e08-iuxen-63" value="" style="group" vertex="1" connectable="0" parent="K7jrmlSnKd5e08-iuxen-62">
          <mxGeometry y="25" width="50" height="65" as="geometry" />
        </mxCell>
        <mxCell id="K7jrmlSnKd5e08-iuxen-64" value="" style="group" vertex="1" connectable="0" parent="K7jrmlSnKd5e08-iuxen-63">
          <mxGeometry x="5" width="40" height="10" as="geometry" />
        </mxCell>
        <mxCell id="K7jrmlSnKd5e08-iuxen-65" value="" style="rounded=0;whiteSpace=wrap;html=1;fontSize=22;strokeColor=none;fillColor=#000000;" vertex="1" parent="K7jrmlSnKd5e08-iuxen-64">
          <mxGeometry width="10" height="10" as="geometry" />
        </mxCell>
        <mxCell id="K7jrmlSnKd5e08-iuxen-66" style="edgeStyle=none;rounded=0;orthogonalLoop=1;jettySize=auto;html=1;exitX=1;exitY=1;exitDx=0;exitDy=0;fontSize=22;strokeColor=none;" edge="1" parent="K7jrmlSnKd5e08-iuxen-64" source="K7jrmlSnKd5e08-iuxen-65" target="K7jrmlSnKd5e08-iuxen-65">
          <mxGeometry relative="1" as="geometry" />
        </mxCell>
        <mxCell id="K7jrmlSnKd5e08-iuxen-67" value="" style="rounded=0;whiteSpace=wrap;html=1;fontSize=22;strokeColor=none;fillColor=#BFBFBF;" vertex="1" parent="K7jrmlSnKd5e08-iuxen-64">
          <mxGeometry x="10" width="10" height="10" as="geometry" />
        </mxCell>
        <mxCell id="K7jrmlSnKd5e08-iuxen-68" value="" style="rounded=0;whiteSpace=wrap;html=1;fontSize=22;strokeColor=none;fillColor=#000000;" vertex="1" parent="K7jrmlSnKd5e08-iuxen-64">
          <mxGeometry x="20" width="10" height="10" as="geometry" />
        </mxCell>
        <mxCell id="K7jrmlSnKd5e08-iuxen-69" value="" style="rounded=0;whiteSpace=wrap;html=1;fontSize=22;strokeColor=none;fillColor=#BFBFBF;" vertex="1" parent="K7jrmlSnKd5e08-iuxen-64">
          <mxGeometry x="30" width="10" height="10" as="geometry" />
        </mxCell>
        <mxCell id="K7jrmlSnKd5e08-iuxen-70" value="" style="shape=curlyBracket;whiteSpace=wrap;html=1;rounded=1;flipH=1;fontSize=22;strokeColor=#000000;fillColor=#000000;rotation=-90;size=0.5;" vertex="1" parent="K7jrmlSnKd5e08-iuxen-63">
          <mxGeometry x="15" y="30" width="20" height="50" as="geometry" />
        </mxCell>
        <mxCell id="K7jrmlSnKd5e08-iuxen-71" value="&lt;font style=&quot;font-size: 11px;&quot;&gt;concat&lt;/font&gt;" style="rounded=1;whiteSpace=wrap;html=1;fontSize=11;strokeColor=#000000;fillColor=none;" vertex="1" parent="K7jrmlSnKd5e08-iuxen-63">
          <mxGeometry x="2.5" y="20" width="45" height="20" as="geometry" />
        </mxCell>
        <mxCell id="K7jrmlSnKd5e08-iuxen-72" value="" style="rounded=0;whiteSpace=wrap;html=1;fontSize=22;strokeColor=none;fillColor=#000000;" vertex="1" parent="K7jrmlSnKd5e08-iuxen-62">
          <mxGeometry x="10" y="90" width="10" height="10" as="geometry" />
        </mxCell>
        <mxCell id="K7jrmlSnKd5e08-iuxen-73" value="" style="rounded=0;whiteSpace=wrap;html=1;fontSize=22;strokeColor=none;fillColor=#BFBFBF;" vertex="1" parent="K7jrmlSnKd5e08-iuxen-62">
          <mxGeometry x="10" y="100" width="10" height="10" as="geometry" />
        </mxCell>
        <mxCell id="K7jrmlSnKd5e08-iuxen-74" value="" style="rounded=0;whiteSpace=wrap;html=1;fontSize=22;strokeColor=none;fillColor=#000000;" vertex="1" parent="K7jrmlSnKd5e08-iuxen-62">
          <mxGeometry x="10" y="110" width="10" height="10" as="geometry" />
        </mxCell>
        <mxCell id="K7jrmlSnKd5e08-iuxen-75" value="" style="rounded=0;whiteSpace=wrap;html=1;fontSize=22;strokeColor=none;fillColor=#BFBFBF;" vertex="1" parent="K7jrmlSnKd5e08-iuxen-62">
          <mxGeometry x="10" y="120" width="10" height="10" as="geometry" />
        </mxCell>
        <mxCell id="K7jrmlSnKd5e08-iuxen-76" value="" style="rounded=0;whiteSpace=wrap;html=1;fontSize=22;strokeColor=none;fillColor=#000000;" vertex="1" parent="K7jrmlSnKd5e08-iuxen-62">
          <mxGeometry x="30" y="90" width="10" height="10" as="geometry" />
        </mxCell>
        <mxCell id="K7jrmlSnKd5e08-iuxen-77" value="" style="rounded=0;whiteSpace=wrap;html=1;fontSize=22;strokeColor=none;fillColor=#BFBFBF;" vertex="1" parent="K7jrmlSnKd5e08-iuxen-62">
          <mxGeometry x="30" y="100" width="10" height="10" as="geometry" />
        </mxCell>
        <mxCell id="K7jrmlSnKd5e08-iuxen-78" value="" style="rounded=0;whiteSpace=wrap;html=1;fontSize=22;strokeColor=none;fillColor=#000000;" vertex="1" parent="K7jrmlSnKd5e08-iuxen-62">
          <mxGeometry x="30" y="110" width="10" height="15" as="geometry" />
        </mxCell>
        <mxCell id="K7jrmlSnKd5e08-iuxen-79" value="" style="rounded=0;whiteSpace=wrap;html=1;fontSize=22;strokeColor=none;fillColor=#BFBFBF;" vertex="1" parent="K7jrmlSnKd5e08-iuxen-62">
          <mxGeometry x="30" y="120" width="10" height="10" as="geometry" />
        </mxCell>
        <mxCell id="K7jrmlSnKd5e08-iuxen-80" value="" style="ellipse;whiteSpace=wrap;html=1;aspect=fixed;fontSize=11;strokeColor=#000000;fillColor=none;" vertex="1" parent="K7jrmlSnKd5e08-iuxen-62">
          <mxGeometry x="10" y="155" width="10" height="10" as="geometry" />
        </mxCell>
        <mxCell id="K7jrmlSnKd5e08-iuxen-81" value="" style="ellipse;whiteSpace=wrap;html=1;aspect=fixed;fontSize=11;strokeColor=#000000;fillColor=none;" vertex="1" parent="K7jrmlSnKd5e08-iuxen-62">
          <mxGeometry x="30" y="155" width="10" height="10" as="geometry" />
        </mxCell>
        <mxCell id="K7jrmlSnKd5e08-iuxen-82" value="" style="endArrow=classic;html=1;rounded=0;fontSize=11;exitX=0.5;exitY=0;exitDx=0;exitDy=0;entryX=0.5;entryY=1;entryDx=0;entryDy=0;" edge="1" parent="K7jrmlSnKd5e08-iuxen-62" source="K7jrmlSnKd5e08-iuxen-80" target="K7jrmlSnKd5e08-iuxen-75">
          <mxGeometry width="50" height="50" relative="1" as="geometry">
            <mxPoint x="-20" y="65" as="sourcePoint" />
            <mxPoint x="30" y="15" as="targetPoint" />
          </mxGeometry>
        </mxCell>
        <mxCell id="K7jrmlSnKd5e08-iuxen-83" value="" style="endArrow=classic;html=1;rounded=0;fontSize=11;exitX=0.5;exitY=0;exitDx=0;exitDy=0;entryX=0.5;entryY=1;entryDx=0;entryDy=0;" edge="1" parent="K7jrmlSnKd5e08-iuxen-62" source="K7jrmlSnKd5e08-iuxen-81" target="K7jrmlSnKd5e08-iuxen-79">
          <mxGeometry width="50" height="50" relative="1" as="geometry">
            <mxPoint x="34.81999999999999" y="155" as="sourcePoint" />
            <mxPoint x="34.81999999999999" y="130" as="targetPoint" />
          </mxGeometry>
        </mxCell>
        <mxCell id="K7jrmlSnKd5e08-iuxen-84" value="" style="endArrow=classic;html=1;rounded=0;fontSize=11;exitX=0.5;exitY=0;exitDx=0;exitDy=0;entryX=0.5;entryY=1;entryDx=0;entryDy=0;" edge="1" parent="K7jrmlSnKd5e08-iuxen-62">
          <mxGeometry width="50" height="50" relative="1" as="geometry">
            <mxPoint x="24.849999999999966" y="25" as="sourcePoint" />
            <mxPoint x="24.849999999999966" as="targetPoint" />
          </mxGeometry>
        </mxCell>
        <mxCell id="K7jrmlSnKd5e08-iuxen-85" value="Cross&lt;br&gt;Features" style="text;html=1;strokeColor=none;fillColor=none;align=center;verticalAlign=middle;whiteSpace=wrap;rounded=0;fontSize=11;" vertex="1" parent="K7jrmlSnKd5e08-iuxen-61">
          <mxGeometry y="170" width="65" height="30" as="geometry" />
        </mxCell>
        <mxCell id="K7jrmlSnKd5e08-iuxen-86" value="" style="group" vertex="1" connectable="0" parent="1">
          <mxGeometry x="826" y="600.8299999999999" width="80" height="120" as="geometry" />
        </mxCell>
        <mxCell id="K7jrmlSnKd5e08-iuxen-87" value="" style="group" vertex="1" connectable="0" parent="K7jrmlSnKd5e08-iuxen-86">
          <mxGeometry x="2.692307692307692" width="40" height="44.57142857142857" as="geometry" />
        </mxCell>
        <mxCell id="K7jrmlSnKd5e08-iuxen-88" value="" style="shape=curlyBracket;whiteSpace=wrap;html=1;rounded=1;flipH=1;fontSize=22;strokeColor=#000000;fillColor=#000000;rotation=-90;size=0.5;" vertex="1" parent="K7jrmlSnKd5e08-iuxen-87">
          <mxGeometry x="18.076923076923077" y="36.62142857142857" width="10.769230769230768" height="34.285714285714285" as="geometry" />
        </mxCell>
        <mxCell id="K7jrmlSnKd5e08-iuxen-89" value="&lt;font style=&quot;font-size: 11px;&quot;&gt;concat&lt;/font&gt;" style="rounded=1;whiteSpace=wrap;html=1;fontSize=11;strokeColor=#000000;fillColor=none;" vertex="1" parent="K7jrmlSnKd5e08-iuxen-87">
          <mxGeometry x="4.14" y="36.05" width="38.65" height="10.43" as="geometry" />
        </mxCell>
        <mxCell id="K7jrmlSnKd5e08-iuxen-90" value="" style="rounded=0;whiteSpace=wrap;html=1;fontSize=22;strokeColor=none;fillColor=#CDA2BE;" vertex="1" parent="K7jrmlSnKd5e08-iuxen-86">
          <mxGeometry x="18.076923076923077" y="60.62142857142857" width="5.384615384615384" height="6.857142857142857" as="geometry" />
        </mxCell>
        <mxCell id="K7jrmlSnKd5e08-iuxen-91" value="" style="rounded=0;whiteSpace=wrap;html=1;fontSize=22;strokeColor=none;fillColor=#E6D0DE;" vertex="1" parent="K7jrmlSnKd5e08-iuxen-86">
          <mxGeometry x="18.076923076923077" y="67.47857142857143" width="5.384615384615384" height="6.857142857142857" as="geometry" />
        </mxCell>
        <mxCell id="K7jrmlSnKd5e08-iuxen-92" value="" style="rounded=0;whiteSpace=wrap;html=1;fontSize=22;strokeColor=none;fillColor=#CDA2BE;" vertex="1" parent="K7jrmlSnKd5e08-iuxen-86">
          <mxGeometry x="18.076923076923077" y="74.33571428571429" width="5.384615384615384" height="6.857142857142857" as="geometry" />
        </mxCell>
        <mxCell id="K7jrmlSnKd5e08-iuxen-93" value="" style="rounded=0;whiteSpace=wrap;html=1;fontSize=22;strokeColor=none;fillColor=#E6D0DE;" vertex="1" parent="K7jrmlSnKd5e08-iuxen-86">
          <mxGeometry x="18.076923076923077" y="81.19285714285714" width="5.384615384615384" height="6.857142857142857" as="geometry" />
        </mxCell>
        <mxCell id="K7jrmlSnKd5e08-iuxen-94" value="" style="rounded=0;whiteSpace=wrap;html=1;fontSize=22;strokeColor=none;fillColor=#FFB570;" vertex="1" parent="K7jrmlSnKd5e08-iuxen-86">
          <mxGeometry x="29.996153846153845" y="60.62142857142857" width="5.384615384615384" height="6.857142857142857" as="geometry" />
        </mxCell>
        <mxCell id="K7jrmlSnKd5e08-iuxen-95" value="" style="rounded=0;whiteSpace=wrap;html=1;fontSize=22;strokeColor=none;fillColor=#FFCE9F;" vertex="1" parent="K7jrmlSnKd5e08-iuxen-86">
          <mxGeometry x="29.996153846153845" y="67.47857142857143" width="5.384615384615384" height="6.857142857142857" as="geometry" />
        </mxCell>
        <mxCell id="K7jrmlSnKd5e08-iuxen-96" value="" style="rounded=0;whiteSpace=wrap;html=1;fontSize=22;strokeColor=none;fillColor=#FFB570;" vertex="1" parent="K7jrmlSnKd5e08-iuxen-86">
          <mxGeometry x="29.996153846153845" y="74.33571428571429" width="5.384615384615384" height="10.285714285714285" as="geometry" />
        </mxCell>
        <mxCell id="K7jrmlSnKd5e08-iuxen-97" value="" style="rounded=0;whiteSpace=wrap;html=1;fontSize=22;strokeColor=none;fillColor=#FFCE9F;" vertex="1" parent="K7jrmlSnKd5e08-iuxen-86">
          <mxGeometry x="29.996153846153845" y="81.19285714285714" width="5.384615384615384" height="6.857142857142857" as="geometry" />
        </mxCell>
        <mxCell id="K7jrmlSnKd5e08-iuxen-98" value="" style="ellipse;whiteSpace=wrap;html=1;aspect=fixed;fontSize=11;strokeColor=#000000;fillColor=none;" vertex="1" parent="K7jrmlSnKd5e08-iuxen-86">
          <mxGeometry x="18.076923076923077" y="105.19285714285714" width="4.615384615384615" height="4.615384615384615" as="geometry" />
        </mxCell>
        <mxCell id="K7jrmlSnKd5e08-iuxen-99" value="" style="ellipse;whiteSpace=wrap;html=1;aspect=fixed;fontSize=11;strokeColor=#000000;fillColor=none;" vertex="1" parent="K7jrmlSnKd5e08-iuxen-86">
          <mxGeometry x="29.996153846153845" y="105.19285714285714" width="4.615384615384615" height="4.615384615384615" as="geometry" />
        </mxCell>
        <mxCell id="K7jrmlSnKd5e08-iuxen-100" value="" style="endArrow=classic;html=1;rounded=0;fontSize=11;exitX=0.5;exitY=0;exitDx=0;exitDy=0;entryX=0.5;entryY=1;entryDx=0;entryDy=0;" edge="1" parent="K7jrmlSnKd5e08-iuxen-86" source="K7jrmlSnKd5e08-iuxen-98" target="K7jrmlSnKd5e08-iuxen-93">
          <mxGeometry width="50" height="50" relative="1" as="geometry">
            <mxPoint x="-313.07692307692304" y="-169.09285714285713" as="sourcePoint" />
            <mxPoint x="-286.15384615384613" y="-203.3785714285714" as="targetPoint" />
          </mxGeometry>
        </mxCell>
        <mxCell id="K7jrmlSnKd5e08-iuxen-101" value="" style="endArrow=classic;html=1;rounded=0;fontSize=11;exitX=0.5;exitY=0;exitDx=0;exitDy=0;entryX=0.5;entryY=1;entryDx=0;entryDy=0;" edge="1" parent="K7jrmlSnKd5e08-iuxen-86" source="K7jrmlSnKd5e08-iuxen-99" target="K7jrmlSnKd5e08-iuxen-97">
          <mxGeometry width="50" height="50" relative="1" as="geometry">
            <mxPoint x="-282.4084615384616" y="-107.37857142857142" as="sourcePoint" />
            <mxPoint x="-282.4084615384616" y="-124.52142857142854" as="targetPoint" />
          </mxGeometry>
        </mxCell>
        <mxCell id="K7jrmlSnKd5e08-iuxen-102" value="&lt;font style=&quot;font-size: 9px;&quot; face=&quot;Georgia&quot;&gt;&lt;i&gt;Item &lt;sub&gt;u1&lt;/sub&gt;&lt;/i&gt;&lt;/font&gt;" style="text;html=1;strokeColor=none;fillColor=none;align=center;verticalAlign=middle;whiteSpace=wrap;rounded=0;fontSize=11;" vertex="1" parent="K7jrmlSnKd5e08-iuxen-86">
          <mxGeometry x="-7.309999999999999" y="105.19000000000001" width="60" height="20.57" as="geometry" />
        </mxCell>
        <mxCell id="K7jrmlSnKd5e08-iuxen-103" value="" style="endArrow=classic;html=1;rounded=0;fontSize=11;edgeStyle=orthogonalEdgeStyle;strokeColor=#FF8000;entryX=0.75;entryY=1;entryDx=0;entryDy=0;" edge="1" parent="K7jrmlSnKd5e08-iuxen-86" target="K7jrmlSnKd5e08-iuxen-319">
          <mxGeometry width="50" height="50" relative="1" as="geometry">
            <mxPoint x="352" y="-250.82999999999993" as="sourcePoint" />
            <mxPoint x="53" y="10" as="targetPoint" />
            <Array as="points">
              <mxPoint x="352" y="-251" />
              <mxPoint x="292" y="-251" />
              <mxPoint x="292" y="30" />
              <mxPoint x="-294" y="30" />
            </Array>
          </mxGeometry>
        </mxCell>
        <mxCell id="K7jrmlSnKd5e08-iuxen-104" style="edgeStyle=orthogonalEdgeStyle;rounded=0;orthogonalLoop=1;jettySize=auto;html=1;exitX=0.5;exitY=0;exitDx=0;exitDy=0;entryX=1;entryY=0.5;entryDx=0;entryDy=0;fontFamily=Georgia;fontSize=11;" edge="1" parent="1" source="K7jrmlSnKd5e08-iuxen-105" target="K7jrmlSnKd5e08-iuxen-107">
          <mxGeometry relative="1" as="geometry">
            <Array as="points">
              <mxPoint x="863" y="590.8299999999999" />
            </Array>
          </mxGeometry>
        </mxCell>
        <mxCell id="K7jrmlSnKd5e08-iuxen-105" value="&lt;font style=&quot;font-size: 10px;&quot;&gt;Activation&lt;br&gt;&lt;/font&gt;" style="rounded=1;whiteSpace=wrap;html=1;fontSize=11;strokeColor=#000000;fillColor=none;" vertex="1" parent="1">
          <mxGeometry x="834.0799999999999" y="600.8299999999999" width="57.92" height="10" as="geometry" />
        </mxCell>
        <mxCell id="K7jrmlSnKd5e08-iuxen-106" style="edgeStyle=none;rounded=0;orthogonalLoop=1;jettySize=auto;html=1;exitX=0.5;exitY=0;exitDx=0;exitDy=0;fontFamily=Georgia;fontSize=10;" edge="1" parent="1" source="K7jrmlSnKd5e08-iuxen-89">
          <mxGeometry relative="1" as="geometry">
            <mxPoint x="852" y="610.8300000000002" as="targetPoint" />
          </mxGeometry>
        </mxCell>
        <mxCell id="K7jrmlSnKd5e08-iuxen-107" value="&lt;font style=&quot;font-size: 11px;&quot;&gt;✖️&lt;/font&gt;" style="ellipse;whiteSpace=wrap;html=1;aspect=fixed;fontStyle=0" vertex="1" parent="1">
          <mxGeometry x="817" y="585.8299999999999" width="10" height="10" as="geometry" />
        </mxCell>
        <mxCell id="K7jrmlSnKd5e08-iuxen-108" style="edgeStyle=orthogonalEdgeStyle;rounded=0;orthogonalLoop=1;jettySize=auto;html=1;exitX=0;exitY=0.5;exitDx=0;exitDy=0;entryX=0.5;entryY=1;entryDx=0;entryDy=0;fontFamily=Georgia;fontSize=11;" edge="1" parent="1" source="K7jrmlSnKd5e08-iuxen-89" target="K7jrmlSnKd5e08-iuxen-107">
          <mxGeometry relative="1" as="geometry">
            <Array as="points">
              <mxPoint x="822" y="641.8299999999999" />
            </Array>
          </mxGeometry>
        </mxCell>
        <mxCell id="K7jrmlSnKd5e08-iuxen-109" value="" style="group" vertex="1" connectable="0" parent="1">
          <mxGeometry x="905" y="600.8299999999999" width="80" height="120" as="geometry" />
        </mxCell>
        <mxCell id="K7jrmlSnKd5e08-iuxen-110" value="" style="group" vertex="1" connectable="0" parent="K7jrmlSnKd5e08-iuxen-109">
          <mxGeometry x="2.692307692307692" width="40" height="44.57142857142857" as="geometry" />
        </mxCell>
        <mxCell id="K7jrmlSnKd5e08-iuxen-111" value="" style="shape=curlyBracket;whiteSpace=wrap;html=1;rounded=1;flipH=1;fontSize=22;strokeColor=#000000;fillColor=#000000;rotation=-90;size=0.5;" vertex="1" parent="K7jrmlSnKd5e08-iuxen-110">
          <mxGeometry x="18.076923076923077" y="36.62142857142857" width="10.769230769230768" height="34.285714285714285" as="geometry" />
        </mxCell>
        <mxCell id="K7jrmlSnKd5e08-iuxen-112" value="&lt;font style=&quot;font-size: 11px;&quot;&gt;concat&lt;/font&gt;" style="rounded=1;whiteSpace=wrap;html=1;fontSize=11;strokeColor=#000000;fillColor=none;" vertex="1" parent="K7jrmlSnKd5e08-iuxen-110">
          <mxGeometry x="4.14" y="36.05" width="38.65" height="10.43" as="geometry" />
        </mxCell>
        <mxCell id="K7jrmlSnKd5e08-iuxen-113" value="" style="rounded=0;whiteSpace=wrap;html=1;fontSize=22;strokeColor=none;fillColor=#CDA2BE;" vertex="1" parent="K7jrmlSnKd5e08-iuxen-109">
          <mxGeometry x="18.076923076923077" y="60.62142857142857" width="5.384615384615384" height="6.857142857142857" as="geometry" />
        </mxCell>
        <mxCell id="K7jrmlSnKd5e08-iuxen-114" value="" style="rounded=0;whiteSpace=wrap;html=1;fontSize=22;strokeColor=none;fillColor=#E6D0DE;" vertex="1" parent="K7jrmlSnKd5e08-iuxen-109">
          <mxGeometry x="18.076923076923077" y="67.47857142857143" width="5.384615384615384" height="6.857142857142857" as="geometry" />
        </mxCell>
        <mxCell id="K7jrmlSnKd5e08-iuxen-115" value="" style="rounded=0;whiteSpace=wrap;html=1;fontSize=22;strokeColor=none;fillColor=#CDA2BE;" vertex="1" parent="K7jrmlSnKd5e08-iuxen-109">
          <mxGeometry x="18.076923076923077" y="74.33571428571429" width="5.384615384615384" height="6.857142857142857" as="geometry" />
        </mxCell>
        <mxCell id="K7jrmlSnKd5e08-iuxen-116" value="" style="rounded=0;whiteSpace=wrap;html=1;fontSize=22;strokeColor=none;fillColor=#E6D0DE;" vertex="1" parent="K7jrmlSnKd5e08-iuxen-109">
          <mxGeometry x="18.076923076923077" y="81.19285714285714" width="5.384615384615384" height="6.857142857142857" as="geometry" />
        </mxCell>
        <mxCell id="K7jrmlSnKd5e08-iuxen-117" value="" style="rounded=0;whiteSpace=wrap;html=1;fontSize=22;strokeColor=none;fillColor=#FFB570;" vertex="1" parent="K7jrmlSnKd5e08-iuxen-109">
          <mxGeometry x="29.996153846153845" y="60.62142857142857" width="5.384615384615384" height="6.857142857142857" as="geometry" />
        </mxCell>
        <mxCell id="K7jrmlSnKd5e08-iuxen-118" value="" style="rounded=0;whiteSpace=wrap;html=1;fontSize=22;strokeColor=none;fillColor=#FFCE9F;" vertex="1" parent="K7jrmlSnKd5e08-iuxen-109">
          <mxGeometry x="29.996153846153845" y="67.47857142857143" width="5.384615384615384" height="6.857142857142857" as="geometry" />
        </mxCell>
        <mxCell id="K7jrmlSnKd5e08-iuxen-119" value="" style="rounded=0;whiteSpace=wrap;html=1;fontSize=22;strokeColor=none;fillColor=#FFB570;" vertex="1" parent="K7jrmlSnKd5e08-iuxen-109">
          <mxGeometry x="29.996153846153845" y="74.33571428571429" width="5.384615384615384" height="10.285714285714285" as="geometry" />
        </mxCell>
        <mxCell id="K7jrmlSnKd5e08-iuxen-120" value="" style="rounded=0;whiteSpace=wrap;html=1;fontSize=22;strokeColor=none;fillColor=#FFCE9F;" vertex="1" parent="K7jrmlSnKd5e08-iuxen-109">
          <mxGeometry x="29.996153846153845" y="81.19285714285714" width="5.384615384615384" height="6.857142857142857" as="geometry" />
        </mxCell>
        <mxCell id="K7jrmlSnKd5e08-iuxen-121" value="" style="ellipse;whiteSpace=wrap;html=1;aspect=fixed;fontSize=11;strokeColor=#000000;fillColor=none;" vertex="1" parent="K7jrmlSnKd5e08-iuxen-109">
          <mxGeometry x="18.076923076923077" y="105.19285714285714" width="4.615384615384615" height="4.615384615384615" as="geometry" />
        </mxCell>
        <mxCell id="K7jrmlSnKd5e08-iuxen-122" value="" style="ellipse;whiteSpace=wrap;html=1;aspect=fixed;fontSize=11;strokeColor=#000000;fillColor=none;" vertex="1" parent="K7jrmlSnKd5e08-iuxen-109">
          <mxGeometry x="29.996153846153845" y="105.19285714285714" width="4.615384615384615" height="4.615384615384615" as="geometry" />
        </mxCell>
        <mxCell id="K7jrmlSnKd5e08-iuxen-123" value="" style="endArrow=classic;html=1;rounded=0;fontSize=11;exitX=0.5;exitY=0;exitDx=0;exitDy=0;entryX=0.5;entryY=1;entryDx=0;entryDy=0;" edge="1" parent="K7jrmlSnKd5e08-iuxen-109" source="K7jrmlSnKd5e08-iuxen-121" target="K7jrmlSnKd5e08-iuxen-116">
          <mxGeometry width="50" height="50" relative="1" as="geometry">
            <mxPoint x="-313.07692307692304" y="-169.09285714285713" as="sourcePoint" />
            <mxPoint x="-286.15384615384613" y="-203.3785714285714" as="targetPoint" />
          </mxGeometry>
        </mxCell>
        <mxCell id="K7jrmlSnKd5e08-iuxen-124" value="" style="endArrow=classic;html=1;rounded=0;fontSize=11;exitX=0.5;exitY=0;exitDx=0;exitDy=0;entryX=0.5;entryY=1;entryDx=0;entryDy=0;" edge="1" parent="K7jrmlSnKd5e08-iuxen-109" source="K7jrmlSnKd5e08-iuxen-122" target="K7jrmlSnKd5e08-iuxen-120">
          <mxGeometry width="50" height="50" relative="1" as="geometry">
            <mxPoint x="-282.4084615384616" y="-107.37857142857142" as="sourcePoint" />
            <mxPoint x="-282.4084615384616" y="-124.52142857142854" as="targetPoint" />
          </mxGeometry>
        </mxCell>
        <mxCell id="K7jrmlSnKd5e08-iuxen-125" value="&lt;font style=&quot;font-size: 9px;&quot; face=&quot;Georgia&quot;&gt;&lt;i&gt;Item &lt;sub&gt;u2&lt;/sub&gt;&lt;/i&gt;&lt;/font&gt;" style="text;html=1;strokeColor=none;fillColor=none;align=center;verticalAlign=middle;whiteSpace=wrap;rounded=0;fontSize=11;" vertex="1" parent="K7jrmlSnKd5e08-iuxen-109">
          <mxGeometry x="-5.309999999999999" y="105.19000000000001" width="60" height="20.57" as="geometry" />
        </mxCell>
        <mxCell id="K7jrmlSnKd5e08-iuxen-126" style="edgeStyle=orthogonalEdgeStyle;rounded=0;orthogonalLoop=1;jettySize=auto;html=1;exitX=0.5;exitY=0;exitDx=0;exitDy=0;entryX=1;entryY=0.5;entryDx=0;entryDy=0;fontFamily=Georgia;fontSize=11;" edge="1" parent="1" source="K7jrmlSnKd5e08-iuxen-127" target="K7jrmlSnKd5e08-iuxen-129">
          <mxGeometry relative="1" as="geometry">
            <Array as="points">
              <mxPoint x="942" y="590.8299999999999" />
            </Array>
          </mxGeometry>
        </mxCell>
        <mxCell id="K7jrmlSnKd5e08-iuxen-127" value="&lt;font style=&quot;font-size: 10px;&quot;&gt;Activation&lt;br&gt;&lt;/font&gt;" style="rounded=1;whiteSpace=wrap;html=1;fontSize=11;strokeColor=#000000;fillColor=none;" vertex="1" parent="1">
          <mxGeometry x="913.0799999999999" y="600.8299999999999" width="57.92" height="10" as="geometry" />
        </mxCell>
        <mxCell id="K7jrmlSnKd5e08-iuxen-128" style="edgeStyle=none;rounded=0;orthogonalLoop=1;jettySize=auto;html=1;exitX=0.5;exitY=0;exitDx=0;exitDy=0;fontFamily=Georgia;fontSize=10;" edge="1" parent="1" source="K7jrmlSnKd5e08-iuxen-112">
          <mxGeometry relative="1" as="geometry">
            <mxPoint x="931" y="610.8300000000002" as="targetPoint" />
          </mxGeometry>
        </mxCell>
        <mxCell id="K7jrmlSnKd5e08-iuxen-129" value="&lt;font style=&quot;font-size: 11px;&quot;&gt;✖️&lt;/font&gt;" style="ellipse;whiteSpace=wrap;html=1;aspect=fixed;fontStyle=0" vertex="1" parent="1">
          <mxGeometry x="896" y="585.8299999999999" width="10" height="10" as="geometry" />
        </mxCell>
        <mxCell id="K7jrmlSnKd5e08-iuxen-130" style="edgeStyle=orthogonalEdgeStyle;rounded=0;orthogonalLoop=1;jettySize=auto;html=1;exitX=0;exitY=0.5;exitDx=0;exitDy=0;entryX=0.5;entryY=1;entryDx=0;entryDy=0;fontFamily=Georgia;fontSize=11;" edge="1" parent="1" source="K7jrmlSnKd5e08-iuxen-112" target="K7jrmlSnKd5e08-iuxen-129">
          <mxGeometry relative="1" as="geometry">
            <Array as="points">
              <mxPoint x="901" y="641.8299999999999" />
            </Array>
          </mxGeometry>
        </mxCell>
        <mxCell id="K7jrmlSnKd5e08-iuxen-131" value="" style="endArrow=classic;html=1;rounded=0;fontFamily=Georgia;fontSize=11;strokeColor=#FF8000;entryX=0.75;entryY=1;entryDx=0;entryDy=0;" edge="1" parent="1" target="K7jrmlSnKd5e08-iuxen-127">
          <mxGeometry width="50" height="50" relative="1" as="geometry">
            <mxPoint x="957" y="630.8300000000002" as="sourcePoint" />
            <mxPoint x="992" y="620.8299999999999" as="targetPoint" />
          </mxGeometry>
        </mxCell>
        <mxCell id="K7jrmlSnKd5e08-iuxen-132" value="" style="group" vertex="1" connectable="0" parent="1">
          <mxGeometry x="1152.5" y="345" width="50" height="65" as="geometry" />
        </mxCell>
        <mxCell id="K7jrmlSnKd5e08-iuxen-133" value="" style="shape=curlyBracket;whiteSpace=wrap;html=1;rounded=1;flipH=1;fontSize=22;strokeColor=#000000;fillColor=#000000;rotation=-90;size=0.5;" vertex="1" parent="K7jrmlSnKd5e08-iuxen-132">
          <mxGeometry x="12.5" y="75" width="20" height="50" as="geometry" />
        </mxCell>
        <mxCell id="K7jrmlSnKd5e08-iuxen-134" value="&lt;font style=&quot;font-size: 11px;&quot;&gt;concat&lt;/font&gt;" style="rounded=1;whiteSpace=wrap;html=1;fontSize=11;strokeColor=#000000;fillColor=none;" vertex="1" parent="K7jrmlSnKd5e08-iuxen-132">
          <mxGeometry y="65" width="45" height="20" as="geometry" />
        </mxCell>
        <mxCell id="K7jrmlSnKd5e08-iuxen-135" value="" style="group" vertex="1" connectable="0" parent="K7jrmlSnKd5e08-iuxen-132">
          <mxGeometry x="5" y="42" width="40" height="10" as="geometry" />
        </mxCell>
        <mxCell id="K7jrmlSnKd5e08-iuxen-136" value="" style="rounded=0;whiteSpace=wrap;html=1;fontSize=22;strokeColor=none;fillColor=#CDA2BE;" vertex="1" parent="K7jrmlSnKd5e08-iuxen-135">
          <mxGeometry width="10" height="10" as="geometry" />
        </mxCell>
        <mxCell id="K7jrmlSnKd5e08-iuxen-137" style="edgeStyle=none;rounded=0;orthogonalLoop=1;jettySize=auto;html=1;exitX=1;exitY=1;exitDx=0;exitDy=0;fontSize=22;strokeColor=none;" edge="1" parent="K7jrmlSnKd5e08-iuxen-135" source="K7jrmlSnKd5e08-iuxen-136" target="K7jrmlSnKd5e08-iuxen-136">
          <mxGeometry relative="1" as="geometry" />
        </mxCell>
        <mxCell id="K7jrmlSnKd5e08-iuxen-138" value="" style="rounded=0;whiteSpace=wrap;html=1;fontSize=22;strokeColor=none;fillColor=#FFCE9F;" vertex="1" parent="K7jrmlSnKd5e08-iuxen-135">
          <mxGeometry x="10" width="10" height="10" as="geometry" />
        </mxCell>
        <mxCell id="K7jrmlSnKd5e08-iuxen-139" value="" style="rounded=0;whiteSpace=wrap;html=1;fontSize=22;strokeColor=none;fillColor=#CDA2BE;" vertex="1" parent="K7jrmlSnKd5e08-iuxen-135">
          <mxGeometry x="20" width="10" height="10" as="geometry" />
        </mxCell>
        <mxCell id="K7jrmlSnKd5e08-iuxen-140" value="" style="rounded=0;whiteSpace=wrap;html=1;fontSize=22;strokeColor=none;fillColor=#FFCE9F;" vertex="1" parent="K7jrmlSnKd5e08-iuxen-135">
          <mxGeometry x="30" width="10" height="10" as="geometry" />
        </mxCell>
        <mxCell id="K7jrmlSnKd5e08-iuxen-141" value="" style="rounded=0;whiteSpace=wrap;html=1;fontSize=22;strokeColor=none;fillColor=#CDA2BE;" vertex="1" parent="1">
          <mxGeometry x="1160" y="455" width="10" height="10" as="geometry" />
        </mxCell>
        <mxCell id="K7jrmlSnKd5e08-iuxen-142" value="" style="rounded=0;whiteSpace=wrap;html=1;fontSize=22;strokeColor=none;fillColor=#E6D0DE;" vertex="1" parent="1">
          <mxGeometry x="1160" y="465" width="10" height="10" as="geometry" />
        </mxCell>
        <mxCell id="K7jrmlSnKd5e08-iuxen-143" value="" style="rounded=0;whiteSpace=wrap;html=1;fontSize=22;strokeColor=none;fillColor=#CDA2BE;" vertex="1" parent="1">
          <mxGeometry x="1160" y="475" width="10" height="10" as="geometry" />
        </mxCell>
        <mxCell id="K7jrmlSnKd5e08-iuxen-144" value="" style="rounded=0;whiteSpace=wrap;html=1;fontSize=22;strokeColor=none;fillColor=#E6D0DE;" vertex="1" parent="1">
          <mxGeometry x="1160" y="485" width="10" height="10" as="geometry" />
        </mxCell>
        <mxCell id="K7jrmlSnKd5e08-iuxen-145" value="" style="rounded=0;whiteSpace=wrap;html=1;fontSize=22;strokeColor=none;fillColor=#FFB570;" vertex="1" parent="1">
          <mxGeometry x="1180" y="455" width="10" height="10" as="geometry" />
        </mxCell>
        <mxCell id="K7jrmlSnKd5e08-iuxen-146" value="" style="rounded=0;whiteSpace=wrap;html=1;fontSize=22;strokeColor=none;fillColor=#FFCE9F;" vertex="1" parent="1">
          <mxGeometry x="1180" y="465" width="10" height="10" as="geometry" />
        </mxCell>
        <mxCell id="K7jrmlSnKd5e08-iuxen-147" value="" style="rounded=0;whiteSpace=wrap;html=1;fontSize=22;strokeColor=none;fillColor=#FFB570;" vertex="1" parent="1">
          <mxGeometry x="1180" y="475" width="10" height="15" as="geometry" />
        </mxCell>
        <mxCell id="K7jrmlSnKd5e08-iuxen-148" value="" style="rounded=0;whiteSpace=wrap;html=1;fontSize=22;strokeColor=none;fillColor=#FFCE9F;" vertex="1" parent="1">
          <mxGeometry x="1180" y="485" width="10" height="10" as="geometry" />
        </mxCell>
        <mxCell id="K7jrmlSnKd5e08-iuxen-149" value="" style="ellipse;whiteSpace=wrap;html=1;aspect=fixed;fontSize=11;strokeColor=#000000;fillColor=none;" vertex="1" parent="1">
          <mxGeometry x="1160" y="520" width="10" height="10" as="geometry" />
        </mxCell>
        <mxCell id="K7jrmlSnKd5e08-iuxen-150" value="" style="ellipse;whiteSpace=wrap;html=1;aspect=fixed;fontSize=11;strokeColor=#000000;fillColor=none;" vertex="1" parent="1">
          <mxGeometry x="1180" y="520" width="10" height="10" as="geometry" />
        </mxCell>
        <mxCell id="K7jrmlSnKd5e08-iuxen-151" value="" style="endArrow=classic;html=1;rounded=0;fontSize=11;exitX=0.5;exitY=0;exitDx=0;exitDy=0;entryX=0.5;entryY=1;entryDx=0;entryDy=0;" edge="1" parent="1" source="K7jrmlSnKd5e08-iuxen-149" target="K7jrmlSnKd5e08-iuxen-144">
          <mxGeometry width="50" height="50" relative="1" as="geometry">
            <mxPoint x="1130" y="430" as="sourcePoint" />
            <mxPoint x="1180" y="380" as="targetPoint" />
          </mxGeometry>
        </mxCell>
        <mxCell id="K7jrmlSnKd5e08-iuxen-152" value="" style="endArrow=classic;html=1;rounded=0;fontSize=11;exitX=0.5;exitY=0;exitDx=0;exitDy=0;entryX=0.5;entryY=1;entryDx=0;entryDy=0;" edge="1" parent="1" source="K7jrmlSnKd5e08-iuxen-150" target="K7jrmlSnKd5e08-iuxen-148">
          <mxGeometry width="50" height="50" relative="1" as="geometry">
            <mxPoint x="1184.82" y="520" as="sourcePoint" />
            <mxPoint x="1184.82" y="495" as="targetPoint" />
          </mxGeometry>
        </mxCell>
        <mxCell id="K7jrmlSnKd5e08-iuxen-153" value="Item&lt;br&gt;Features" style="text;html=1;strokeColor=none;fillColor=none;align=center;verticalAlign=middle;whiteSpace=wrap;rounded=0;fontSize=11;" vertex="1" parent="1">
          <mxGeometry x="1145" y="535" width="65" height="30" as="geometry" />
        </mxCell>
        <mxCell id="K7jrmlSnKd5e08-iuxen-154" value="" style="endArrow=classic;html=1;rounded=0;fontFamily=Georgia;fontSize=11;strokeColor=#000000;exitX=0;exitY=0;exitDx=0;exitDy=0;" edge="1" parent="1" source="K7jrmlSnKd5e08-iuxen-139">
          <mxGeometry width="50" height="50" relative="1" as="geometry">
            <mxPoint x="1178" y="390" as="sourcePoint" />
            <mxPoint x="1178" y="319.9999999999998" as="targetPoint" />
          </mxGeometry>
        </mxCell>
        <mxCell id="K7jrmlSnKd5e08-iuxen-155" value="" style="endArrow=classic;html=1;rounded=0;fontFamily=Georgia;fontSize=11;strokeColor=#000000;exitX=0.5;exitY=0;exitDx=0;exitDy=0;entryX=0.547;entryY=0.143;entryDx=0;entryDy=0;entryPerimeter=0;" edge="1" parent="1" source="K7jrmlSnKd5e08-iuxen-107">
          <mxGeometry width="50" height="50" relative="1" as="geometry">
            <mxPoint x="782" y="630.8299999999999" as="sourcePoint" />
            <mxPoint x="821.7399999999998" y="571.77" as="targetPoint" />
          </mxGeometry>
        </mxCell>
        <mxCell id="K7jrmlSnKd5e08-iuxen-156" value="" style="endArrow=classic;html=1;rounded=0;fontFamily=Georgia;fontSize=11;strokeColor=#000000;exitX=0.5;exitY=0;exitDx=0;exitDy=0;entryX=0.547;entryY=0.143;entryDx=0;entryDy=0;entryPerimeter=0;" edge="1" parent="1">
          <mxGeometry width="50" height="50" relative="1" as="geometry">
            <mxPoint x="901.1199999999999" y="585.8300000000002" as="sourcePoint" />
            <mxPoint x="900.8600000000001" y="571.77" as="targetPoint" />
          </mxGeometry>
        </mxCell>
        <mxCell id="K7jrmlSnKd5e08-iuxen-157" value="" style="group" vertex="1" connectable="0" parent="1">
          <mxGeometry x="1060" y="500" width="80" height="120" as="geometry" />
        </mxCell>
        <mxCell id="K7jrmlSnKd5e08-iuxen-158" value="" style="group" vertex="1" connectable="0" parent="K7jrmlSnKd5e08-iuxen-157">
          <mxGeometry x="-30.307692307692307" y="100.83000000000001" width="40" height="44.57142857142857" as="geometry" />
        </mxCell>
        <mxCell id="K7jrmlSnKd5e08-iuxen-159" value="" style="shape=curlyBracket;whiteSpace=wrap;html=1;rounded=1;flipH=1;fontSize=22;strokeColor=#000000;fillColor=#000000;rotation=-90;size=0.5;" vertex="1" parent="K7jrmlSnKd5e08-iuxen-158">
          <mxGeometry x="18.076923076923077" y="36.62142857142857" width="10.769230769230768" height="34.285714285714285" as="geometry" />
        </mxCell>
        <mxCell id="K7jrmlSnKd5e08-iuxen-160" value="&lt;font style=&quot;font-size: 11px;&quot;&gt;concat&lt;/font&gt;" style="rounded=1;whiteSpace=wrap;html=1;fontSize=11;strokeColor=#000000;fillColor=none;" vertex="1" parent="K7jrmlSnKd5e08-iuxen-158">
          <mxGeometry x="4.14" y="36.05" width="38.65" height="10.43" as="geometry" />
        </mxCell>
        <mxCell id="K7jrmlSnKd5e08-iuxen-161" value="" style="rounded=0;whiteSpace=wrap;html=1;fontSize=22;strokeColor=none;fillColor=#CDA2BE;" vertex="1" parent="K7jrmlSnKd5e08-iuxen-157">
          <mxGeometry x="-14.92307692307692" y="161.45142857142858" width="5.384615384615384" height="6.857142857142857" as="geometry" />
        </mxCell>
        <mxCell id="K7jrmlSnKd5e08-iuxen-162" value="" style="rounded=0;whiteSpace=wrap;html=1;fontSize=22;strokeColor=none;fillColor=#E6D0DE;" vertex="1" parent="K7jrmlSnKd5e08-iuxen-157">
          <mxGeometry x="-14.92307692307692" y="168.30857142857144" width="5.384615384615384" height="6.857142857142857" as="geometry" />
        </mxCell>
        <mxCell id="K7jrmlSnKd5e08-iuxen-163" value="" style="rounded=0;whiteSpace=wrap;html=1;fontSize=22;strokeColor=none;fillColor=#CDA2BE;" vertex="1" parent="K7jrmlSnKd5e08-iuxen-157">
          <mxGeometry x="-14.92307692307692" y="175.1657142857143" width="5.384615384615384" height="6.857142857142857" as="geometry" />
        </mxCell>
        <mxCell id="K7jrmlSnKd5e08-iuxen-164" value="" style="rounded=0;whiteSpace=wrap;html=1;fontSize=22;strokeColor=none;fillColor=#E6D0DE;" vertex="1" parent="K7jrmlSnKd5e08-iuxen-157">
          <mxGeometry x="-14.92307692307692" y="182.02285714285716" width="5.384615384615384" height="6.857142857142857" as="geometry" />
        </mxCell>
        <mxCell id="K7jrmlSnKd5e08-iuxen-165" value="" style="rounded=0;whiteSpace=wrap;html=1;fontSize=22;strokeColor=none;fillColor=#FFB570;" vertex="1" parent="K7jrmlSnKd5e08-iuxen-157">
          <mxGeometry x="-3.0038461538461547" y="161.45142857142858" width="5.384615384615384" height="6.857142857142857" as="geometry" />
        </mxCell>
        <mxCell id="K7jrmlSnKd5e08-iuxen-166" value="" style="rounded=0;whiteSpace=wrap;html=1;fontSize=22;strokeColor=none;fillColor=#FFCE9F;" vertex="1" parent="K7jrmlSnKd5e08-iuxen-157">
          <mxGeometry x="-3.0038461538461547" y="168.30857142857144" width="5.384615384615384" height="6.857142857142857" as="geometry" />
        </mxCell>
        <mxCell id="K7jrmlSnKd5e08-iuxen-167" value="" style="rounded=0;whiteSpace=wrap;html=1;fontSize=22;strokeColor=none;fillColor=#FFB570;" vertex="1" parent="K7jrmlSnKd5e08-iuxen-157">
          <mxGeometry x="-3.0038461538461547" y="175.1657142857143" width="5.384615384615384" height="10.285714285714285" as="geometry" />
        </mxCell>
        <mxCell id="K7jrmlSnKd5e08-iuxen-168" value="" style="rounded=0;whiteSpace=wrap;html=1;fontSize=22;strokeColor=none;fillColor=#FFCE9F;" vertex="1" parent="K7jrmlSnKd5e08-iuxen-157">
          <mxGeometry x="-3.0038461538461547" y="182.02285714285716" width="5.384615384615384" height="6.857142857142857" as="geometry" />
        </mxCell>
        <mxCell id="K7jrmlSnKd5e08-iuxen-169" value="" style="ellipse;whiteSpace=wrap;html=1;aspect=fixed;fontSize=11;strokeColor=#000000;fillColor=none;" vertex="1" parent="K7jrmlSnKd5e08-iuxen-157">
          <mxGeometry x="-14.92307692307692" y="206.02285714285716" width="4.615384615384615" height="4.615384615384615" as="geometry" />
        </mxCell>
        <mxCell id="K7jrmlSnKd5e08-iuxen-170" value="" style="ellipse;whiteSpace=wrap;html=1;aspect=fixed;fontSize=11;strokeColor=#000000;fillColor=none;" vertex="1" parent="K7jrmlSnKd5e08-iuxen-157">
          <mxGeometry x="-3.0038461538461547" y="206.02285714285716" width="4.615384615384615" height="4.615384615384615" as="geometry" />
        </mxCell>
        <mxCell id="K7jrmlSnKd5e08-iuxen-171" value="" style="endArrow=classic;html=1;rounded=0;fontSize=11;exitX=0.5;exitY=0;exitDx=0;exitDy=0;entryX=0.5;entryY=1;entryDx=0;entryDy=0;" edge="1" parent="K7jrmlSnKd5e08-iuxen-157" source="K7jrmlSnKd5e08-iuxen-169" target="K7jrmlSnKd5e08-iuxen-164">
          <mxGeometry width="50" height="50" relative="1" as="geometry">
            <mxPoint x="-346.07692307692304" y="-68.26285714285711" as="sourcePoint" />
            <mxPoint x="-319.15384615384613" y="-102.54857142857139" as="targetPoint" />
          </mxGeometry>
        </mxCell>
        <mxCell id="K7jrmlSnKd5e08-iuxen-172" value="" style="endArrow=classic;html=1;rounded=0;fontSize=11;exitX=0.5;exitY=0;exitDx=0;exitDy=0;entryX=0.5;entryY=1;entryDx=0;entryDy=0;" edge="1" parent="K7jrmlSnKd5e08-iuxen-157" source="K7jrmlSnKd5e08-iuxen-170" target="K7jrmlSnKd5e08-iuxen-168">
          <mxGeometry width="50" height="50" relative="1" as="geometry">
            <mxPoint x="-315.4084615384616" y="-6.548571428571407" as="sourcePoint" />
            <mxPoint x="-315.4084615384616" y="-23.69142857142853" as="targetPoint" />
          </mxGeometry>
        </mxCell>
        <mxCell id="K7jrmlSnKd5e08-iuxen-173" value="&lt;font style=&quot;font-size: 9px;&quot; face=&quot;Georgia&quot;&gt;&lt;i&gt;Item &lt;sub&gt;uN&lt;/sub&gt;&lt;/i&gt;&lt;/font&gt;" style="text;html=1;strokeColor=none;fillColor=none;align=center;verticalAlign=middle;whiteSpace=wrap;rounded=0;fontSize=11;" vertex="1" parent="K7jrmlSnKd5e08-iuxen-157">
          <mxGeometry x="-38.31" y="206.02000000000004" width="60" height="20.57" as="geometry" />
        </mxCell>
        <mxCell id="K7jrmlSnKd5e08-iuxen-174" style="edgeStyle=orthogonalEdgeStyle;rounded=0;orthogonalLoop=1;jettySize=auto;html=1;exitX=0.5;exitY=0;exitDx=0;exitDy=0;entryX=1;entryY=0.5;entryDx=0;entryDy=0;fontFamily=Georgia;fontSize=11;" edge="1" parent="1" source="K7jrmlSnKd5e08-iuxen-175" target="K7jrmlSnKd5e08-iuxen-177">
          <mxGeometry relative="1" as="geometry">
            <Array as="points">
              <mxPoint x="1064" y="590.8299999999999" />
            </Array>
          </mxGeometry>
        </mxCell>
        <mxCell id="K7jrmlSnKd5e08-iuxen-175" value="&lt;font style=&quot;font-size: 10px;&quot;&gt;Activation&lt;br&gt;&lt;/font&gt;" style="rounded=1;whiteSpace=wrap;html=1;fontSize=11;strokeColor=#000000;fillColor=none;" vertex="1" parent="1">
          <mxGeometry x="1035.08" y="600.8299999999999" width="57.92" height="10" as="geometry" />
        </mxCell>
        <mxCell id="K7jrmlSnKd5e08-iuxen-176" style="edgeStyle=none;rounded=0;orthogonalLoop=1;jettySize=auto;html=1;exitX=0.5;exitY=0;exitDx=0;exitDy=0;fontFamily=Georgia;fontSize=10;" edge="1" parent="1" source="K7jrmlSnKd5e08-iuxen-160">
          <mxGeometry relative="1" as="geometry">
            <mxPoint x="1053" y="610.8300000000002" as="targetPoint" />
          </mxGeometry>
        </mxCell>
        <mxCell id="K7jrmlSnKd5e08-iuxen-177" value="&lt;font style=&quot;font-size: 11px;&quot;&gt;✖️&lt;/font&gt;" style="ellipse;whiteSpace=wrap;html=1;aspect=fixed;fontStyle=0" vertex="1" parent="1">
          <mxGeometry x="1018" y="585.8299999999999" width="10" height="10" as="geometry" />
        </mxCell>
        <mxCell id="K7jrmlSnKd5e08-iuxen-178" style="edgeStyle=orthogonalEdgeStyle;rounded=0;orthogonalLoop=1;jettySize=auto;html=1;exitX=0;exitY=0.5;exitDx=0;exitDy=0;entryX=0.5;entryY=1;entryDx=0;entryDy=0;fontFamily=Georgia;fontSize=11;" edge="1" parent="1" source="K7jrmlSnKd5e08-iuxen-160" target="K7jrmlSnKd5e08-iuxen-177">
          <mxGeometry relative="1" as="geometry">
            <Array as="points">
              <mxPoint x="1023" y="641.8299999999999" />
            </Array>
          </mxGeometry>
        </mxCell>
        <mxCell id="K7jrmlSnKd5e08-iuxen-179" value="" style="endArrow=classic;html=1;rounded=0;fontFamily=Georgia;fontSize=11;strokeColor=#FF8000;entryX=0.75;entryY=1;entryDx=0;entryDy=0;" edge="1" parent="1" target="K7jrmlSnKd5e08-iuxen-175">
          <mxGeometry width="50" height="50" relative="1" as="geometry">
            <mxPoint x="1079" y="630.8300000000002" as="sourcePoint" />
            <mxPoint x="1114" y="620.8299999999999" as="targetPoint" />
          </mxGeometry>
        </mxCell>
        <mxCell id="K7jrmlSnKd5e08-iuxen-180" value="" style="endArrow=classic;html=1;rounded=0;fontFamily=Georgia;fontSize=11;strokeColor=#000000;exitX=0.5;exitY=0;exitDx=0;exitDy=0;entryX=0.547;entryY=0.143;entryDx=0;entryDy=0;entryPerimeter=0;" edge="1" parent="1">
          <mxGeometry width="50" height="50" relative="1" as="geometry">
            <mxPoint x="1023.1199999999999" y="585.8300000000002" as="sourcePoint" />
            <mxPoint x="1022.8599999999997" y="571.77" as="targetPoint" />
          </mxGeometry>
        </mxCell>
        <mxCell id="K7jrmlSnKd5e08-iuxen-182" value="&lt;font style=&quot;font-size: 22px;&quot;&gt;……&lt;/font&gt;" style="text;html=1;strokeColor=none;fillColor=none;align=center;verticalAlign=middle;whiteSpace=wrap;rounded=0;fontFamily=Georgia;fontSize=11;" vertex="1" parent="1">
          <mxGeometry x="958" y="659.1800000000001" width="60" height="30" as="geometry" />
        </mxCell>
        <mxCell id="K7jrmlSnKd5e08-iuxen-183" value="&lt;font face=&quot;Helvetica&quot; color=&quot;#ff8000&quot;&gt;&lt;span style=&quot;font-size: 12px;&quot;&gt;用户—券核销店铺 &lt;b&gt;User-Shop&lt;/b&gt; 序列&lt;/span&gt;&lt;/font&gt;" style="text;html=1;strokeColor=none;fillColor=none;align=center;verticalAlign=middle;whiteSpace=wrap;rounded=0;dashed=1;fontFamily=Georgia;fontSize=22;" vertex="1" parent="1">
          <mxGeometry x="814.04" y="729.1800000000001" width="256" height="30" as="geometry" />
        </mxCell>
        <mxCell id="K7jrmlSnKd5e08-iuxen-261" style="edgeStyle=orthogonalEdgeStyle;rounded=0;orthogonalLoop=1;jettySize=auto;html=1;entryX=0.5;entryY=1;entryDx=0;entryDy=0;" edge="1" parent="1" target="K7jrmlSnKd5e08-iuxen-265">
          <mxGeometry relative="1" as="geometry">
            <mxPoint x="730" y="299.9999999999998" as="sourcePoint" />
          </mxGeometry>
        </mxCell>
        <mxCell id="K7jrmlSnKd5e08-iuxen-262" style="edgeStyle=orthogonalEdgeStyle;rounded=0;orthogonalLoop=1;jettySize=auto;html=1;entryX=0.5;entryY=1;entryDx=0;entryDy=0;" edge="1" parent="1" target="K7jrmlSnKd5e08-iuxen-264">
          <mxGeometry relative="1" as="geometry">
            <mxPoint x="480" y="299.9999999999998" as="sourcePoint" />
            <Array as="points">
              <mxPoint x="480" y="300" />
            </Array>
          </mxGeometry>
        </mxCell>
        <mxCell id="K7jrmlSnKd5e08-iuxen-263" style="edgeStyle=orthogonalEdgeStyle;rounded=0;orthogonalLoop=1;jettySize=auto;html=1;entryX=0.5;entryY=1;entryDx=0;entryDy=0;" edge="1" parent="1" target="K7jrmlSnKd5e08-iuxen-275">
          <mxGeometry relative="1" as="geometry">
            <mxPoint x="609" y="299.9999999999998" as="sourcePoint" />
            <Array as="points">
              <mxPoint x="609" y="300" />
              <mxPoint x="609" y="280" />
            </Array>
          </mxGeometry>
        </mxCell>
        <mxCell id="K7jrmlSnKd5e08-iuxen-264" value="CTR_tower" style="rounded=0;whiteSpace=wrap;html=1;fillColor=#ffe6cc;strokeColor=#d79b00;" vertex="1" parent="1">
          <mxGeometry x="435" y="220" width="90" height="40" as="geometry" />
        </mxCell>
        <mxCell id="K7jrmlSnKd5e08-iuxen-265" value="CVR_tower" style="rounded=0;whiteSpace=wrap;html=1;fillColor=#fff2cc;strokeColor=#d6b656;" vertex="1" parent="1">
          <mxGeometry x="685" y="220" width="90" height="40" as="geometry" />
        </mxCell>
        <mxCell id="K7jrmlSnKd5e08-iuxen-266" value="sigmoid" style="rounded=0;whiteSpace=wrap;html=1;fillColor=#ffe6cc;strokeColor=#d79b00;" vertex="1" parent="1">
          <mxGeometry x="435" y="150" width="90" height="30" as="geometry" />
        </mxCell>
        <mxCell id="K7jrmlSnKd5e08-iuxen-267" style="edgeStyle=orthogonalEdgeStyle;rounded=0;orthogonalLoop=1;jettySize=auto;html=1;exitX=0.5;exitY=0;exitDx=0;exitDy=0;entryX=0.5;entryY=1;entryDx=0;entryDy=0;" edge="1" parent="1" source="K7jrmlSnKd5e08-iuxen-264" target="K7jrmlSnKd5e08-iuxen-266">
          <mxGeometry relative="1" as="geometry" />
        </mxCell>
        <mxCell id="K7jrmlSnKd5e08-iuxen-268" value="sigmoid" style="rounded=0;whiteSpace=wrap;html=1;fillColor=#fff2cc;strokeColor=#d6b656;" vertex="1" parent="1">
          <mxGeometry x="685" y="150" width="90" height="30" as="geometry" />
        </mxCell>
        <mxCell id="K7jrmlSnKd5e08-iuxen-269" style="edgeStyle=orthogonalEdgeStyle;rounded=0;orthogonalLoop=1;jettySize=auto;html=1;exitX=0.5;exitY=0;exitDx=0;exitDy=0;entryX=0.5;entryY=1;entryDx=0;entryDy=0;" edge="1" parent="1" source="K7jrmlSnKd5e08-iuxen-265" target="K7jrmlSnKd5e08-iuxen-268">
          <mxGeometry relative="1" as="geometry" />
        </mxCell>
        <mxCell id="K7jrmlSnKd5e08-iuxen-270" style="edgeStyle=none;rounded=0;orthogonalLoop=1;jettySize=auto;html=1;exitX=0.5;exitY=0;exitDx=0;exitDy=0;fontSize=21;" edge="1" parent="1" source="K7jrmlSnKd5e08-iuxen-271">
          <mxGeometry relative="1" as="geometry">
            <mxPoint x="480.07692307692287" y="80" as="targetPoint" />
          </mxGeometry>
        </mxCell>
        <mxCell id="K7jrmlSnKd5e08-iuxen-271" value="" style="ellipse;whiteSpace=wrap;html=1;aspect=fixed;" vertex="1" parent="1">
          <mxGeometry x="470" y="100" width="20" height="20" as="geometry" />
        </mxCell>
        <mxCell id="K7jrmlSnKd5e08-iuxen-272" style="edgeStyle=orthogonalEdgeStyle;rounded=0;orthogonalLoop=1;jettySize=auto;html=1;exitX=0.5;exitY=0;exitDx=0;exitDy=0;entryX=0.5;entryY=1;entryDx=0;entryDy=0;" edge="1" parent="1" source="K7jrmlSnKd5e08-iuxen-266" target="K7jrmlSnKd5e08-iuxen-271">
          <mxGeometry relative="1" as="geometry" />
        </mxCell>
        <mxCell id="K7jrmlSnKd5e08-iuxen-273" style="edgeStyle=orthogonalEdgeStyle;rounded=0;orthogonalLoop=1;jettySize=auto;html=1;exitX=0.5;exitY=0;exitDx=0;exitDy=0;entryX=1;entryY=0.5;entryDx=0;entryDy=0;" edge="1" parent="1" source="K7jrmlSnKd5e08-iuxen-275" target="K7jrmlSnKd5e08-iuxen-266">
          <mxGeometry relative="1" as="geometry" />
        </mxCell>
        <mxCell id="K7jrmlSnKd5e08-iuxen-274" style="edgeStyle=orthogonalEdgeStyle;rounded=0;orthogonalLoop=1;jettySize=auto;html=1;exitX=0.5;exitY=0;exitDx=0;exitDy=0;entryX=0;entryY=0.5;entryDx=0;entryDy=0;" edge="1" parent="1" source="K7jrmlSnKd5e08-iuxen-275" target="K7jrmlSnKd5e08-iuxen-268">
          <mxGeometry relative="1" as="geometry" />
        </mxCell>
        <mxCell id="K7jrmlSnKd5e08-iuxen-275" value="Bias_tower" style="rounded=0;whiteSpace=wrap;html=1;fillColor=#f5f5f5;fontColor=#333333;strokeColor=#666666;" vertex="1" parent="1">
          <mxGeometry x="568.5" y="220" width="80" height="40" as="geometry" />
        </mxCell>
        <mxCell id="K7jrmlSnKd5e08-iuxen-277" value="" style="ellipse;whiteSpace=wrap;html=1;aspect=fixed;" vertex="1" parent="1">
          <mxGeometry x="720" y="100" width="20" height="20" as="geometry" />
        </mxCell>
        <mxCell id="K7jrmlSnKd5e08-iuxen-278" style="edgeStyle=orthogonalEdgeStyle;rounded=0;orthogonalLoop=1;jettySize=auto;html=1;exitX=0.5;exitY=0;exitDx=0;exitDy=0;entryX=0.5;entryY=1;entryDx=0;entryDy=0;" edge="1" parent="1" source="K7jrmlSnKd5e08-iuxen-268" target="K7jrmlSnKd5e08-iuxen-277">
          <mxGeometry relative="1" as="geometry" />
        </mxCell>
        <mxCell id="K7jrmlSnKd5e08-iuxen-279" style="edgeStyle=none;rounded=0;orthogonalLoop=1;jettySize=auto;html=1;exitX=0.5;exitY=0;exitDx=0;exitDy=0;fontSize=21;" edge="1" parent="1">
          <mxGeometry relative="1" as="geometry">
            <mxPoint x="608.5384615384614" y="50" as="targetPoint" />
            <mxPoint x="608.5" y="70" as="sourcePoint" />
          </mxGeometry>
        </mxCell>
        <mxCell id="K7jrmlSnKd5e08-iuxen-281" style="rounded=0;orthogonalLoop=1;jettySize=auto;html=1;exitX=1;exitY=0;exitDx=0;exitDy=0;entryX=0;entryY=0.5;entryDx=0;entryDy=0;fontSize=21;" edge="1" parent="1" source="K7jrmlSnKd5e08-iuxen-271">
          <mxGeometry relative="1" as="geometry">
            <mxPoint x="598.5000000000005" y="80" as="targetPoint" />
          </mxGeometry>
        </mxCell>
        <mxCell id="K7jrmlSnKd5e08-iuxen-282" style="edgeStyle=none;rounded=0;orthogonalLoop=1;jettySize=auto;html=1;exitX=0;exitY=0;exitDx=0;exitDy=0;entryX=1;entryY=0.5;entryDx=0;entryDy=0;fontSize=21;" edge="1" parent="1" source="K7jrmlSnKd5e08-iuxen-277">
          <mxGeometry relative="1" as="geometry">
            <mxPoint x="618.5000000000005" y="80" as="targetPoint" />
          </mxGeometry>
        </mxCell>
        <mxCell id="K7jrmlSnKd5e08-iuxen-283" value="&lt;font style=&quot;font-size: 12px;&quot;&gt;pCTR&lt;/font&gt;" style="text;html=1;strokeColor=none;fillColor=none;align=center;verticalAlign=middle;whiteSpace=wrap;rounded=0;fontSize=21;" vertex="1" parent="1">
          <mxGeometry x="486" y="100" width="60" height="30" as="geometry" />
        </mxCell>
        <mxCell id="K7jrmlSnKd5e08-iuxen-284" value="&lt;font style=&quot;font-size: 12px;&quot;&gt;pCVR&lt;/font&gt;" style="text;html=1;strokeColor=none;fillColor=none;align=center;verticalAlign=middle;whiteSpace=wrap;rounded=0;fontSize=21;" vertex="1" parent="1">
          <mxGeometry x="735.69" y="95" width="60" height="30" as="geometry" />
        </mxCell>
        <mxCell id="K7jrmlSnKd5e08-iuxen-298" value="&lt;font style=&quot;font-size: 11px;&quot;&gt;concat&lt;/font&gt;" style="rounded=1;whiteSpace=wrap;html=1;fontSize=11;strokeColor=#000000;fillColor=none;" vertex="1" parent="1">
          <mxGeometry x="563.5" y="529.1800000000001" width="45" height="20" as="geometry" />
        </mxCell>
        <mxCell id="K7jrmlSnKd5e08-iuxen-299" value="" style="shape=curlyBracket;whiteSpace=wrap;html=1;rounded=1;flipH=1;fontSize=22;strokeColor=#000000;fillColor=#000000;rotation=-90;size=0.5;" vertex="1" parent="1">
          <mxGeometry x="576" y="429.18" width="20" height="260" as="geometry" />
        </mxCell>
        <mxCell id="K7jrmlSnKd5e08-iuxen-300" value="" style="group" vertex="1" connectable="0" parent="1">
          <mxGeometry x="480" y="600.8299999999999" width="80" height="120" as="geometry" />
        </mxCell>
        <mxCell id="K7jrmlSnKd5e08-iuxen-301" value="" style="group" vertex="1" connectable="0" parent="K7jrmlSnKd5e08-iuxen-300">
          <mxGeometry x="2.692307692307692" width="40" height="44.57142857142857" as="geometry" />
        </mxCell>
        <mxCell id="K7jrmlSnKd5e08-iuxen-302" value="" style="shape=curlyBracket;whiteSpace=wrap;html=1;rounded=1;flipH=1;fontSize=22;strokeColor=#000000;fillColor=#000000;rotation=-90;size=0.5;" vertex="1" parent="K7jrmlSnKd5e08-iuxen-301">
          <mxGeometry x="18.076923076923077" y="36.62142857142857" width="10.769230769230768" height="34.285714285714285" as="geometry" />
        </mxCell>
        <mxCell id="K7jrmlSnKd5e08-iuxen-303" value="&lt;font style=&quot;font-size: 11px;&quot;&gt;concat&lt;/font&gt;" style="rounded=1;whiteSpace=wrap;html=1;fontSize=11;strokeColor=#000000;fillColor=none;" vertex="1" parent="K7jrmlSnKd5e08-iuxen-301">
          <mxGeometry x="4.14" y="36.05" width="38.65" height="10.43" as="geometry" />
        </mxCell>
        <mxCell id="K7jrmlSnKd5e08-iuxen-304" value="" style="rounded=0;whiteSpace=wrap;html=1;fontSize=22;strokeColor=none;fillColor=#CDA2BE;" vertex="1" parent="K7jrmlSnKd5e08-iuxen-300">
          <mxGeometry x="18.076923076923077" y="60.62142857142857" width="5.384615384615384" height="6.857142857142857" as="geometry" />
        </mxCell>
        <mxCell id="K7jrmlSnKd5e08-iuxen-305" value="" style="rounded=0;whiteSpace=wrap;html=1;fontSize=22;strokeColor=none;fillColor=#E6D0DE;" vertex="1" parent="K7jrmlSnKd5e08-iuxen-300">
          <mxGeometry x="18.076923076923077" y="67.47857142857143" width="5.384615384615384" height="6.857142857142857" as="geometry" />
        </mxCell>
        <mxCell id="K7jrmlSnKd5e08-iuxen-306" value="" style="rounded=0;whiteSpace=wrap;html=1;fontSize=22;strokeColor=none;fillColor=#CDA2BE;" vertex="1" parent="K7jrmlSnKd5e08-iuxen-300">
          <mxGeometry x="18.076923076923077" y="74.33571428571429" width="5.384615384615384" height="6.857142857142857" as="geometry" />
        </mxCell>
        <mxCell id="K7jrmlSnKd5e08-iuxen-307" value="" style="rounded=0;whiteSpace=wrap;html=1;fontSize=22;strokeColor=none;fillColor=#E6D0DE;" vertex="1" parent="K7jrmlSnKd5e08-iuxen-300">
          <mxGeometry x="18.076923076923077" y="81.19285714285714" width="5.384615384615384" height="6.857142857142857" as="geometry" />
        </mxCell>
        <mxCell id="K7jrmlSnKd5e08-iuxen-308" value="" style="rounded=0;whiteSpace=wrap;html=1;fontSize=22;strokeColor=none;fillColor=#FFB570;" vertex="1" parent="K7jrmlSnKd5e08-iuxen-300">
          <mxGeometry x="29.996153846153845" y="60.62142857142857" width="5.384615384615384" height="6.857142857142857" as="geometry" />
        </mxCell>
        <mxCell id="K7jrmlSnKd5e08-iuxen-309" value="" style="rounded=0;whiteSpace=wrap;html=1;fontSize=22;strokeColor=none;fillColor=#FFCE9F;" vertex="1" parent="K7jrmlSnKd5e08-iuxen-300">
          <mxGeometry x="29.996153846153845" y="67.47857142857143" width="5.384615384615384" height="6.857142857142857" as="geometry" />
        </mxCell>
        <mxCell id="K7jrmlSnKd5e08-iuxen-310" value="" style="rounded=0;whiteSpace=wrap;html=1;fontSize=22;strokeColor=none;fillColor=#FFB570;" vertex="1" parent="K7jrmlSnKd5e08-iuxen-300">
          <mxGeometry x="29.996153846153845" y="74.33571428571429" width="5.384615384615384" height="10.285714285714285" as="geometry" />
        </mxCell>
        <mxCell id="K7jrmlSnKd5e08-iuxen-311" value="" style="rounded=0;whiteSpace=wrap;html=1;fontSize=22;strokeColor=none;fillColor=#FFCE9F;" vertex="1" parent="K7jrmlSnKd5e08-iuxen-300">
          <mxGeometry x="29.996153846153845" y="81.19285714285714" width="5.384615384615384" height="6.857142857142857" as="geometry" />
        </mxCell>
        <mxCell id="K7jrmlSnKd5e08-iuxen-312" value="" style="ellipse;whiteSpace=wrap;html=1;aspect=fixed;fontSize=11;strokeColor=#000000;fillColor=none;" vertex="1" parent="K7jrmlSnKd5e08-iuxen-300">
          <mxGeometry x="18.076923076923077" y="105.19285714285714" width="4.615384615384615" height="4.615384615384615" as="geometry" />
        </mxCell>
        <mxCell id="K7jrmlSnKd5e08-iuxen-313" value="" style="ellipse;whiteSpace=wrap;html=1;aspect=fixed;fontSize=11;strokeColor=#000000;fillColor=none;" vertex="1" parent="K7jrmlSnKd5e08-iuxen-300">
          <mxGeometry x="29.996153846153845" y="105.19285714285714" width="4.615384615384615" height="4.615384615384615" as="geometry" />
        </mxCell>
        <mxCell id="K7jrmlSnKd5e08-iuxen-314" value="" style="endArrow=classic;html=1;rounded=0;fontSize=11;exitX=0.5;exitY=0;exitDx=0;exitDy=0;entryX=0.5;entryY=1;entryDx=0;entryDy=0;" edge="1" parent="K7jrmlSnKd5e08-iuxen-300" source="K7jrmlSnKd5e08-iuxen-312" target="K7jrmlSnKd5e08-iuxen-307">
          <mxGeometry width="50" height="50" relative="1" as="geometry">
            <mxPoint x="-313.07692307692304" y="-169.09285714285713" as="sourcePoint" />
            <mxPoint x="-286.15384615384613" y="-203.3785714285714" as="targetPoint" />
          </mxGeometry>
        </mxCell>
        <mxCell id="K7jrmlSnKd5e08-iuxen-315" value="" style="endArrow=classic;html=1;rounded=0;fontSize=11;exitX=0.5;exitY=0;exitDx=0;exitDy=0;entryX=0.5;entryY=1;entryDx=0;entryDy=0;" edge="1" parent="K7jrmlSnKd5e08-iuxen-300" source="K7jrmlSnKd5e08-iuxen-313" target="K7jrmlSnKd5e08-iuxen-311">
          <mxGeometry width="50" height="50" relative="1" as="geometry">
            <mxPoint x="-282.4084615384616" y="-107.37857142857142" as="sourcePoint" />
            <mxPoint x="-282.4084615384616" y="-124.52142857142854" as="targetPoint" />
          </mxGeometry>
        </mxCell>
        <mxCell id="K7jrmlSnKd5e08-iuxen-316" value="&lt;font style=&quot;font-size: 9px;&quot; face=&quot;Georgia&quot;&gt;&lt;i&gt;Item &lt;sub&gt;c1&lt;/sub&gt;&lt;/i&gt;&lt;/font&gt;" style="text;html=1;strokeColor=none;fillColor=none;align=center;verticalAlign=middle;whiteSpace=wrap;rounded=0;fontSize=11;" vertex="1" parent="K7jrmlSnKd5e08-iuxen-300">
          <mxGeometry x="-7.309999999999999" y="105.19000000000001" width="60" height="20.57" as="geometry" />
        </mxCell>
        <mxCell id="K7jrmlSnKd5e08-iuxen-318" style="edgeStyle=orthogonalEdgeStyle;rounded=0;orthogonalLoop=1;jettySize=auto;html=1;exitX=0.5;exitY=0;exitDx=0;exitDy=0;entryX=1;entryY=0.5;entryDx=0;entryDy=0;fontFamily=Georgia;fontSize=11;" edge="1" parent="1" source="K7jrmlSnKd5e08-iuxen-319" target="K7jrmlSnKd5e08-iuxen-321">
          <mxGeometry relative="1" as="geometry">
            <Array as="points">
              <mxPoint x="517" y="590.8299999999999" />
            </Array>
          </mxGeometry>
        </mxCell>
        <mxCell id="K7jrmlSnKd5e08-iuxen-319" value="&lt;font style=&quot;font-size: 10px;&quot;&gt;Activation&lt;br&gt;&lt;/font&gt;" style="rounded=1;whiteSpace=wrap;html=1;fontSize=11;strokeColor=#000000;fillColor=none;" vertex="1" parent="1">
          <mxGeometry x="488.0799999999999" y="600.8299999999999" width="57.92" height="10" as="geometry" />
        </mxCell>
        <mxCell id="K7jrmlSnKd5e08-iuxen-320" style="edgeStyle=none;rounded=0;orthogonalLoop=1;jettySize=auto;html=1;exitX=0.5;exitY=0;exitDx=0;exitDy=0;fontFamily=Georgia;fontSize=10;" edge="1" parent="1" source="K7jrmlSnKd5e08-iuxen-303">
          <mxGeometry relative="1" as="geometry">
            <mxPoint x="506" y="610.8300000000002" as="targetPoint" />
          </mxGeometry>
        </mxCell>
        <mxCell id="K7jrmlSnKd5e08-iuxen-321" value="&lt;font style=&quot;font-size: 11px;&quot;&gt;✖️&lt;/font&gt;" style="ellipse;whiteSpace=wrap;html=1;aspect=fixed;fontStyle=0" vertex="1" parent="1">
          <mxGeometry x="471" y="585.8299999999999" width="10" height="10" as="geometry" />
        </mxCell>
        <mxCell id="K7jrmlSnKd5e08-iuxen-322" style="edgeStyle=orthogonalEdgeStyle;rounded=0;orthogonalLoop=1;jettySize=auto;html=1;exitX=0;exitY=0.5;exitDx=0;exitDy=0;entryX=0.5;entryY=1;entryDx=0;entryDy=0;fontFamily=Georgia;fontSize=11;" edge="1" parent="1" source="K7jrmlSnKd5e08-iuxen-303" target="K7jrmlSnKd5e08-iuxen-321">
          <mxGeometry relative="1" as="geometry">
            <Array as="points">
              <mxPoint x="476" y="641.8299999999999" />
            </Array>
          </mxGeometry>
        </mxCell>
        <mxCell id="K7jrmlSnKd5e08-iuxen-323" value="" style="group" vertex="1" connectable="0" parent="1">
          <mxGeometry x="559" y="600.8299999999999" width="80" height="120" as="geometry" />
        </mxCell>
        <mxCell id="K7jrmlSnKd5e08-iuxen-324" value="" style="group" vertex="1" connectable="0" parent="K7jrmlSnKd5e08-iuxen-323">
          <mxGeometry x="2.692307692307692" width="40" height="44.57142857142857" as="geometry" />
        </mxCell>
        <mxCell id="K7jrmlSnKd5e08-iuxen-325" value="" style="shape=curlyBracket;whiteSpace=wrap;html=1;rounded=1;flipH=1;fontSize=22;strokeColor=#000000;fillColor=#000000;rotation=-90;size=0.5;" vertex="1" parent="K7jrmlSnKd5e08-iuxen-324">
          <mxGeometry x="18.076923076923077" y="36.62142857142857" width="10.769230769230768" height="34.285714285714285" as="geometry" />
        </mxCell>
        <mxCell id="K7jrmlSnKd5e08-iuxen-326" value="&lt;font style=&quot;font-size: 11px;&quot;&gt;concat&lt;/font&gt;" style="rounded=1;whiteSpace=wrap;html=1;fontSize=11;strokeColor=#000000;fillColor=none;" vertex="1" parent="K7jrmlSnKd5e08-iuxen-324">
          <mxGeometry x="4.14" y="36.05" width="38.65" height="10.43" as="geometry" />
        </mxCell>
        <mxCell id="K7jrmlSnKd5e08-iuxen-327" value="" style="rounded=0;whiteSpace=wrap;html=1;fontSize=22;strokeColor=none;fillColor=#CDA2BE;" vertex="1" parent="K7jrmlSnKd5e08-iuxen-323">
          <mxGeometry x="18.076923076923077" y="60.62142857142857" width="5.384615384615384" height="6.857142857142857" as="geometry" />
        </mxCell>
        <mxCell id="K7jrmlSnKd5e08-iuxen-328" value="" style="rounded=0;whiteSpace=wrap;html=1;fontSize=22;strokeColor=none;fillColor=#E6D0DE;" vertex="1" parent="K7jrmlSnKd5e08-iuxen-323">
          <mxGeometry x="18.076923076923077" y="67.47857142857143" width="5.384615384615384" height="6.857142857142857" as="geometry" />
        </mxCell>
        <mxCell id="K7jrmlSnKd5e08-iuxen-329" value="" style="rounded=0;whiteSpace=wrap;html=1;fontSize=22;strokeColor=none;fillColor=#CDA2BE;" vertex="1" parent="K7jrmlSnKd5e08-iuxen-323">
          <mxGeometry x="18.076923076923077" y="74.33571428571429" width="5.384615384615384" height="6.857142857142857" as="geometry" />
        </mxCell>
        <mxCell id="K7jrmlSnKd5e08-iuxen-330" value="" style="rounded=0;whiteSpace=wrap;html=1;fontSize=22;strokeColor=none;fillColor=#E6D0DE;" vertex="1" parent="K7jrmlSnKd5e08-iuxen-323">
          <mxGeometry x="18.076923076923077" y="81.19285714285714" width="5.384615384615384" height="6.857142857142857" as="geometry" />
        </mxCell>
        <mxCell id="K7jrmlSnKd5e08-iuxen-331" value="" style="rounded=0;whiteSpace=wrap;html=1;fontSize=22;strokeColor=none;fillColor=#FFB570;" vertex="1" parent="K7jrmlSnKd5e08-iuxen-323">
          <mxGeometry x="29.996153846153845" y="60.62142857142857" width="5.384615384615384" height="6.857142857142857" as="geometry" />
        </mxCell>
        <mxCell id="K7jrmlSnKd5e08-iuxen-332" value="" style="rounded=0;whiteSpace=wrap;html=1;fontSize=22;strokeColor=none;fillColor=#FFCE9F;" vertex="1" parent="K7jrmlSnKd5e08-iuxen-323">
          <mxGeometry x="29.996153846153845" y="67.47857142857143" width="5.384615384615384" height="6.857142857142857" as="geometry" />
        </mxCell>
        <mxCell id="K7jrmlSnKd5e08-iuxen-333" value="" style="rounded=0;whiteSpace=wrap;html=1;fontSize=22;strokeColor=none;fillColor=#FFB570;" vertex="1" parent="K7jrmlSnKd5e08-iuxen-323">
          <mxGeometry x="29.996153846153845" y="74.33571428571429" width="5.384615384615384" height="10.285714285714285" as="geometry" />
        </mxCell>
        <mxCell id="K7jrmlSnKd5e08-iuxen-334" value="" style="rounded=0;whiteSpace=wrap;html=1;fontSize=22;strokeColor=none;fillColor=#FFCE9F;" vertex="1" parent="K7jrmlSnKd5e08-iuxen-323">
          <mxGeometry x="29.996153846153845" y="81.19285714285714" width="5.384615384615384" height="6.857142857142857" as="geometry" />
        </mxCell>
        <mxCell id="K7jrmlSnKd5e08-iuxen-335" value="" style="ellipse;whiteSpace=wrap;html=1;aspect=fixed;fontSize=11;strokeColor=#000000;fillColor=none;" vertex="1" parent="K7jrmlSnKd5e08-iuxen-323">
          <mxGeometry x="18.076923076923077" y="105.19285714285714" width="4.615384615384615" height="4.615384615384615" as="geometry" />
        </mxCell>
        <mxCell id="K7jrmlSnKd5e08-iuxen-336" value="" style="ellipse;whiteSpace=wrap;html=1;aspect=fixed;fontSize=11;strokeColor=#000000;fillColor=none;" vertex="1" parent="K7jrmlSnKd5e08-iuxen-323">
          <mxGeometry x="29.996153846153845" y="105.19285714285714" width="4.615384615384615" height="4.615384615384615" as="geometry" />
        </mxCell>
        <mxCell id="K7jrmlSnKd5e08-iuxen-337" value="" style="endArrow=classic;html=1;rounded=0;fontSize=11;exitX=0.5;exitY=0;exitDx=0;exitDy=0;entryX=0.5;entryY=1;entryDx=0;entryDy=0;" edge="1" parent="K7jrmlSnKd5e08-iuxen-323" source="K7jrmlSnKd5e08-iuxen-335" target="K7jrmlSnKd5e08-iuxen-330">
          <mxGeometry width="50" height="50" relative="1" as="geometry">
            <mxPoint x="-313.07692307692304" y="-169.09285714285713" as="sourcePoint" />
            <mxPoint x="-286.15384615384613" y="-203.3785714285714" as="targetPoint" />
          </mxGeometry>
        </mxCell>
        <mxCell id="K7jrmlSnKd5e08-iuxen-338" value="" style="endArrow=classic;html=1;rounded=0;fontSize=11;exitX=0.5;exitY=0;exitDx=0;exitDy=0;entryX=0.5;entryY=1;entryDx=0;entryDy=0;" edge="1" parent="K7jrmlSnKd5e08-iuxen-323" source="K7jrmlSnKd5e08-iuxen-336" target="K7jrmlSnKd5e08-iuxen-334">
          <mxGeometry width="50" height="50" relative="1" as="geometry">
            <mxPoint x="-282.4084615384616" y="-107.37857142857142" as="sourcePoint" />
            <mxPoint x="-282.4084615384616" y="-124.52142857142854" as="targetPoint" />
          </mxGeometry>
        </mxCell>
        <mxCell id="K7jrmlSnKd5e08-iuxen-339" value="&lt;font style=&quot;font-size: 9px;&quot; face=&quot;Georgia&quot;&gt;&lt;i&gt;Item &lt;sub&gt;c2&lt;/sub&gt;&lt;/i&gt;&lt;/font&gt;" style="text;html=1;strokeColor=none;fillColor=none;align=center;verticalAlign=middle;whiteSpace=wrap;rounded=0;fontSize=11;" vertex="1" parent="K7jrmlSnKd5e08-iuxen-323">
          <mxGeometry x="-5.309999999999999" y="105.19000000000001" width="60" height="20.57" as="geometry" />
        </mxCell>
        <mxCell id="K7jrmlSnKd5e08-iuxen-340" style="edgeStyle=orthogonalEdgeStyle;rounded=0;orthogonalLoop=1;jettySize=auto;html=1;exitX=0.5;exitY=0;exitDx=0;exitDy=0;entryX=1;entryY=0.5;entryDx=0;entryDy=0;fontFamily=Georgia;fontSize=11;" edge="1" parent="1" source="K7jrmlSnKd5e08-iuxen-341" target="K7jrmlSnKd5e08-iuxen-343">
          <mxGeometry relative="1" as="geometry">
            <Array as="points">
              <mxPoint x="596" y="590.8299999999999" />
            </Array>
          </mxGeometry>
        </mxCell>
        <mxCell id="K7jrmlSnKd5e08-iuxen-341" value="&lt;font style=&quot;font-size: 10px;&quot;&gt;Activation&lt;br&gt;&lt;/font&gt;" style="rounded=1;whiteSpace=wrap;html=1;fontSize=11;strokeColor=#000000;fillColor=none;" vertex="1" parent="1">
          <mxGeometry x="567.0799999999999" y="600.8299999999999" width="57.92" height="10" as="geometry" />
        </mxCell>
        <mxCell id="K7jrmlSnKd5e08-iuxen-342" style="edgeStyle=none;rounded=0;orthogonalLoop=1;jettySize=auto;html=1;exitX=0.5;exitY=0;exitDx=0;exitDy=0;fontFamily=Georgia;fontSize=10;" edge="1" parent="1" source="K7jrmlSnKd5e08-iuxen-326">
          <mxGeometry relative="1" as="geometry">
            <mxPoint x="585" y="610.8300000000002" as="targetPoint" />
          </mxGeometry>
        </mxCell>
        <mxCell id="K7jrmlSnKd5e08-iuxen-343" value="&lt;font style=&quot;font-size: 11px;&quot;&gt;✖️&lt;/font&gt;" style="ellipse;whiteSpace=wrap;html=1;aspect=fixed;fontStyle=0" vertex="1" parent="1">
          <mxGeometry x="550" y="585.8299999999999" width="10" height="10" as="geometry" />
        </mxCell>
        <mxCell id="K7jrmlSnKd5e08-iuxen-344" style="edgeStyle=orthogonalEdgeStyle;rounded=0;orthogonalLoop=1;jettySize=auto;html=1;exitX=0;exitY=0.5;exitDx=0;exitDy=0;entryX=0.5;entryY=1;entryDx=0;entryDy=0;fontFamily=Georgia;fontSize=11;" edge="1" parent="1" source="K7jrmlSnKd5e08-iuxen-326" target="K7jrmlSnKd5e08-iuxen-343">
          <mxGeometry relative="1" as="geometry">
            <Array as="points">
              <mxPoint x="555" y="641.8299999999999" />
            </Array>
          </mxGeometry>
        </mxCell>
        <mxCell id="K7jrmlSnKd5e08-iuxen-345" value="" style="endArrow=classic;html=1;rounded=0;fontFamily=Georgia;fontSize=11;strokeColor=#FF8000;entryX=0.75;entryY=1;entryDx=0;entryDy=0;" edge="1" parent="1" target="K7jrmlSnKd5e08-iuxen-341">
          <mxGeometry width="50" height="50" relative="1" as="geometry">
            <mxPoint x="611" y="630.8300000000002" as="sourcePoint" />
            <mxPoint x="646" y="620.8299999999999" as="targetPoint" />
          </mxGeometry>
        </mxCell>
        <mxCell id="K7jrmlSnKd5e08-iuxen-346" value="" style="endArrow=classic;html=1;rounded=0;fontFamily=Georgia;fontSize=11;strokeColor=#000000;exitX=0.5;exitY=0;exitDx=0;exitDy=0;entryX=0.547;entryY=0.143;entryDx=0;entryDy=0;entryPerimeter=0;" edge="1" parent="1" source="K7jrmlSnKd5e08-iuxen-321">
          <mxGeometry width="50" height="50" relative="1" as="geometry">
            <mxPoint x="436" y="630.8299999999999" as="sourcePoint" />
            <mxPoint x="475.7399999999998" y="571.77" as="targetPoint" />
          </mxGeometry>
        </mxCell>
        <mxCell id="K7jrmlSnKd5e08-iuxen-347" value="" style="endArrow=classic;html=1;rounded=0;fontFamily=Georgia;fontSize=11;strokeColor=#000000;exitX=0.5;exitY=0;exitDx=0;exitDy=0;entryX=0.547;entryY=0.143;entryDx=0;entryDy=0;entryPerimeter=0;" edge="1" parent="1">
          <mxGeometry width="50" height="50" relative="1" as="geometry">
            <mxPoint x="555.1199999999999" y="585.8300000000002" as="sourcePoint" />
            <mxPoint x="554.8600000000001" y="571.77" as="targetPoint" />
          </mxGeometry>
        </mxCell>
        <mxCell id="K7jrmlSnKd5e08-iuxen-348" value="" style="group" vertex="1" connectable="0" parent="1">
          <mxGeometry x="683.6923076923077" y="600.8299999999999" width="40" height="44.57142857142857" as="geometry" />
        </mxCell>
        <mxCell id="K7jrmlSnKd5e08-iuxen-349" value="" style="shape=curlyBracket;whiteSpace=wrap;html=1;rounded=1;flipH=1;fontSize=22;strokeColor=#000000;fillColor=#000000;rotation=-90;size=0.5;" vertex="1" parent="K7jrmlSnKd5e08-iuxen-348">
          <mxGeometry x="18.076923076923077" y="36.62142857142857" width="10.769230769230768" height="34.285714285714285" as="geometry" />
        </mxCell>
        <mxCell id="K7jrmlSnKd5e08-iuxen-350" value="&lt;font style=&quot;font-size: 11px;&quot;&gt;concat&lt;/font&gt;" style="rounded=1;whiteSpace=wrap;html=1;fontSize=11;strokeColor=#000000;fillColor=none;" vertex="1" parent="K7jrmlSnKd5e08-iuxen-348">
          <mxGeometry x="4.14" y="36.05" width="38.65" height="10.43" as="geometry" />
        </mxCell>
        <mxCell id="K7jrmlSnKd5e08-iuxen-351" value="" style="rounded=0;whiteSpace=wrap;html=1;fontSize=22;strokeColor=none;fillColor=#CDA2BE;" vertex="1" parent="1">
          <mxGeometry x="699.0769230769231" y="661.4514285714286" width="5.384615384615384" height="6.857142857142857" as="geometry" />
        </mxCell>
        <mxCell id="K7jrmlSnKd5e08-iuxen-352" value="" style="rounded=0;whiteSpace=wrap;html=1;fontSize=22;strokeColor=none;fillColor=#E6D0DE;" vertex="1" parent="1">
          <mxGeometry x="699.0769230769231" y="668.3085714285714" width="5.384615384615384" height="6.857142857142857" as="geometry" />
        </mxCell>
        <mxCell id="K7jrmlSnKd5e08-iuxen-353" value="" style="rounded=0;whiteSpace=wrap;html=1;fontSize=22;strokeColor=none;fillColor=#CDA2BE;" vertex="1" parent="1">
          <mxGeometry x="699.0769230769231" y="675.1657142857143" width="5.384615384615384" height="6.857142857142857" as="geometry" />
        </mxCell>
        <mxCell id="K7jrmlSnKd5e08-iuxen-354" value="" style="rounded=0;whiteSpace=wrap;html=1;fontSize=22;strokeColor=none;fillColor=#E6D0DE;" vertex="1" parent="1">
          <mxGeometry x="699.0769230769231" y="682.0228571428572" width="5.384615384615384" height="6.857142857142857" as="geometry" />
        </mxCell>
        <mxCell id="K7jrmlSnKd5e08-iuxen-355" value="" style="rounded=0;whiteSpace=wrap;html=1;fontSize=22;strokeColor=none;fillColor=#FFB570;" vertex="1" parent="1">
          <mxGeometry x="710.9961538461539" y="661.4514285714286" width="5.384615384615384" height="6.857142857142857" as="geometry" />
        </mxCell>
        <mxCell id="K7jrmlSnKd5e08-iuxen-356" value="" style="rounded=0;whiteSpace=wrap;html=1;fontSize=22;strokeColor=none;fillColor=#FFCE9F;" vertex="1" parent="1">
          <mxGeometry x="710.9961538461539" y="668.3085714285714" width="5.384615384615384" height="6.857142857142857" as="geometry" />
        </mxCell>
        <mxCell id="K7jrmlSnKd5e08-iuxen-357" value="" style="rounded=0;whiteSpace=wrap;html=1;fontSize=22;strokeColor=none;fillColor=#FFB570;" vertex="1" parent="1">
          <mxGeometry x="710.9961538461539" y="675.1657142857143" width="5.384615384615384" height="10.285714285714285" as="geometry" />
        </mxCell>
        <mxCell id="K7jrmlSnKd5e08-iuxen-358" value="" style="rounded=0;whiteSpace=wrap;html=1;fontSize=22;strokeColor=none;fillColor=#FFCE9F;" vertex="1" parent="1">
          <mxGeometry x="710.9961538461539" y="682.0228571428572" width="5.384615384615384" height="6.857142857142857" as="geometry" />
        </mxCell>
        <mxCell id="K7jrmlSnKd5e08-iuxen-359" value="" style="ellipse;whiteSpace=wrap;html=1;aspect=fixed;fontSize=11;strokeColor=#000000;fillColor=none;" vertex="1" parent="1">
          <mxGeometry x="699.0769230769231" y="706.0228571428572" width="4.615384615384615" height="4.615384615384615" as="geometry" />
        </mxCell>
        <mxCell id="K7jrmlSnKd5e08-iuxen-360" value="" style="ellipse;whiteSpace=wrap;html=1;aspect=fixed;fontSize=11;strokeColor=#000000;fillColor=none;" vertex="1" parent="1">
          <mxGeometry x="710.9961538461539" y="706.0228571428572" width="4.615384615384615" height="4.615384615384615" as="geometry" />
        </mxCell>
        <mxCell id="K7jrmlSnKd5e08-iuxen-361" value="" style="endArrow=classic;html=1;rounded=0;fontSize=11;exitX=0.5;exitY=0;exitDx=0;exitDy=0;entryX=0.5;entryY=1;entryDx=0;entryDy=0;" edge="1" parent="1" source="K7jrmlSnKd5e08-iuxen-359" target="K7jrmlSnKd5e08-iuxen-354">
          <mxGeometry width="50" height="50" relative="1" as="geometry">
            <mxPoint x="-446.0769230769231" y="-68.26285714285711" as="sourcePoint" />
            <mxPoint x="-419.1538461538462" y="-102.54857142857139" as="targetPoint" />
          </mxGeometry>
        </mxCell>
        <mxCell id="K7jrmlSnKd5e08-iuxen-362" value="" style="endArrow=classic;html=1;rounded=0;fontSize=11;exitX=0.5;exitY=0;exitDx=0;exitDy=0;entryX=0.5;entryY=1;entryDx=0;entryDy=0;" edge="1" parent="1" source="K7jrmlSnKd5e08-iuxen-360" target="K7jrmlSnKd5e08-iuxen-358">
          <mxGeometry width="50" height="50" relative="1" as="geometry">
            <mxPoint x="-415.40846153846167" y="-6.548571428571407" as="sourcePoint" />
            <mxPoint x="-415.40846153846167" y="-23.69142857142853" as="targetPoint" />
          </mxGeometry>
        </mxCell>
        <mxCell id="K7jrmlSnKd5e08-iuxen-363" value="&lt;font style=&quot;font-size: 9px;&quot; face=&quot;Georgia&quot;&gt;&lt;i&gt;Item &lt;sub&gt;cN&lt;/sub&gt;&lt;/i&gt;&lt;/font&gt;" style="text;html=1;strokeColor=none;fillColor=none;align=center;verticalAlign=middle;whiteSpace=wrap;rounded=0;fontSize=11;" vertex="1" parent="1">
          <mxGeometry x="675.69" y="706.02" width="60" height="20.57" as="geometry" />
        </mxCell>
        <mxCell id="K7jrmlSnKd5e08-iuxen-364" style="edgeStyle=orthogonalEdgeStyle;rounded=0;orthogonalLoop=1;jettySize=auto;html=1;exitX=0.5;exitY=0;exitDx=0;exitDy=0;entryX=1;entryY=0.5;entryDx=0;entryDy=0;fontFamily=Georgia;fontSize=11;" edge="1" parent="1" source="K7jrmlSnKd5e08-iuxen-365" target="K7jrmlSnKd5e08-iuxen-367">
          <mxGeometry relative="1" as="geometry">
            <Array as="points">
              <mxPoint x="718" y="590.8299999999999" />
            </Array>
          </mxGeometry>
        </mxCell>
        <mxCell id="K7jrmlSnKd5e08-iuxen-365" value="&lt;font style=&quot;font-size: 10px;&quot;&gt;Activation&lt;br&gt;&lt;/font&gt;" style="rounded=1;whiteSpace=wrap;html=1;fontSize=11;strokeColor=#000000;fillColor=none;" vertex="1" parent="1">
          <mxGeometry x="689.0799999999999" y="600.8299999999999" width="57.92" height="10" as="geometry" />
        </mxCell>
        <mxCell id="K7jrmlSnKd5e08-iuxen-366" style="edgeStyle=none;rounded=0;orthogonalLoop=1;jettySize=auto;html=1;exitX=0.5;exitY=0;exitDx=0;exitDy=0;fontFamily=Georgia;fontSize=10;" edge="1" parent="1" source="K7jrmlSnKd5e08-iuxen-350">
          <mxGeometry relative="1" as="geometry">
            <mxPoint x="707" y="610.8300000000002" as="targetPoint" />
          </mxGeometry>
        </mxCell>
        <mxCell id="K7jrmlSnKd5e08-iuxen-367" value="&lt;font style=&quot;font-size: 11px;&quot;&gt;✖️&lt;/font&gt;" style="ellipse;whiteSpace=wrap;html=1;aspect=fixed;fontStyle=0" vertex="1" parent="1">
          <mxGeometry x="672" y="585.8299999999999" width="10" height="10" as="geometry" />
        </mxCell>
        <mxCell id="K7jrmlSnKd5e08-iuxen-368" style="edgeStyle=orthogonalEdgeStyle;rounded=0;orthogonalLoop=1;jettySize=auto;html=1;exitX=0;exitY=0.5;exitDx=0;exitDy=0;entryX=0.5;entryY=1;entryDx=0;entryDy=0;fontFamily=Georgia;fontSize=11;" edge="1" parent="1" source="K7jrmlSnKd5e08-iuxen-350" target="K7jrmlSnKd5e08-iuxen-367">
          <mxGeometry relative="1" as="geometry">
            <Array as="points">
              <mxPoint x="677" y="641.8299999999999" />
            </Array>
          </mxGeometry>
        </mxCell>
        <mxCell id="K7jrmlSnKd5e08-iuxen-369" value="" style="endArrow=classic;html=1;rounded=0;fontFamily=Georgia;fontSize=11;strokeColor=#FF8000;entryX=0.75;entryY=1;entryDx=0;entryDy=0;" edge="1" parent="1" target="K7jrmlSnKd5e08-iuxen-365">
          <mxGeometry width="50" height="50" relative="1" as="geometry">
            <mxPoint x="733" y="630.8300000000002" as="sourcePoint" />
            <mxPoint x="768" y="620.8299999999999" as="targetPoint" />
          </mxGeometry>
        </mxCell>
        <mxCell id="K7jrmlSnKd5e08-iuxen-370" value="" style="endArrow=classic;html=1;rounded=0;fontFamily=Georgia;fontSize=11;strokeColor=#000000;exitX=0.5;exitY=0;exitDx=0;exitDy=0;entryX=0.547;entryY=0.143;entryDx=0;entryDy=0;entryPerimeter=0;" edge="1" parent="1">
          <mxGeometry width="50" height="50" relative="1" as="geometry">
            <mxPoint x="677.1199999999999" y="585.8300000000002" as="sourcePoint" />
            <mxPoint x="676.8599999999997" y="571.77" as="targetPoint" />
          </mxGeometry>
        </mxCell>
        <mxCell id="K7jrmlSnKd5e08-iuxen-371" value="&lt;font style=&quot;font-size: 22px;&quot;&gt;……&lt;/font&gt;" style="text;html=1;strokeColor=none;fillColor=none;align=center;verticalAlign=middle;whiteSpace=wrap;rounded=0;fontFamily=Georgia;fontSize=11;" vertex="1" parent="1">
          <mxGeometry x="612" y="659.1800000000001" width="60" height="30" as="geometry" />
        </mxCell>
        <mxCell id="K7jrmlSnKd5e08-iuxen-372" value="&lt;font face=&quot;Helvetica&quot; color=&quot;#ff8000&quot;&gt;&lt;span style=&quot;font-size: 12px;&quot;&gt;券门槛—TOP核销店铺 &lt;b&gt;Coupon-Shop&lt;/b&gt; 序列&lt;/span&gt;&lt;/font&gt;" style="text;html=1;strokeColor=none;fillColor=none;align=center;verticalAlign=middle;whiteSpace=wrap;rounded=0;dashed=1;fontFamily=Georgia;fontSize=22;" vertex="1" parent="1">
          <mxGeometry x="468.03999999999996" y="729.1800000000001" width="256" height="30" as="geometry" />
        </mxCell>
        <mxCell id="K7jrmlSnKd5e08-iuxen-423" style="edgeStyle=orthogonalEdgeStyle;rounded=0;orthogonalLoop=1;jettySize=auto;html=1;exitX=0.5;exitY=0;exitDx=0;exitDy=0;" edge="1" parent="1" source="K7jrmlSnKd5e08-iuxen-395">
          <mxGeometry relative="1" as="geometry">
            <mxPoint x="349.5" y="489.18" as="targetPoint" />
          </mxGeometry>
        </mxCell>
        <mxCell id="K7jrmlSnKd5e08-iuxen-395" value="点击短序列&lt;br&gt;Target&lt;br&gt;Attention" style="rounded=0;whiteSpace=wrap;html=1;strokeColor=#000000;" vertex="1" parent="1">
          <mxGeometry x="310" y="550.8299999999999" width="80" height="170" as="geometry" />
        </mxCell>
        <mxCell id="K7jrmlSnKd5e08-iuxen-424" style="edgeStyle=orthogonalEdgeStyle;rounded=0;orthogonalLoop=1;jettySize=auto;html=1;exitX=0.5;exitY=0;exitDx=0;exitDy=0;" edge="1" parent="1" source="K7jrmlSnKd5e08-iuxen-396">
          <mxGeometry relative="1" as="geometry">
            <mxPoint x="259.5" y="489.18" as="targetPoint" />
          </mxGeometry>
        </mxCell>
        <mxCell id="K7jrmlSnKd5e08-iuxen-396" value="点击长序列&lt;br&gt;Mean Pooling" style="rounded=0;whiteSpace=wrap;html=1;strokeColor=#000000;" vertex="1" parent="1">
          <mxGeometry x="220" y="550.8299999999999" width="80" height="170" as="geometry" />
        </mxCell>
        <mxCell id="K7jrmlSnKd5e08-iuxen-397" value="" style="group" vertex="1" connectable="0" parent="1">
          <mxGeometry x="310" y="479.18" width="80" height="10" as="geometry" />
        </mxCell>
        <mxCell id="K7jrmlSnKd5e08-iuxen-398" value="" style="group;fillColor=#fff2cc;strokeColor=#d6b656;" vertex="1" connectable="0" parent="K7jrmlSnKd5e08-iuxen-397">
          <mxGeometry width="40" height="10" as="geometry" />
        </mxCell>
        <mxCell id="K7jrmlSnKd5e08-iuxen-399" value="" style="rounded=0;whiteSpace=wrap;html=1;fontSize=22;strokeColor=#82b366;fillColor=#d5e8d4;" vertex="1" parent="K7jrmlSnKd5e08-iuxen-398">
          <mxGeometry width="10" height="10" as="geometry" />
        </mxCell>
        <mxCell id="K7jrmlSnKd5e08-iuxen-400" style="edgeStyle=none;rounded=0;orthogonalLoop=1;jettySize=auto;html=1;exitX=1;exitY=1;exitDx=0;exitDy=0;fontSize=22;strokeColor=none;" edge="1" parent="K7jrmlSnKd5e08-iuxen-398" source="K7jrmlSnKd5e08-iuxen-399" target="K7jrmlSnKd5e08-iuxen-399">
          <mxGeometry relative="1" as="geometry" />
        </mxCell>
        <mxCell id="K7jrmlSnKd5e08-iuxen-401" value="" style="rounded=0;whiteSpace=wrap;html=1;fontSize=22;strokeColor=#d6b656;fillColor=#fff2cc;" vertex="1" parent="K7jrmlSnKd5e08-iuxen-398">
          <mxGeometry x="10" width="10" height="10" as="geometry" />
        </mxCell>
        <mxCell id="K7jrmlSnKd5e08-iuxen-402" value="" style="rounded=0;whiteSpace=wrap;html=1;fontSize=22;strokeColor=#82b366;fillColor=#d5e8d4;" vertex="1" parent="K7jrmlSnKd5e08-iuxen-398">
          <mxGeometry x="20" width="10" height="10" as="geometry" />
        </mxCell>
        <mxCell id="K7jrmlSnKd5e08-iuxen-403" value="" style="rounded=0;whiteSpace=wrap;html=1;fontSize=22;strokeColor=#d6b656;fillColor=#fff2cc;" vertex="1" parent="K7jrmlSnKd5e08-iuxen-398">
          <mxGeometry x="30" width="10" height="10" as="geometry" />
        </mxCell>
        <mxCell id="K7jrmlSnKd5e08-iuxen-404" value="" style="group;fillColor=#dae8fc;strokeColor=#6c8ebf;" vertex="1" connectable="0" parent="K7jrmlSnKd5e08-iuxen-397">
          <mxGeometry x="40" width="40" height="10" as="geometry" />
        </mxCell>
        <mxCell id="K7jrmlSnKd5e08-iuxen-405" value="" style="rounded=0;whiteSpace=wrap;html=1;fontSize=22;strokeColor=#82b366;fillColor=#d5e8d4;" vertex="1" parent="K7jrmlSnKd5e08-iuxen-404">
          <mxGeometry width="10" height="10" as="geometry" />
        </mxCell>
        <mxCell id="K7jrmlSnKd5e08-iuxen-406" style="edgeStyle=none;rounded=0;orthogonalLoop=1;jettySize=auto;html=1;exitX=1;exitY=1;exitDx=0;exitDy=0;fontSize=22;strokeColor=none;" edge="1" parent="K7jrmlSnKd5e08-iuxen-404" source="K7jrmlSnKd5e08-iuxen-405" target="K7jrmlSnKd5e08-iuxen-405">
          <mxGeometry relative="1" as="geometry" />
        </mxCell>
        <mxCell id="K7jrmlSnKd5e08-iuxen-407" value="" style="rounded=0;whiteSpace=wrap;html=1;fontSize=22;strokeColor=#d6b656;fillColor=#fff2cc;" vertex="1" parent="K7jrmlSnKd5e08-iuxen-404">
          <mxGeometry x="10" width="10" height="10" as="geometry" />
        </mxCell>
        <mxCell id="K7jrmlSnKd5e08-iuxen-408" value="" style="rounded=0;whiteSpace=wrap;html=1;fontSize=22;strokeColor=#82b366;fillColor=#d5e8d4;" vertex="1" parent="K7jrmlSnKd5e08-iuxen-404">
          <mxGeometry x="20" width="10" height="10" as="geometry" />
        </mxCell>
        <mxCell id="K7jrmlSnKd5e08-iuxen-409" value="" style="rounded=0;whiteSpace=wrap;html=1;fontSize=22;strokeColor=#d6b656;fillColor=#fff2cc;" vertex="1" parent="K7jrmlSnKd5e08-iuxen-404">
          <mxGeometry x="30" width="10" height="10" as="geometry" />
        </mxCell>
        <mxCell id="K7jrmlSnKd5e08-iuxen-410" value="" style="group" vertex="1" connectable="0" parent="1">
          <mxGeometry x="220" y="479.18" width="80" height="10" as="geometry" />
        </mxCell>
        <mxCell id="K7jrmlSnKd5e08-iuxen-411" value="" style="group;fillColor=#dae8fc;strokeColor=#6c8ebf;" vertex="1" connectable="0" parent="K7jrmlSnKd5e08-iuxen-410">
          <mxGeometry width="40" height="10" as="geometry" />
        </mxCell>
        <mxCell id="K7jrmlSnKd5e08-iuxen-412" value="" style="rounded=0;whiteSpace=wrap;html=1;fontSize=22;strokeColor=#82b366;fillColor=#d5e8d4;" vertex="1" parent="K7jrmlSnKd5e08-iuxen-411">
          <mxGeometry width="10" height="10" as="geometry" />
        </mxCell>
        <mxCell id="K7jrmlSnKd5e08-iuxen-413" style="edgeStyle=none;rounded=0;orthogonalLoop=1;jettySize=auto;html=1;exitX=1;exitY=1;exitDx=0;exitDy=0;fontSize=22;strokeColor=none;" edge="1" parent="K7jrmlSnKd5e08-iuxen-411" source="K7jrmlSnKd5e08-iuxen-412" target="K7jrmlSnKd5e08-iuxen-412">
          <mxGeometry relative="1" as="geometry" />
        </mxCell>
        <mxCell id="K7jrmlSnKd5e08-iuxen-414" value="" style="rounded=0;whiteSpace=wrap;html=1;fontSize=22;strokeColor=#d6b656;fillColor=#fff2cc;" vertex="1" parent="K7jrmlSnKd5e08-iuxen-411">
          <mxGeometry x="10" width="10" height="10" as="geometry" />
        </mxCell>
        <mxCell id="K7jrmlSnKd5e08-iuxen-415" value="" style="rounded=0;whiteSpace=wrap;html=1;fontSize=22;strokeColor=#82b366;fillColor=#d5e8d4;" vertex="1" parent="K7jrmlSnKd5e08-iuxen-411">
          <mxGeometry x="20" width="10" height="10" as="geometry" />
        </mxCell>
        <mxCell id="K7jrmlSnKd5e08-iuxen-416" value="" style="rounded=0;whiteSpace=wrap;html=1;fontSize=22;strokeColor=#d6b656;fillColor=#fff2cc;" vertex="1" parent="K7jrmlSnKd5e08-iuxen-411">
          <mxGeometry x="30" width="10" height="10" as="geometry" />
        </mxCell>
        <mxCell id="K7jrmlSnKd5e08-iuxen-417" value="" style="group;fillColor=#fff2cc;strokeColor=#d6b656;" vertex="1" connectable="0" parent="K7jrmlSnKd5e08-iuxen-410">
          <mxGeometry x="40" width="40" height="10" as="geometry" />
        </mxCell>
        <mxCell id="K7jrmlSnKd5e08-iuxen-418" value="" style="rounded=0;whiteSpace=wrap;html=1;fontSize=22;strokeColor=#82b366;fillColor=#d5e8d4;" vertex="1" parent="K7jrmlSnKd5e08-iuxen-417">
          <mxGeometry width="10" height="10" as="geometry" />
        </mxCell>
        <mxCell id="K7jrmlSnKd5e08-iuxen-419" style="edgeStyle=none;rounded=0;orthogonalLoop=1;jettySize=auto;html=1;exitX=1;exitY=1;exitDx=0;exitDy=0;fontSize=22;strokeColor=none;" edge="1" parent="K7jrmlSnKd5e08-iuxen-417" source="K7jrmlSnKd5e08-iuxen-418" target="K7jrmlSnKd5e08-iuxen-418">
          <mxGeometry relative="1" as="geometry" />
        </mxCell>
        <mxCell id="K7jrmlSnKd5e08-iuxen-420" value="" style="rounded=0;whiteSpace=wrap;html=1;fontSize=22;strokeColor=#d6b656;fillColor=#fff2cc;" vertex="1" parent="K7jrmlSnKd5e08-iuxen-417">
          <mxGeometry x="10" width="10" height="10" as="geometry" />
        </mxCell>
        <mxCell id="K7jrmlSnKd5e08-iuxen-421" value="" style="rounded=0;whiteSpace=wrap;html=1;fontSize=22;strokeColor=#82b366;fillColor=#d5e8d4;" vertex="1" parent="K7jrmlSnKd5e08-iuxen-417">
          <mxGeometry x="20" width="10" height="10" as="geometry" />
        </mxCell>
        <mxCell id="K7jrmlSnKd5e08-iuxen-422" value="" style="rounded=0;whiteSpace=wrap;html=1;fontSize=22;strokeColor=#d6b656;fillColor=#fff2cc;" vertex="1" parent="K7jrmlSnKd5e08-iuxen-417">
          <mxGeometry x="30" width="10" height="10" as="geometry" />
        </mxCell>
        <mxCell id="K7jrmlSnKd5e08-iuxen-425" value="" style="group" vertex="1" connectable="0" parent="1">
          <mxGeometry x="-255" y="345.84999999999997" width="50" height="165" as="geometry" />
        </mxCell>
        <mxCell id="K7jrmlSnKd5e08-iuxen-426" value="" style="group" vertex="1" connectable="0" parent="K7jrmlSnKd5e08-iuxen-425">
          <mxGeometry y="25" width="50" height="65" as="geometry" />
        </mxCell>
        <mxCell id="K7jrmlSnKd5e08-iuxen-427" value="" style="group" vertex="1" connectable="0" parent="K7jrmlSnKd5e08-iuxen-426">
          <mxGeometry x="5" width="40" height="10" as="geometry" />
        </mxCell>
        <mxCell id="K7jrmlSnKd5e08-iuxen-428" value="" style="rounded=0;whiteSpace=wrap;html=1;fontSize=22;strokeColor=none;fillColor=#000000;" vertex="1" parent="K7jrmlSnKd5e08-iuxen-427">
          <mxGeometry width="10" height="10" as="geometry" />
        </mxCell>
        <mxCell id="K7jrmlSnKd5e08-iuxen-429" style="edgeStyle=none;rounded=0;orthogonalLoop=1;jettySize=auto;html=1;exitX=1;exitY=1;exitDx=0;exitDy=0;fontSize=22;strokeColor=none;" edge="1" parent="K7jrmlSnKd5e08-iuxen-427" source="K7jrmlSnKd5e08-iuxen-428" target="K7jrmlSnKd5e08-iuxen-428">
          <mxGeometry relative="1" as="geometry" />
        </mxCell>
        <mxCell id="K7jrmlSnKd5e08-iuxen-430" value="" style="rounded=0;whiteSpace=wrap;html=1;fontSize=22;strokeColor=none;fillColor=#BFBFBF;" vertex="1" parent="K7jrmlSnKd5e08-iuxen-427">
          <mxGeometry x="10" width="10" height="10" as="geometry" />
        </mxCell>
        <mxCell id="K7jrmlSnKd5e08-iuxen-431" value="" style="rounded=0;whiteSpace=wrap;html=1;fontSize=22;strokeColor=none;fillColor=#000000;" vertex="1" parent="K7jrmlSnKd5e08-iuxen-427">
          <mxGeometry x="20" width="10" height="10" as="geometry" />
        </mxCell>
        <mxCell id="K7jrmlSnKd5e08-iuxen-432" value="" style="rounded=0;whiteSpace=wrap;html=1;fontSize=22;strokeColor=none;fillColor=#BFBFBF;" vertex="1" parent="K7jrmlSnKd5e08-iuxen-427">
          <mxGeometry x="30" width="10" height="10" as="geometry" />
        </mxCell>
        <mxCell id="K7jrmlSnKd5e08-iuxen-433" value="" style="shape=curlyBracket;whiteSpace=wrap;html=1;rounded=1;flipH=1;fontSize=22;strokeColor=#000000;fillColor=#000000;rotation=-90;size=0.5;" vertex="1" parent="K7jrmlSnKd5e08-iuxen-426">
          <mxGeometry x="15" y="30" width="20" height="50" as="geometry" />
        </mxCell>
        <mxCell id="K7jrmlSnKd5e08-iuxen-434" value="&lt;font style=&quot;font-size: 11px;&quot;&gt;concat&lt;/font&gt;" style="rounded=1;whiteSpace=wrap;html=1;fontSize=11;strokeColor=#000000;fillColor=none;" vertex="1" parent="K7jrmlSnKd5e08-iuxen-426">
          <mxGeometry x="2.5" y="20" width="45" height="20" as="geometry" />
        </mxCell>
        <mxCell id="K7jrmlSnKd5e08-iuxen-435" value="" style="rounded=0;whiteSpace=wrap;html=1;fontSize=22;strokeColor=none;fillColor=#000000;" vertex="1" parent="K7jrmlSnKd5e08-iuxen-425">
          <mxGeometry x="10" y="90" width="10" height="10" as="geometry" />
        </mxCell>
        <mxCell id="K7jrmlSnKd5e08-iuxen-436" value="" style="rounded=0;whiteSpace=wrap;html=1;fontSize=22;strokeColor=none;fillColor=#BFBFBF;" vertex="1" parent="K7jrmlSnKd5e08-iuxen-425">
          <mxGeometry x="10" y="100" width="10" height="10" as="geometry" />
        </mxCell>
        <mxCell id="K7jrmlSnKd5e08-iuxen-437" value="" style="rounded=0;whiteSpace=wrap;html=1;fontSize=22;strokeColor=none;fillColor=#000000;" vertex="1" parent="K7jrmlSnKd5e08-iuxen-425">
          <mxGeometry x="10" y="110" width="10" height="10" as="geometry" />
        </mxCell>
        <mxCell id="K7jrmlSnKd5e08-iuxen-438" value="" style="rounded=0;whiteSpace=wrap;html=1;fontSize=22;strokeColor=none;fillColor=#BFBFBF;" vertex="1" parent="K7jrmlSnKd5e08-iuxen-425">
          <mxGeometry x="10" y="120" width="10" height="10" as="geometry" />
        </mxCell>
        <mxCell id="K7jrmlSnKd5e08-iuxen-439" value="" style="rounded=0;whiteSpace=wrap;html=1;fontSize=22;strokeColor=none;fillColor=#000000;" vertex="1" parent="K7jrmlSnKd5e08-iuxen-425">
          <mxGeometry x="30" y="90" width="10" height="10" as="geometry" />
        </mxCell>
        <mxCell id="K7jrmlSnKd5e08-iuxen-440" value="" style="rounded=0;whiteSpace=wrap;html=1;fontSize=22;strokeColor=none;fillColor=#BFBFBF;" vertex="1" parent="K7jrmlSnKd5e08-iuxen-425">
          <mxGeometry x="30" y="100" width="10" height="10" as="geometry" />
        </mxCell>
        <mxCell id="K7jrmlSnKd5e08-iuxen-441" value="" style="rounded=0;whiteSpace=wrap;html=1;fontSize=22;strokeColor=none;fillColor=#000000;" vertex="1" parent="K7jrmlSnKd5e08-iuxen-425">
          <mxGeometry x="30" y="110" width="10" height="15" as="geometry" />
        </mxCell>
        <mxCell id="K7jrmlSnKd5e08-iuxen-442" value="" style="rounded=0;whiteSpace=wrap;html=1;fontSize=22;strokeColor=none;fillColor=#BFBFBF;" vertex="1" parent="K7jrmlSnKd5e08-iuxen-425">
          <mxGeometry x="30" y="120" width="10" height="10" as="geometry" />
        </mxCell>
        <mxCell id="K7jrmlSnKd5e08-iuxen-443" value="" style="ellipse;whiteSpace=wrap;html=1;aspect=fixed;fontSize=11;strokeColor=#000000;fillColor=none;" vertex="1" parent="K7jrmlSnKd5e08-iuxen-425">
          <mxGeometry x="10" y="155" width="10" height="10" as="geometry" />
        </mxCell>
        <mxCell id="K7jrmlSnKd5e08-iuxen-444" value="" style="ellipse;whiteSpace=wrap;html=1;aspect=fixed;fontSize=11;strokeColor=#000000;fillColor=none;" vertex="1" parent="K7jrmlSnKd5e08-iuxen-425">
          <mxGeometry x="30" y="155" width="10" height="10" as="geometry" />
        </mxCell>
        <mxCell id="K7jrmlSnKd5e08-iuxen-445" value="" style="endArrow=classic;html=1;rounded=0;fontSize=11;exitX=0.5;exitY=0;exitDx=0;exitDy=0;entryX=0.5;entryY=1;entryDx=0;entryDy=0;" edge="1" parent="K7jrmlSnKd5e08-iuxen-425" source="K7jrmlSnKd5e08-iuxen-443" target="K7jrmlSnKd5e08-iuxen-438">
          <mxGeometry width="50" height="50" relative="1" as="geometry">
            <mxPoint x="-20" y="65" as="sourcePoint" />
            <mxPoint x="30" y="15" as="targetPoint" />
          </mxGeometry>
        </mxCell>
        <mxCell id="K7jrmlSnKd5e08-iuxen-446" value="" style="endArrow=classic;html=1;rounded=0;fontSize=11;exitX=0.5;exitY=0;exitDx=0;exitDy=0;entryX=0.5;entryY=1;entryDx=0;entryDy=0;" edge="1" parent="K7jrmlSnKd5e08-iuxen-425" source="K7jrmlSnKd5e08-iuxen-444" target="K7jrmlSnKd5e08-iuxen-442">
          <mxGeometry width="50" height="50" relative="1" as="geometry">
            <mxPoint x="34.81999999999999" y="155" as="sourcePoint" />
            <mxPoint x="34.81999999999999" y="130" as="targetPoint" />
          </mxGeometry>
        </mxCell>
        <mxCell id="K7jrmlSnKd5e08-iuxen-447" value="" style="endArrow=classic;html=1;rounded=0;fontSize=11;exitX=0.5;exitY=0;exitDx=0;exitDy=0;entryX=0.5;entryY=1;entryDx=0;entryDy=0;" edge="1" parent="K7jrmlSnKd5e08-iuxen-425">
          <mxGeometry width="50" height="50" relative="1" as="geometry">
            <mxPoint x="24.849999999999966" y="25" as="sourcePoint" />
            <mxPoint x="24.849999999999966" as="targetPoint" />
          </mxGeometry>
        </mxCell>
        <mxCell id="K7jrmlSnKd5e08-iuxen-448" value="User Cost&lt;br&gt;Features" style="text;html=1;strokeColor=none;fillColor=none;align=center;verticalAlign=middle;whiteSpace=wrap;rounded=0;fontSize=11;" vertex="1" parent="1">
          <mxGeometry x="-260" y="515.85" width="65" height="30" as="geometry" />
        </mxCell>
        <mxCell id="K7jrmlSnKd5e08-iuxen-494" value="" style="group" vertex="1" connectable="0" parent="1">
          <mxGeometry x="-57.5" y="330.84999999999997" width="50" height="65" as="geometry" />
        </mxCell>
        <mxCell id="K7jrmlSnKd5e08-iuxen-495" value="" style="shape=curlyBracket;whiteSpace=wrap;html=1;rounded=1;flipH=1;fontSize=22;strokeColor=#000000;fillColor=#000000;rotation=-90;size=0.5;" vertex="1" parent="K7jrmlSnKd5e08-iuxen-494">
          <mxGeometry x="12.5" y="75" width="20" height="50" as="geometry" />
        </mxCell>
        <mxCell id="K7jrmlSnKd5e08-iuxen-496" value="&lt;font style=&quot;font-size: 11px;&quot;&gt;concat&lt;/font&gt;" style="rounded=1;whiteSpace=wrap;html=1;fontSize=11;strokeColor=#000000;fillColor=none;" vertex="1" parent="K7jrmlSnKd5e08-iuxen-494">
          <mxGeometry y="65" width="45" height="20" as="geometry" />
        </mxCell>
        <mxCell id="K7jrmlSnKd5e08-iuxen-497" value="" style="group" vertex="1" connectable="0" parent="K7jrmlSnKd5e08-iuxen-494">
          <mxGeometry x="5" y="42" width="40" height="10" as="geometry" />
        </mxCell>
        <mxCell id="K7jrmlSnKd5e08-iuxen-498" value="" style="rounded=0;whiteSpace=wrap;html=1;fontSize=22;strokeColor=none;fillColor=#CDA2BE;" vertex="1" parent="K7jrmlSnKd5e08-iuxen-497">
          <mxGeometry width="10" height="10" as="geometry" />
        </mxCell>
        <mxCell id="K7jrmlSnKd5e08-iuxen-499" style="edgeStyle=none;rounded=0;orthogonalLoop=1;jettySize=auto;html=1;exitX=1;exitY=1;exitDx=0;exitDy=0;fontSize=22;strokeColor=none;" edge="1" parent="K7jrmlSnKd5e08-iuxen-497" source="K7jrmlSnKd5e08-iuxen-498" target="K7jrmlSnKd5e08-iuxen-498">
          <mxGeometry relative="1" as="geometry" />
        </mxCell>
        <mxCell id="K7jrmlSnKd5e08-iuxen-500" value="" style="rounded=0;whiteSpace=wrap;html=1;fontSize=22;strokeColor=none;fillColor=#FFCE9F;" vertex="1" parent="K7jrmlSnKd5e08-iuxen-497">
          <mxGeometry x="10" width="10" height="10" as="geometry" />
        </mxCell>
        <mxCell id="K7jrmlSnKd5e08-iuxen-501" value="" style="rounded=0;whiteSpace=wrap;html=1;fontSize=22;strokeColor=none;fillColor=#CDA2BE;" vertex="1" parent="K7jrmlSnKd5e08-iuxen-497">
          <mxGeometry x="20" width="10" height="10" as="geometry" />
        </mxCell>
        <mxCell id="K7jrmlSnKd5e08-iuxen-502" value="" style="rounded=0;whiteSpace=wrap;html=1;fontSize=22;strokeColor=none;fillColor=#FFCE9F;" vertex="1" parent="K7jrmlSnKd5e08-iuxen-497">
          <mxGeometry x="30" width="10" height="10" as="geometry" />
        </mxCell>
        <mxCell id="K7jrmlSnKd5e08-iuxen-503" value="" style="rounded=0;whiteSpace=wrap;html=1;fontSize=22;strokeColor=none;fillColor=#CDA2BE;" vertex="1" parent="1">
          <mxGeometry x="-50" y="440.84999999999997" width="10" height="10" as="geometry" />
        </mxCell>
        <mxCell id="K7jrmlSnKd5e08-iuxen-504" value="" style="rounded=0;whiteSpace=wrap;html=1;fontSize=22;strokeColor=none;fillColor=#E6D0DE;" vertex="1" parent="1">
          <mxGeometry x="-50" y="450.84999999999997" width="10" height="10" as="geometry" />
        </mxCell>
        <mxCell id="K7jrmlSnKd5e08-iuxen-505" value="" style="rounded=0;whiteSpace=wrap;html=1;fontSize=22;strokeColor=none;fillColor=#CDA2BE;" vertex="1" parent="1">
          <mxGeometry x="-50" y="460.84999999999997" width="10" height="10" as="geometry" />
        </mxCell>
        <mxCell id="K7jrmlSnKd5e08-iuxen-506" value="" style="rounded=0;whiteSpace=wrap;html=1;fontSize=22;strokeColor=none;fillColor=#E6D0DE;" vertex="1" parent="1">
          <mxGeometry x="-50" y="470.84999999999997" width="10" height="10" as="geometry" />
        </mxCell>
        <mxCell id="K7jrmlSnKd5e08-iuxen-507" value="" style="rounded=0;whiteSpace=wrap;html=1;fontSize=22;strokeColor=none;fillColor=#FFB570;" vertex="1" parent="1">
          <mxGeometry x="-30" y="440.84999999999997" width="10" height="10" as="geometry" />
        </mxCell>
        <mxCell id="K7jrmlSnKd5e08-iuxen-508" value="" style="rounded=0;whiteSpace=wrap;html=1;fontSize=22;strokeColor=none;fillColor=#FFCE9F;" vertex="1" parent="1">
          <mxGeometry x="-30" y="450.84999999999997" width="10" height="10" as="geometry" />
        </mxCell>
        <mxCell id="K7jrmlSnKd5e08-iuxen-509" value="" style="rounded=0;whiteSpace=wrap;html=1;fontSize=22;strokeColor=none;fillColor=#FFB570;" vertex="1" parent="1">
          <mxGeometry x="-30" y="460.84999999999997" width="10" height="15" as="geometry" />
        </mxCell>
        <mxCell id="K7jrmlSnKd5e08-iuxen-510" value="" style="rounded=0;whiteSpace=wrap;html=1;fontSize=22;strokeColor=none;fillColor=#FFCE9F;" vertex="1" parent="1">
          <mxGeometry x="-30" y="470.84999999999997" width="10" height="10" as="geometry" />
        </mxCell>
        <mxCell id="K7jrmlSnKd5e08-iuxen-511" value="" style="ellipse;whiteSpace=wrap;html=1;aspect=fixed;fontSize=11;strokeColor=#000000;fillColor=none;" vertex="1" parent="1">
          <mxGeometry x="-50" y="505.84999999999997" width="10" height="10" as="geometry" />
        </mxCell>
        <mxCell id="K7jrmlSnKd5e08-iuxen-512" value="" style="ellipse;whiteSpace=wrap;html=1;aspect=fixed;fontSize=11;strokeColor=#000000;fillColor=none;" vertex="1" parent="1">
          <mxGeometry x="-30" y="505.84999999999997" width="10" height="10" as="geometry" />
        </mxCell>
        <mxCell id="K7jrmlSnKd5e08-iuxen-513" value="" style="endArrow=classic;html=1;rounded=0;fontSize=11;exitX=0.5;exitY=0;exitDx=0;exitDy=0;entryX=0.5;entryY=1;entryDx=0;entryDy=0;" edge="1" parent="1" source="K7jrmlSnKd5e08-iuxen-511" target="K7jrmlSnKd5e08-iuxen-506">
          <mxGeometry width="50" height="50" relative="1" as="geometry">
            <mxPoint x="-80" y="415.84999999999997" as="sourcePoint" />
            <mxPoint x="-30" y="365.84999999999997" as="targetPoint" />
          </mxGeometry>
        </mxCell>
        <mxCell id="K7jrmlSnKd5e08-iuxen-514" value="" style="endArrow=classic;html=1;rounded=0;fontSize=11;exitX=0.5;exitY=0;exitDx=0;exitDy=0;entryX=0.5;entryY=1;entryDx=0;entryDy=0;" edge="1" parent="1" source="K7jrmlSnKd5e08-iuxen-512" target="K7jrmlSnKd5e08-iuxen-510">
          <mxGeometry width="50" height="50" relative="1" as="geometry">
            <mxPoint x="-25.180000000000064" y="505.84999999999997" as="sourcePoint" />
            <mxPoint x="-25.180000000000064" y="480.84999999999997" as="targetPoint" />
          </mxGeometry>
        </mxCell>
        <mxCell id="K7jrmlSnKd5e08-iuxen-663" style="edgeStyle=orthogonalEdgeStyle;rounded=0;orthogonalLoop=1;jettySize=auto;html=1;exitX=1;exitY=0.25;exitDx=0;exitDy=0;entryX=0.75;entryY=0;entryDx=0;entryDy=0;fontFamily=Times New Roman;fontColor=#000000;curved=1;" edge="1" parent="1" source="K7jrmlSnKd5e08-iuxen-515" target="K7jrmlSnKd5e08-iuxen-590">
          <mxGeometry relative="1" as="geometry" />
        </mxCell>
        <mxCell id="K7jrmlSnKd5e08-iuxen-515" value="Coupons&lt;br&gt;Features" style="text;html=1;strokeColor=none;fillColor=none;align=center;verticalAlign=middle;whiteSpace=wrap;rounded=0;fontSize=11;" vertex="1" parent="1">
          <mxGeometry x="-65" y="520.85" width="65" height="30" as="geometry" />
        </mxCell>
        <mxCell id="K7jrmlSnKd5e08-iuxen-516" value="" style="endArrow=classic;html=1;rounded=0;fontFamily=Georgia;fontSize=11;strokeColor=#000000;exitX=0;exitY=0;exitDx=0;exitDy=0;" edge="1" parent="1" source="K7jrmlSnKd5e08-iuxen-501">
          <mxGeometry width="50" height="50" relative="1" as="geometry">
            <mxPoint x="-32" y="375.84999999999997" as="sourcePoint" />
            <mxPoint x="-32" y="340.84999999999997" as="targetPoint" />
          </mxGeometry>
        </mxCell>
        <mxCell id="K7jrmlSnKd5e08-iuxen-523" style="edgeStyle=orthogonalEdgeStyle;rounded=0;orthogonalLoop=1;jettySize=auto;html=1;exitX=0.5;exitY=0;exitDx=0;exitDy=0;entryX=0.5;entryY=1;entryDx=0;entryDy=0;" edge="1" parent="1" source="K7jrmlSnKd5e08-iuxen-518" target="K7jrmlSnKd5e08-iuxen-522">
          <mxGeometry relative="1" as="geometry" />
        </mxCell>
        <mxCell id="K7jrmlSnKd5e08-iuxen-518" value="Cost Features Embedding" style="rounded=0;whiteSpace=wrap;html=1;strokeColor=#000000;" vertex="1" parent="1">
          <mxGeometry x="-285" y="300" width="315" height="20" as="geometry" />
        </mxCell>
        <mxCell id="K7jrmlSnKd5e08-iuxen-522" value="MLP Layer" style="rounded=0;whiteSpace=wrap;html=1;fillColor=#f5f5f5;strokeColor=#666666;fontColor=#333333;" vertex="1" parent="1">
          <mxGeometry x="-207.5" y="240" width="160" height="20" as="geometry" />
        </mxCell>
        <mxCell id="K7jrmlSnKd5e08-iuxen-526" value="Predict Score" style="rounded=0;whiteSpace=wrap;html=1;fillColor=#f5f5f5;strokeColor=#666666;fontColor=#333333;" vertex="1" parent="1">
          <mxGeometry x="-207.5" y="160" width="160" height="20" as="geometry" />
        </mxCell>
        <mxCell id="K7jrmlSnKd5e08-iuxen-552" style="edgeStyle=orthogonalEdgeStyle;rounded=0;orthogonalLoop=1;jettySize=auto;html=1;exitX=0.5;exitY=0;exitDx=0;exitDy=0;fontFamily=Times New Roman;fontColor=#000000;" edge="1" parent="1" source="K7jrmlSnKd5e08-iuxen-527">
          <mxGeometry relative="1" as="geometry">
            <mxPoint x="-128" y="70" as="targetPoint" />
          </mxGeometry>
        </mxCell>
        <mxCell id="K7jrmlSnKd5e08-iuxen-527" value="" style="ellipse;whiteSpace=wrap;html=1;aspect=fixed;" vertex="1" parent="1">
          <mxGeometry x="-137.5" y="110" width="20" height="20" as="geometry" />
        </mxCell>
        <mxCell id="K7jrmlSnKd5e08-iuxen-528" style="edgeStyle=orthogonalEdgeStyle;rounded=0;orthogonalLoop=1;jettySize=auto;html=1;exitX=0.5;exitY=0;exitDx=0;exitDy=0;entryX=0.5;entryY=1;entryDx=0;entryDy=0;" edge="1" parent="1" target="K7jrmlSnKd5e08-iuxen-527">
          <mxGeometry relative="1" as="geometry">
            <mxPoint x="-127.5" y="160" as="sourcePoint" />
          </mxGeometry>
        </mxCell>
        <mxCell id="K7jrmlSnKd5e08-iuxen-529" value="用户券&lt;br&gt;门槛偏好&lt;br&gt;&lt;br&gt;（eg:用户核销过的券seq &lt;font color=&quot;#ff8000&quot;&gt;OR&lt;br&gt;&lt;/font&gt;用户下单支付价Seq？）" style="rounded=0;whiteSpace=wrap;html=1;strokeColor=#000000;" vertex="1" parent="1">
          <mxGeometry x="-167.5" y="374.2" width="80" height="170" as="geometry" />
        </mxCell>
        <mxCell id="K7jrmlSnKd5e08-iuxen-531" style="edgeStyle=orthogonalEdgeStyle;rounded=0;orthogonalLoop=1;jettySize=auto;html=1;exitX=0;exitY=0.5;exitDx=0;exitDy=0;entryX=1;entryY=0.5;entryDx=0;entryDy=0;fontColor=#000000;" edge="1" parent="1" source="K7jrmlSnKd5e08-iuxen-530" target="K7jrmlSnKd5e08-iuxen-527">
          <mxGeometry relative="1" as="geometry" />
        </mxCell>
        <mxCell id="K7jrmlSnKd5e08-iuxen-530" value="&lt;font color=&quot;#000000&quot;&gt;Label&lt;/font&gt;" style="text;html=1;strokeColor=none;fillColor=none;align=center;verticalAlign=middle;whiteSpace=wrap;rounded=0;fontColor=#FF8000;" vertex="1" parent="1">
          <mxGeometry x="-87.5" y="105" width="57.5" height="30" as="geometry" />
        </mxCell>
        <mxCell id="K7jrmlSnKd5e08-iuxen-532" value="" style="group" vertex="1" connectable="0" parent="1">
          <mxGeometry x="-167.5" y="210" width="80" height="10" as="geometry" />
        </mxCell>
        <mxCell id="K7jrmlSnKd5e08-iuxen-533" value="" style="group;fillColor=#fff2cc;strokeColor=#d6b656;" vertex="1" connectable="0" parent="K7jrmlSnKd5e08-iuxen-532">
          <mxGeometry width="40" height="10" as="geometry" />
        </mxCell>
        <mxCell id="K7jrmlSnKd5e08-iuxen-534" value="" style="rounded=0;whiteSpace=wrap;html=1;fontSize=22;strokeColor=#2D7600;fillColor=#60a917;fontColor=#ffffff;" vertex="1" parent="K7jrmlSnKd5e08-iuxen-533">
          <mxGeometry width="10" height="10" as="geometry" />
        </mxCell>
        <mxCell id="K7jrmlSnKd5e08-iuxen-535" style="edgeStyle=none;rounded=0;orthogonalLoop=1;jettySize=auto;html=1;exitX=1;exitY=1;exitDx=0;exitDy=0;fontSize=22;strokeColor=none;" edge="1" parent="K7jrmlSnKd5e08-iuxen-533" source="K7jrmlSnKd5e08-iuxen-534" target="K7jrmlSnKd5e08-iuxen-534">
          <mxGeometry relative="1" as="geometry" />
        </mxCell>
        <mxCell id="K7jrmlSnKd5e08-iuxen-536" value="" style="rounded=0;whiteSpace=wrap;html=1;fontSize=22;strokeColor=#432D57;fillColor=#76608a;" vertex="1" parent="K7jrmlSnKd5e08-iuxen-533">
          <mxGeometry x="10" width="10" height="10" as="geometry" />
        </mxCell>
        <mxCell id="K7jrmlSnKd5e08-iuxen-537" value="" style="rounded=0;whiteSpace=wrap;html=1;fontSize=22;strokeColor=#2D7600;fillColor=#60a917;fontColor=#ffffff;" vertex="1" parent="K7jrmlSnKd5e08-iuxen-533">
          <mxGeometry x="20" width="10" height="10" as="geometry" />
        </mxCell>
        <mxCell id="K7jrmlSnKd5e08-iuxen-538" value="" style="rounded=0;whiteSpace=wrap;html=1;fontSize=22;strokeColor=#432D57;fillColor=#76608a;" vertex="1" parent="K7jrmlSnKd5e08-iuxen-533">
          <mxGeometry x="30" width="10" height="10" as="geometry" />
        </mxCell>
        <mxCell id="K7jrmlSnKd5e08-iuxen-539" value="" style="group;fillColor=#dae8fc;strokeColor=#6c8ebf;" vertex="1" connectable="0" parent="K7jrmlSnKd5e08-iuxen-532">
          <mxGeometry x="40" width="40" height="10" as="geometry" />
        </mxCell>
        <mxCell id="K7jrmlSnKd5e08-iuxen-540" value="" style="rounded=0;whiteSpace=wrap;html=1;fontSize=22;strokeColor=#2D7600;fillColor=#60a917;fontColor=#ffffff;" vertex="1" parent="K7jrmlSnKd5e08-iuxen-539">
          <mxGeometry width="10" height="10" as="geometry" />
        </mxCell>
        <mxCell id="K7jrmlSnKd5e08-iuxen-541" style="edgeStyle=none;rounded=0;orthogonalLoop=1;jettySize=auto;html=1;exitX=1;exitY=1;exitDx=0;exitDy=0;fontSize=22;strokeColor=none;" edge="1" parent="K7jrmlSnKd5e08-iuxen-539" source="K7jrmlSnKd5e08-iuxen-540" target="K7jrmlSnKd5e08-iuxen-540">
          <mxGeometry relative="1" as="geometry" />
        </mxCell>
        <mxCell id="K7jrmlSnKd5e08-iuxen-542" value="" style="rounded=0;whiteSpace=wrap;html=1;fontSize=22;strokeColor=#432D57;fillColor=#76608a;fontColor=#ffffff;" vertex="1" parent="K7jrmlSnKd5e08-iuxen-539">
          <mxGeometry x="10" width="10" height="10" as="geometry" />
        </mxCell>
        <mxCell id="K7jrmlSnKd5e08-iuxen-543" value="" style="rounded=0;whiteSpace=wrap;html=1;fontSize=22;strokeColor=#2D7600;fillColor=#60a917;fontColor=#ffffff;" vertex="1" parent="K7jrmlSnKd5e08-iuxen-539">
          <mxGeometry x="20" width="10" height="10" as="geometry" />
        </mxCell>
        <mxCell id="K7jrmlSnKd5e08-iuxen-544" value="" style="rounded=0;whiteSpace=wrap;html=1;fontSize=22;strokeColor=#432D57;fillColor=#76608a;fontColor=#ffffff;" vertex="1" parent="K7jrmlSnKd5e08-iuxen-539">
          <mxGeometry x="30" width="10" height="10" as="geometry" />
        </mxCell>
        <mxCell id="K7jrmlSnKd5e08-iuxen-545" style="edgeStyle=orthogonalEdgeStyle;rounded=0;orthogonalLoop=1;jettySize=auto;html=1;exitX=0.5;exitY=0;exitDx=0;exitDy=0;entryX=1;entryY=1;entryDx=0;entryDy=0;" edge="1" parent="1" source="K7jrmlSnKd5e08-iuxen-522" target="K7jrmlSnKd5e08-iuxen-538">
          <mxGeometry relative="1" as="geometry">
            <mxPoint x="-117.5" y="309.9999999999999" as="sourcePoint" />
            <mxPoint x="-117.5" y="269.9999999999999" as="targetPoint" />
          </mxGeometry>
        </mxCell>
        <mxCell id="K7jrmlSnKd5e08-iuxen-546" style="edgeStyle=orthogonalEdgeStyle;rounded=0;orthogonalLoop=1;jettySize=auto;html=1;exitX=1;exitY=0;exitDx=0;exitDy=0;entryX=0.5;entryY=1;entryDx=0;entryDy=0;" edge="1" parent="1" source="K7jrmlSnKd5e08-iuxen-538" target="K7jrmlSnKd5e08-iuxen-526">
          <mxGeometry relative="1" as="geometry">
            <mxPoint x="-117.5" y="250" as="sourcePoint" />
            <mxPoint x="-117.5" y="230" as="targetPoint" />
          </mxGeometry>
        </mxCell>
        <mxCell id="K7jrmlSnKd5e08-iuxen-547" value="" style="endArrow=classic;html=1;rounded=0;fontFamily=Georgia;fontSize=11;strokeColor=#000000;exitX=0;exitY=0;exitDx=0;exitDy=0;" edge="1" parent="1">
          <mxGeometry width="50" height="50" relative="1" as="geometry">
            <mxPoint x="-127.75" y="374.2000000000001" as="sourcePoint" />
            <mxPoint x="-127.25" y="342.2000000000001" as="targetPoint" />
          </mxGeometry>
        </mxCell>
        <mxCell id="K7jrmlSnKd5e08-iuxen-548" value="&lt;font face=&quot;Times New Roman&quot;&gt;&lt;i&gt;Loss&lt;sub&gt;c&lt;/sub&gt;&lt;/i&gt;&lt;/font&gt;" style="text;html=1;strokeColor=none;fillColor=none;align=center;verticalAlign=middle;whiteSpace=wrap;rounded=0;fontColor=#FF0000;" vertex="1" parent="1">
          <mxGeometry x="-122.5" y="95" width="57.5" height="30" as="geometry" />
        </mxCell>
        <mxCell id="K7jrmlSnKd5e08-iuxen-549" value="&lt;i&gt;E&lt;sub&gt;click-short&lt;/sub&gt;&lt;/i&gt;" style="text;html=1;strokeColor=none;fillColor=none;align=center;verticalAlign=middle;whiteSpace=wrap;rounded=0;fontFamily=Times New Roman;" vertex="1" parent="1">
          <mxGeometry x="350" y="485.83" width="70" height="30" as="geometry" />
        </mxCell>
        <mxCell id="K7jrmlSnKd5e08-iuxen-550" value="&lt;i&gt;E&lt;sub&gt;click-long&lt;/sub&gt;&lt;/i&gt;" style="text;html=1;strokeColor=none;fillColor=none;align=center;verticalAlign=middle;whiteSpace=wrap;rounded=0;fontFamily=Times New Roman;" vertex="1" parent="1">
          <mxGeometry x="260" y="485.83" width="70" height="30" as="geometry" />
        </mxCell>
        <mxCell id="K7jrmlSnKd5e08-iuxen-553" value="&lt;font color=&quot;#ff0000&quot; face=&quot;Times New Roman&quot;&gt;&lt;i style=&quot;&quot;&gt;Loss&lt;sub style=&quot;&quot;&gt;ctr&lt;/sub&gt;&lt;/i&gt;&lt;/font&gt;" style="text;html=1;strokeColor=none;fillColor=none;align=center;verticalAlign=middle;whiteSpace=wrap;rounded=0;fontColor=#FF8000;" vertex="1" parent="1">
          <mxGeometry x="422.5" y="75" width="57.5" height="30" as="geometry" />
        </mxCell>
        <mxCell id="K7jrmlSnKd5e08-iuxen-555" style="edgeStyle=orthogonalEdgeStyle;rounded=0;orthogonalLoop=1;jettySize=auto;html=1;exitX=1;exitY=0.5;exitDx=0;exitDy=0;entryX=0;entryY=0.5;entryDx=0;entryDy=0;fontFamily=Times New Roman;fontColor=#000000;" edge="1" parent="1" source="K7jrmlSnKd5e08-iuxen-554" target="K7jrmlSnKd5e08-iuxen-271">
          <mxGeometry relative="1" as="geometry" />
        </mxCell>
        <mxCell id="K7jrmlSnKd5e08-iuxen-554" value="&lt;font color=&quot;#000000&quot;&gt;Label&lt;/font&gt;" style="text;html=1;strokeColor=none;fillColor=none;align=center;verticalAlign=middle;whiteSpace=wrap;rounded=0;fontColor=#FF8000;" vertex="1" parent="1">
          <mxGeometry x="380" y="95" width="50" height="30" as="geometry" />
        </mxCell>
        <mxCell id="K7jrmlSnKd5e08-iuxen-557" style="edgeStyle=orthogonalEdgeStyle;rounded=0;orthogonalLoop=1;jettySize=auto;html=1;exitX=1;exitY=0.5;exitDx=0;exitDy=0;fontFamily=Times New Roman;fontColor=#000000;" edge="1" parent="1" source="K7jrmlSnKd5e08-iuxen-558">
          <mxGeometry relative="1" as="geometry">
            <mxPoint x="596" y="40" as="targetPoint" />
          </mxGeometry>
        </mxCell>
        <mxCell id="K7jrmlSnKd5e08-iuxen-558" value="&lt;font color=&quot;#000000&quot;&gt;Label&lt;/font&gt;" style="text;html=1;strokeColor=none;fillColor=none;align=center;verticalAlign=middle;whiteSpace=wrap;rounded=0;fontColor=#FF8000;" vertex="1" parent="1">
          <mxGeometry x="509" y="22.5" width="41" height="35" as="geometry" />
        </mxCell>
        <mxCell id="K7jrmlSnKd5e08-iuxen-565" style="edgeStyle=orthogonalEdgeStyle;rounded=0;orthogonalLoop=1;jettySize=auto;html=1;exitX=0.5;exitY=0;exitDx=0;exitDy=0;fontFamily=Times New Roman;fontColor=#FF0000;" edge="1" parent="1" source="K7jrmlSnKd5e08-iuxen-559">
          <mxGeometry relative="1" as="geometry">
            <mxPoint x="608.8181818181815" y="10" as="targetPoint" />
          </mxGeometry>
        </mxCell>
        <mxCell id="K7jrmlSnKd5e08-iuxen-559" value="" style="ellipse;whiteSpace=wrap;html=1;aspect=fixed;" vertex="1" parent="1">
          <mxGeometry x="598.5" y="30" width="20" height="20" as="geometry" />
        </mxCell>
        <mxCell id="K7jrmlSnKd5e08-iuxen-562" value="&lt;font color=&quot;#ff0000&quot; face=&quot;Times New Roman&quot;&gt;&lt;i style=&quot;&quot;&gt;Loss&lt;sub style=&quot;&quot;&gt;ctvr&lt;/sub&gt;&lt;/i&gt;&lt;/font&gt;" style="text;html=1;strokeColor=none;fillColor=none;align=center;verticalAlign=middle;whiteSpace=wrap;rounded=0;fontColor=#FF8000;" vertex="1" parent="1">
          <mxGeometry x="541" y="10" width="57.5" height="30" as="geometry" />
        </mxCell>
        <mxCell id="K7jrmlSnKd5e08-iuxen-566" value="&lt;font face=&quot;Times New Roman&quot;&gt;&lt;i&gt;&lt;b&gt;Loss&amp;nbsp;&lt;span style=&quot;font-size: 10px;&quot;&gt;= &lt;/span&gt;&lt;/b&gt;&lt;/i&gt;&lt;/font&gt;&lt;i style=&quot;font-family: &amp;quot;Times New Roman&amp;quot;;&quot;&gt;Loss&lt;sub&gt;c +&amp;nbsp;&lt;/sub&gt;&lt;/i&gt;&lt;i style=&quot;font-family: &amp;quot;Times New Roman&amp;quot;;&quot;&gt;Loss&lt;sub&gt;ctr +&amp;nbsp;&lt;/sub&gt;&lt;/i&gt;&lt;i style=&quot;font-family: &amp;quot;Times New Roman&amp;quot;;&quot;&gt;Loss&lt;sub&gt;ctvr&lt;/sub&gt;&lt;/i&gt;&lt;font face=&quot;Times New Roman&quot;&gt;&lt;i&gt;&lt;b&gt;&lt;span style=&quot;font-size: 10px;&quot;&gt;&lt;br&gt;&lt;/span&gt;&lt;/b&gt;&lt;/i&gt;&lt;/font&gt;&lt;span style=&quot;color: rgba(0, 0, 0, 0); font-family: monospace; font-size: 0px; text-align: start;&quot;&gt;%3CmxGraphModel%3E%3Croot%3E%3CmxCell%20id%3D%220%22%2F%3E%3CmxCell%20id%3D%221%22%20parent%3D%220%22%2F%3E%3CmxCell%20id%3D%222%22%20value%3D%22%26lt%3Bfont%20face%3D%26quot%3BTimes%20New%20Roman%26quot%3B%26gt%3B%26lt%3Bi%26gt%3BLoss%26lt%3Bsub%26gt%3Bc%26lt%3B%2Fsub%26gt%3B%26lt%3B%2Fi%26gt%3B%26lt%3B%2Ffont%26gt%3B%22%20style%3D%22text%3Bhtml%3D1%3BstrokeColor%3Dnone%3BfillColor%3Dnone%3Balign%3Dcenter%3BverticalAlign%3Dmiddle%3BwhiteSpace%3Dwrap%3Brounded%3D0%3BfontColor%3D%23FF0000%3B%22%20vertex%3D%221%22%20parent%3D%221%22%3E%3CmxGeometry%20x%3D%22-122.5%22%20y%3D%2295%22%20width%3D%2257.5%22%20height%3D%2230%22%20as%3D%22geometry%22%2F%3E%3C%2FmxCell%3E%3C%2Froot%3E%3C%2FmxGraphModel%3&lt;/span&gt;" style="text;html=1;strokeColor=none;fillColor=none;align=center;verticalAlign=middle;whiteSpace=wrap;rounded=0;fontColor=#FF0000;" vertex="1" parent="1">
          <mxGeometry x="70" y="45" width="230" height="45" as="geometry" />
        </mxCell>
        <mxCell id="K7jrmlSnKd5e08-iuxen-568" value="&lt;i&gt;UCP&lt;/i&gt;" style="text;html=1;strokeColor=none;fillColor=none;align=center;verticalAlign=middle;whiteSpace=wrap;rounded=0;fontFamily=Times New Roman;" vertex="1" parent="1">
          <mxGeometry x="-93.75" y="200" width="70" height="30" as="geometry" />
        </mxCell>
        <mxCell id="K7jrmlSnKd5e08-iuxen-569" value="" style="group" vertex="1" connectable="0" parent="1">
          <mxGeometry x="423.33" y="476.65" width="80" height="10" as="geometry" />
        </mxCell>
        <mxCell id="K7jrmlSnKd5e08-iuxen-570" value="" style="group;fillColor=#fff2cc;strokeColor=#d6b656;" vertex="1" connectable="0" parent="K7jrmlSnKd5e08-iuxen-569">
          <mxGeometry width="40" height="10" as="geometry" />
        </mxCell>
        <mxCell id="K7jrmlSnKd5e08-iuxen-571" value="" style="rounded=0;whiteSpace=wrap;html=1;fontSize=22;strokeColor=#2D7600;fillColor=#60a917;fontColor=#ffffff;" vertex="1" parent="K7jrmlSnKd5e08-iuxen-570">
          <mxGeometry width="10" height="10" as="geometry" />
        </mxCell>
        <mxCell id="K7jrmlSnKd5e08-iuxen-572" style="edgeStyle=none;rounded=0;orthogonalLoop=1;jettySize=auto;html=1;exitX=1;exitY=1;exitDx=0;exitDy=0;fontSize=22;strokeColor=none;" edge="1" parent="K7jrmlSnKd5e08-iuxen-570" source="K7jrmlSnKd5e08-iuxen-571" target="K7jrmlSnKd5e08-iuxen-571">
          <mxGeometry relative="1" as="geometry" />
        </mxCell>
        <mxCell id="K7jrmlSnKd5e08-iuxen-573" value="" style="rounded=0;whiteSpace=wrap;html=1;fontSize=22;strokeColor=#432D57;fillColor=#76608a;" vertex="1" parent="K7jrmlSnKd5e08-iuxen-570">
          <mxGeometry x="10" width="10" height="10" as="geometry" />
        </mxCell>
        <mxCell id="K7jrmlSnKd5e08-iuxen-574" value="" style="rounded=0;whiteSpace=wrap;html=1;fontSize=22;strokeColor=#2D7600;fillColor=#60a917;fontColor=#ffffff;" vertex="1" parent="K7jrmlSnKd5e08-iuxen-570">
          <mxGeometry x="20" width="10" height="10" as="geometry" />
        </mxCell>
        <mxCell id="K7jrmlSnKd5e08-iuxen-575" value="" style="rounded=0;whiteSpace=wrap;html=1;fontSize=22;strokeColor=#432D57;fillColor=#76608a;" vertex="1" parent="K7jrmlSnKd5e08-iuxen-570">
          <mxGeometry x="30" width="10" height="10" as="geometry" />
        </mxCell>
        <mxCell id="K7jrmlSnKd5e08-iuxen-576" value="" style="group;fillColor=#dae8fc;strokeColor=#6c8ebf;" vertex="1" connectable="0" parent="K7jrmlSnKd5e08-iuxen-569">
          <mxGeometry x="40" width="40" height="10" as="geometry" />
        </mxCell>
        <mxCell id="K7jrmlSnKd5e08-iuxen-577" value="" style="rounded=0;whiteSpace=wrap;html=1;fontSize=22;strokeColor=#2D7600;fillColor=#60a917;fontColor=#ffffff;" vertex="1" parent="K7jrmlSnKd5e08-iuxen-576">
          <mxGeometry width="10" height="10" as="geometry" />
        </mxCell>
        <mxCell id="K7jrmlSnKd5e08-iuxen-578" style="edgeStyle=none;rounded=0;orthogonalLoop=1;jettySize=auto;html=1;exitX=1;exitY=1;exitDx=0;exitDy=0;fontSize=22;strokeColor=none;" edge="1" parent="K7jrmlSnKd5e08-iuxen-576" source="K7jrmlSnKd5e08-iuxen-577" target="K7jrmlSnKd5e08-iuxen-577">
          <mxGeometry relative="1" as="geometry" />
        </mxCell>
        <mxCell id="K7jrmlSnKd5e08-iuxen-579" value="" style="rounded=0;whiteSpace=wrap;html=1;fontSize=22;strokeColor=#432D57;fillColor=#76608a;fontColor=#ffffff;" vertex="1" parent="K7jrmlSnKd5e08-iuxen-576">
          <mxGeometry x="10" width="10" height="10" as="geometry" />
        </mxCell>
        <mxCell id="K7jrmlSnKd5e08-iuxen-580" value="" style="rounded=0;whiteSpace=wrap;html=1;fontSize=22;strokeColor=#2D7600;fillColor=#60a917;fontColor=#ffffff;" vertex="1" parent="K7jrmlSnKd5e08-iuxen-576">
          <mxGeometry x="20" width="10" height="10" as="geometry" />
        </mxCell>
        <mxCell id="K7jrmlSnKd5e08-iuxen-581" value="" style="rounded=0;whiteSpace=wrap;html=1;fontSize=22;strokeColor=#432D57;fillColor=#76608a;fontColor=#ffffff;" vertex="1" parent="K7jrmlSnKd5e08-iuxen-576">
          <mxGeometry x="30" width="10" height="10" as="geometry" />
        </mxCell>
        <mxCell id="K7jrmlSnKd5e08-iuxen-582" value="&lt;i&gt;UCP&lt;/i&gt;" style="text;html=1;strokeColor=none;fillColor=none;align=center;verticalAlign=middle;whiteSpace=wrap;rounded=0;fontFamily=Times New Roman;" vertex="1" parent="1">
          <mxGeometry x="455" y="485" width="70" height="21.65" as="geometry" />
        </mxCell>
        <mxCell id="K7jrmlSnKd5e08-iuxen-586" style="rounded=0;orthogonalLoop=1;jettySize=auto;html=1;exitX=1;exitY=0;exitDx=0;exitDy=0;entryX=0;entryY=0.5;entryDx=0;entryDy=0;fontFamily=Times New Roman;fontColor=#FF0000;" edge="1" parent="1" source="K7jrmlSnKd5e08-iuxen-575" target="K7jrmlSnKd5e08-iuxen-596">
          <mxGeometry relative="1" as="geometry">
            <mxPoint x="528.9289321881347" y="441.2210678118654" as="targetPoint" />
          </mxGeometry>
        </mxCell>
        <mxCell id="K7jrmlSnKd5e08-iuxen-587" style="rounded=0;orthogonalLoop=1;jettySize=auto;html=1;exitX=0;exitY=0;exitDx=0;exitDy=0;entryX=0.5;entryY=1;entryDx=0;entryDy=0;fontFamily=Times New Roman;fontColor=#FF0000;" edge="1" parent="1" source="K7jrmlSnKd5e08-iuxen-380" target="K7jrmlSnKd5e08-iuxen-596">
          <mxGeometry relative="1" as="geometry">
            <mxPoint x="473.3299999999999" y="486.6500000000001" as="sourcePoint" />
            <mxPoint x="543.0710678118658" y="441.2210678118656" as="targetPoint" />
          </mxGeometry>
        </mxCell>
        <mxCell id="K7jrmlSnKd5e08-iuxen-590" value="&lt;span style=&quot;font-family: Helvetica; font-size: 12px; font-style: normal; font-variant-ligatures: normal; font-variant-caps: normal; letter-spacing: normal; orphans: 2; text-indent: 0px; text-transform: none; widows: 2; word-spacing: 0px; -webkit-text-stroke-width: 0px; background-color: rgb(248, 249, 250); text-decoration-thickness: initial; text-decoration-style: initial; text-decoration-color: initial;&quot;&gt;&lt;font color=&quot;#000000&quot;&gt;与&lt;/font&gt;&lt;/span&gt;&lt;b style=&quot;color: rgb(255, 128, 0); font-family: Helvetica; font-size: 12px; font-style: normal; font-variant-ligatures: normal; font-variant-caps: normal; letter-spacing: normal; orphans: 2; text-indent: 0px; text-transform: none; widows: 2; word-spacing: 0px; -webkit-text-stroke-width: 0px; background-color: rgb(248, 249, 250); text-decoration-thickness: initial; text-decoration-style: initial; text-decoration-color: initial;&quot;&gt;Coupon-Shop&lt;/b&gt;&lt;span style=&quot;color: rgb(255, 128, 0); font-family: Helvetica; font-size: 12px; font-style: normal; font-variant-ligatures: normal; font-variant-caps: normal; font-weight: 400; letter-spacing: normal; orphans: 2; text-indent: 0px; text-transform: none; widows: 2; word-spacing: 0px; -webkit-text-stroke-width: 0px; background-color: rgb(248, 249, 250); text-decoration-thickness: initial; text-decoration-style: initial; text-decoration-color: initial; float: none; display: inline !important;&quot;&gt;&lt;span&gt;&amp;nbsp;&lt;/span&gt;序列&lt;/span&gt;&lt;span style=&quot;font-family: Helvetica; font-size: 12px; font-style: normal; font-variant-ligatures: normal; font-variant-caps: normal; font-weight: 400; letter-spacing: normal; orphans: 2; text-indent: 0px; text-transform: none; widows: 2; word-spacing: 0px; -webkit-text-stroke-width: 0px; background-color: rgb(248, 249, 250); text-decoration-thickness: initial; text-decoration-style: initial; text-decoration-color: initial; float: none; display: inline !important;&quot;&gt;&lt;font color=&quot;#000000&quot;&gt;同门槛&lt;/font&gt;&lt;/span&gt;" style="text;whiteSpace=wrap;html=1;fontFamily=Times New Roman;fontColor=#FF0000;align=center;" vertex="1" parent="1">
          <mxGeometry x="-103.75" y="560.83" width="157.5" height="40" as="geometry" />
        </mxCell>
        <mxCell id="K7jrmlSnKd5e08-iuxen-592" style="edgeStyle=orthogonalEdgeStyle;rounded=0;orthogonalLoop=1;jettySize=auto;html=1;exitX=1;exitY=0;exitDx=0;exitDy=0;entryX=1;entryY=1;entryDx=0;entryDy=0;fontFamily=Times New Roman;fontColor=#000000;curved=1;" edge="1" parent="1" source="K7jrmlSnKd5e08-iuxen-575" target="K7jrmlSnKd5e08-iuxen-631">
          <mxGeometry relative="1" as="geometry">
            <mxPoint x="320" y="434.9999999999998" as="targetPoint" />
            <Array as="points">
              <mxPoint x="463" y="465" />
              <mxPoint x="267" y="465" />
            </Array>
          </mxGeometry>
        </mxCell>
        <mxCell id="K7jrmlSnKd5e08-iuxen-593" style="rounded=0;orthogonalLoop=1;jettySize=auto;html=1;exitX=1;exitY=0;exitDx=0;exitDy=0;entryX=0.5;entryY=1;entryDx=0;entryDy=0;fontFamily=Times New Roman;fontColor=#000000;" edge="1" parent="1" source="K7jrmlSnKd5e08-iuxen-416" target="K7jrmlSnKd5e08-iuxen-631">
          <mxGeometry relative="1" as="geometry">
            <mxPoint x="302.92893218813515" y="442.0710678118646" as="targetPoint" />
          </mxGeometry>
        </mxCell>
        <mxCell id="K7jrmlSnKd5e08-iuxen-594" style="edgeStyle=none;rounded=0;orthogonalLoop=1;jettySize=auto;html=1;exitX=1;exitY=0;exitDx=0;exitDy=0;entryX=0.5;entryY=1;entryDx=0;entryDy=0;fontFamily=Times New Roman;fontColor=#000000;" edge="1" parent="1" source="K7jrmlSnKd5e08-iuxen-403" target="K7jrmlSnKd5e08-iuxen-598">
          <mxGeometry relative="1" as="geometry">
            <mxPoint x="317.0710678118653" y="442.07106781186485" as="targetPoint" />
          </mxGeometry>
        </mxCell>
        <mxCell id="K7jrmlSnKd5e08-iuxen-595" value="" style="shape=sumEllipse;perimeter=ellipsePerimeter;whiteSpace=wrap;html=1;backgroundOutline=1;strokeColor=#000000;fontFamily=Times New Roman;fontColor=#000000;" vertex="1" parent="1">
          <mxGeometry x="598.5" y="70" width="20" height="20" as="geometry" />
        </mxCell>
        <mxCell id="K7jrmlSnKd5e08-iuxen-648" style="edgeStyle=orthogonalEdgeStyle;curved=1;rounded=0;orthogonalLoop=1;jettySize=auto;html=1;exitX=0.5;exitY=0;exitDx=0;exitDy=0;entryX=1;entryY=1;entryDx=0;entryDy=0;fontFamily=Times New Roman;fontColor=#000000;" edge="1" parent="1" source="K7jrmlSnKd5e08-iuxen-596" target="K7jrmlSnKd5e08-iuxen-641">
          <mxGeometry relative="1" as="geometry" />
        </mxCell>
        <mxCell id="K7jrmlSnKd5e08-iuxen-596" value="" style="shape=sumEllipse;perimeter=ellipsePerimeter;whiteSpace=wrap;html=1;backgroundOutline=1;strokeColor=#000000;fontFamily=Times New Roman;fontColor=#000000;" vertex="1" parent="1">
          <mxGeometry x="576" y="424.15" width="20" height="20" as="geometry" />
        </mxCell>
        <mxCell id="K7jrmlSnKd5e08-iuxen-632" style="edgeStyle=none;rounded=0;orthogonalLoop=1;jettySize=auto;html=1;exitX=0.5;exitY=0;exitDx=0;exitDy=0;entryX=0;entryY=1;entryDx=0;entryDy=0;fontFamily=Times New Roman;fontColor=#000000;" edge="1" parent="1" source="K7jrmlSnKd5e08-iuxen-598" target="K7jrmlSnKd5e08-iuxen-610">
          <mxGeometry relative="1" as="geometry" />
        </mxCell>
        <mxCell id="K7jrmlSnKd5e08-iuxen-598" value="" style="shape=sumEllipse;perimeter=ellipsePerimeter;whiteSpace=wrap;html=1;backgroundOutline=1;strokeColor=#000000;fontFamily=Times New Roman;fontColor=#000000;" vertex="1" parent="1">
          <mxGeometry x="340" y="425" width="20" height="20" as="geometry" />
        </mxCell>
        <mxCell id="K7jrmlSnKd5e08-iuxen-634" style="edgeStyle=orthogonalEdgeStyle;curved=1;rounded=0;orthogonalLoop=1;jettySize=auto;html=1;exitX=0;exitY=0.5;exitDx=0;exitDy=0;entryX=1;entryY=1;entryDx=0;entryDy=0;fontFamily=Times New Roman;fontColor=#000000;" edge="1" parent="1" source="K7jrmlSnKd5e08-iuxen-600" target="K7jrmlSnKd5e08-iuxen-598">
          <mxGeometry relative="1" as="geometry" />
        </mxCell>
        <mxCell id="K7jrmlSnKd5e08-iuxen-600" value="&lt;b&gt;1-&lt;/b&gt;" style="ellipse;whiteSpace=wrap;html=1;aspect=fixed;" vertex="1" parent="1">
          <mxGeometry x="390" y="455" width="20" height="20" as="geometry" />
        </mxCell>
        <mxCell id="K7jrmlSnKd5e08-iuxen-602" value="" style="group" vertex="1" connectable="0" parent="1">
          <mxGeometry x="310" y="380" width="80" height="10" as="geometry" />
        </mxCell>
        <mxCell id="K7jrmlSnKd5e08-iuxen-603" value="" style="group;fillColor=#fff2cc;strokeColor=#d6b656;" vertex="1" connectable="0" parent="K7jrmlSnKd5e08-iuxen-602">
          <mxGeometry width="40" height="10" as="geometry" />
        </mxCell>
        <mxCell id="K7jrmlSnKd5e08-iuxen-604" value="" style="rounded=0;whiteSpace=wrap;html=1;fontSize=22;strokeColor=#82b366;fillColor=#d5e8d4;" vertex="1" parent="K7jrmlSnKd5e08-iuxen-603">
          <mxGeometry width="10" height="10" as="geometry" />
        </mxCell>
        <mxCell id="K7jrmlSnKd5e08-iuxen-605" style="edgeStyle=none;rounded=0;orthogonalLoop=1;jettySize=auto;html=1;exitX=1;exitY=1;exitDx=0;exitDy=0;fontSize=22;strokeColor=none;" edge="1" parent="K7jrmlSnKd5e08-iuxen-603" source="K7jrmlSnKd5e08-iuxen-604" target="K7jrmlSnKd5e08-iuxen-604">
          <mxGeometry relative="1" as="geometry" />
        </mxCell>
        <mxCell id="K7jrmlSnKd5e08-iuxen-606" value="" style="rounded=0;whiteSpace=wrap;html=1;fontSize=22;strokeColor=#d6b656;fillColor=#fff2cc;" vertex="1" parent="K7jrmlSnKd5e08-iuxen-603">
          <mxGeometry x="10" width="10" height="10" as="geometry" />
        </mxCell>
        <mxCell id="K7jrmlSnKd5e08-iuxen-607" value="" style="rounded=0;whiteSpace=wrap;html=1;fontSize=22;strokeColor=#82b366;fillColor=#d5e8d4;" vertex="1" parent="K7jrmlSnKd5e08-iuxen-603">
          <mxGeometry x="20" width="10" height="10" as="geometry" />
        </mxCell>
        <mxCell id="K7jrmlSnKd5e08-iuxen-608" value="" style="rounded=0;whiteSpace=wrap;html=1;fontSize=22;strokeColor=#d6b656;fillColor=#fff2cc;" vertex="1" parent="K7jrmlSnKd5e08-iuxen-603">
          <mxGeometry x="30" width="10" height="10" as="geometry" />
        </mxCell>
        <mxCell id="K7jrmlSnKd5e08-iuxen-609" value="" style="group;fillColor=#dae8fc;strokeColor=#6c8ebf;" vertex="1" connectable="0" parent="K7jrmlSnKd5e08-iuxen-602">
          <mxGeometry x="40" width="40" height="10" as="geometry" />
        </mxCell>
        <mxCell id="K7jrmlSnKd5e08-iuxen-610" value="" style="rounded=0;whiteSpace=wrap;html=1;fontSize=22;strokeColor=#82b366;fillColor=#d5e8d4;" vertex="1" parent="K7jrmlSnKd5e08-iuxen-609">
          <mxGeometry width="10" height="10" as="geometry" />
        </mxCell>
        <mxCell id="K7jrmlSnKd5e08-iuxen-611" style="edgeStyle=none;rounded=0;orthogonalLoop=1;jettySize=auto;html=1;exitX=1;exitY=1;exitDx=0;exitDy=0;fontSize=22;strokeColor=none;" edge="1" parent="K7jrmlSnKd5e08-iuxen-609" source="K7jrmlSnKd5e08-iuxen-610" target="K7jrmlSnKd5e08-iuxen-610">
          <mxGeometry relative="1" as="geometry" />
        </mxCell>
        <mxCell id="K7jrmlSnKd5e08-iuxen-612" value="" style="rounded=0;whiteSpace=wrap;html=1;fontSize=22;strokeColor=#d6b656;fillColor=#fff2cc;" vertex="1" parent="K7jrmlSnKd5e08-iuxen-609">
          <mxGeometry x="10" width="10" height="10" as="geometry" />
        </mxCell>
        <mxCell id="K7jrmlSnKd5e08-iuxen-613" value="" style="rounded=0;whiteSpace=wrap;html=1;fontSize=22;strokeColor=#82b366;fillColor=#d5e8d4;" vertex="1" parent="K7jrmlSnKd5e08-iuxen-609">
          <mxGeometry x="20" width="10" height="10" as="geometry" />
        </mxCell>
        <mxCell id="K7jrmlSnKd5e08-iuxen-614" value="" style="rounded=0;whiteSpace=wrap;html=1;fontSize=22;strokeColor=#d6b656;fillColor=#fff2cc;" vertex="1" parent="K7jrmlSnKd5e08-iuxen-609">
          <mxGeometry x="30" width="10" height="10" as="geometry" />
        </mxCell>
        <mxCell id="K7jrmlSnKd5e08-iuxen-615" value="" style="group" vertex="1" connectable="0" parent="1">
          <mxGeometry x="220" y="380" width="80" height="10" as="geometry" />
        </mxCell>
        <mxCell id="K7jrmlSnKd5e08-iuxen-616" value="" style="group;fillColor=#dae8fc;strokeColor=#6c8ebf;" vertex="1" connectable="0" parent="K7jrmlSnKd5e08-iuxen-615">
          <mxGeometry width="40" height="10" as="geometry" />
        </mxCell>
        <mxCell id="K7jrmlSnKd5e08-iuxen-617" value="" style="rounded=0;whiteSpace=wrap;html=1;fontSize=22;strokeColor=#82b366;fillColor=#d5e8d4;" vertex="1" parent="K7jrmlSnKd5e08-iuxen-616">
          <mxGeometry width="10" height="10" as="geometry" />
        </mxCell>
        <mxCell id="K7jrmlSnKd5e08-iuxen-618" style="edgeStyle=none;rounded=0;orthogonalLoop=1;jettySize=auto;html=1;exitX=1;exitY=1;exitDx=0;exitDy=0;fontSize=22;strokeColor=none;" edge="1" parent="K7jrmlSnKd5e08-iuxen-616" source="K7jrmlSnKd5e08-iuxen-617" target="K7jrmlSnKd5e08-iuxen-617">
          <mxGeometry relative="1" as="geometry" />
        </mxCell>
        <mxCell id="K7jrmlSnKd5e08-iuxen-619" value="" style="rounded=0;whiteSpace=wrap;html=1;fontSize=22;strokeColor=#d6b656;fillColor=#fff2cc;" vertex="1" parent="K7jrmlSnKd5e08-iuxen-616">
          <mxGeometry x="10" width="10" height="10" as="geometry" />
        </mxCell>
        <mxCell id="K7jrmlSnKd5e08-iuxen-620" value="" style="rounded=0;whiteSpace=wrap;html=1;fontSize=22;strokeColor=#82b366;fillColor=#d5e8d4;" vertex="1" parent="K7jrmlSnKd5e08-iuxen-616">
          <mxGeometry x="20" width="10" height="10" as="geometry" />
        </mxCell>
        <mxCell id="K7jrmlSnKd5e08-iuxen-621" value="" style="rounded=0;whiteSpace=wrap;html=1;fontSize=22;strokeColor=#d6b656;fillColor=#fff2cc;" vertex="1" parent="K7jrmlSnKd5e08-iuxen-616">
          <mxGeometry x="30" width="10" height="10" as="geometry" />
        </mxCell>
        <mxCell id="K7jrmlSnKd5e08-iuxen-622" value="" style="group;fillColor=#fff2cc;strokeColor=#d6b656;" vertex="1" connectable="0" parent="K7jrmlSnKd5e08-iuxen-615">
          <mxGeometry x="40" width="40" height="10" as="geometry" />
        </mxCell>
        <mxCell id="K7jrmlSnKd5e08-iuxen-623" value="" style="rounded=0;whiteSpace=wrap;html=1;fontSize=22;strokeColor=#82b366;fillColor=#d5e8d4;" vertex="1" parent="K7jrmlSnKd5e08-iuxen-622">
          <mxGeometry width="10" height="10" as="geometry" />
        </mxCell>
        <mxCell id="K7jrmlSnKd5e08-iuxen-624" style="edgeStyle=none;rounded=0;orthogonalLoop=1;jettySize=auto;html=1;exitX=1;exitY=1;exitDx=0;exitDy=0;fontSize=22;strokeColor=none;" edge="1" parent="K7jrmlSnKd5e08-iuxen-622" source="K7jrmlSnKd5e08-iuxen-623" target="K7jrmlSnKd5e08-iuxen-623">
          <mxGeometry relative="1" as="geometry" />
        </mxCell>
        <mxCell id="K7jrmlSnKd5e08-iuxen-625" value="" style="rounded=0;whiteSpace=wrap;html=1;fontSize=22;strokeColor=#d6b656;fillColor=#fff2cc;" vertex="1" parent="K7jrmlSnKd5e08-iuxen-622">
          <mxGeometry x="10" width="10" height="10" as="geometry" />
        </mxCell>
        <mxCell id="K7jrmlSnKd5e08-iuxen-626" value="" style="rounded=0;whiteSpace=wrap;html=1;fontSize=22;strokeColor=#82b366;fillColor=#d5e8d4;" vertex="1" parent="K7jrmlSnKd5e08-iuxen-622">
          <mxGeometry x="20" width="10" height="10" as="geometry" />
        </mxCell>
        <mxCell id="K7jrmlSnKd5e08-iuxen-627" value="" style="rounded=0;whiteSpace=wrap;html=1;fontSize=22;strokeColor=#d6b656;fillColor=#fff2cc;" vertex="1" parent="K7jrmlSnKd5e08-iuxen-622">
          <mxGeometry x="30" width="10" height="10" as="geometry" />
        </mxCell>
        <mxCell id="K7jrmlSnKd5e08-iuxen-628" style="rounded=0;orthogonalLoop=1;jettySize=auto;html=1;exitX=0.5;exitY=0;exitDx=0;exitDy=0;entryX=0;entryY=1;entryDx=0;entryDy=0;fontFamily=Times New Roman;fontColor=#000000;" edge="1" parent="1" source="K7jrmlSnKd5e08-iuxen-631" target="K7jrmlSnKd5e08-iuxen-623">
          <mxGeometry relative="1" as="geometry">
            <mxPoint x="270" y="489.18000000000006" as="sourcePoint" />
            <mxPoint x="312.92893218813515" y="452.0710678118646" as="targetPoint" />
          </mxGeometry>
        </mxCell>
        <mxCell id="K7jrmlSnKd5e08-iuxen-631" value="" style="shape=sumEllipse;perimeter=ellipsePerimeter;whiteSpace=wrap;html=1;backgroundOutline=1;strokeColor=#000000;fontFamily=Times New Roman;fontColor=#000000;" vertex="1" parent="1">
          <mxGeometry x="250" y="425" width="20" height="20" as="geometry" />
        </mxCell>
        <mxCell id="K7jrmlSnKd5e08-iuxen-635" value="" style="group;fontStyle=1" vertex="1" connectable="0" parent="1">
          <mxGeometry x="546" y="380" width="80" height="10" as="geometry" />
        </mxCell>
        <mxCell id="K7jrmlSnKd5e08-iuxen-636" value="" style="group;fillColor=#dae8fc;strokeColor=#6c8ebf;fontStyle=1" vertex="1" connectable="0" parent="K7jrmlSnKd5e08-iuxen-635">
          <mxGeometry width="40" height="10" as="geometry" />
        </mxCell>
        <mxCell id="K7jrmlSnKd5e08-iuxen-637" value="" style="rounded=0;whiteSpace=wrap;html=1;fontSize=22;strokeColor=#82b366;fillColor=#d5e8d4;fontStyle=1" vertex="1" parent="K7jrmlSnKd5e08-iuxen-636">
          <mxGeometry width="10" height="10" as="geometry" />
        </mxCell>
        <mxCell id="K7jrmlSnKd5e08-iuxen-638" style="edgeStyle=none;rounded=0;orthogonalLoop=1;jettySize=auto;html=1;exitX=1;exitY=1;exitDx=0;exitDy=0;fontSize=22;strokeColor=none;fontStyle=1" edge="1" parent="K7jrmlSnKd5e08-iuxen-636" source="K7jrmlSnKd5e08-iuxen-637" target="K7jrmlSnKd5e08-iuxen-637">
          <mxGeometry relative="1" as="geometry" />
        </mxCell>
        <mxCell id="K7jrmlSnKd5e08-iuxen-639" value="" style="rounded=0;whiteSpace=wrap;html=1;fontSize=22;strokeColor=#6c8ebf;fillColor=#dae8fc;fontStyle=1" vertex="1" parent="K7jrmlSnKd5e08-iuxen-636">
          <mxGeometry x="10" width="10" height="10" as="geometry" />
        </mxCell>
        <mxCell id="K7jrmlSnKd5e08-iuxen-640" value="" style="rounded=0;whiteSpace=wrap;html=1;fontSize=22;strokeColor=#82b366;fillColor=#d5e8d4;fontStyle=1" vertex="1" parent="K7jrmlSnKd5e08-iuxen-636">
          <mxGeometry x="20" width="10" height="10" as="geometry" />
        </mxCell>
        <mxCell id="K7jrmlSnKd5e08-iuxen-641" value="" style="rounded=0;whiteSpace=wrap;html=1;fontSize=22;strokeColor=#6c8ebf;fillColor=#dae8fc;fontStyle=1" vertex="1" parent="K7jrmlSnKd5e08-iuxen-636">
          <mxGeometry x="30" width="10" height="10" as="geometry" />
        </mxCell>
        <mxCell id="K7jrmlSnKd5e08-iuxen-642" value="" style="group;fillColor=#dae8fc;strokeColor=#6c8ebf;fontStyle=1" vertex="1" connectable="0" parent="K7jrmlSnKd5e08-iuxen-635">
          <mxGeometry x="40" width="40" height="10" as="geometry" />
        </mxCell>
        <mxCell id="K7jrmlSnKd5e08-iuxen-643" value="" style="rounded=0;whiteSpace=wrap;html=1;fontSize=22;strokeColor=#82b366;fillColor=#d5e8d4;fontStyle=1" vertex="1" parent="K7jrmlSnKd5e08-iuxen-642">
          <mxGeometry width="10" height="10" as="geometry" />
        </mxCell>
        <mxCell id="K7jrmlSnKd5e08-iuxen-644" style="edgeStyle=none;rounded=0;orthogonalLoop=1;jettySize=auto;html=1;exitX=1;exitY=1;exitDx=0;exitDy=0;fontSize=22;strokeColor=none;fontStyle=1" edge="1" parent="K7jrmlSnKd5e08-iuxen-642" source="K7jrmlSnKd5e08-iuxen-643" target="K7jrmlSnKd5e08-iuxen-643">
          <mxGeometry relative="1" as="geometry" />
        </mxCell>
        <mxCell id="K7jrmlSnKd5e08-iuxen-645" value="" style="rounded=0;whiteSpace=wrap;html=1;fontSize=22;strokeColor=#6c8ebf;fillColor=#dae8fc;fontStyle=1" vertex="1" parent="K7jrmlSnKd5e08-iuxen-642">
          <mxGeometry x="10" width="10" height="10" as="geometry" />
        </mxCell>
        <mxCell id="K7jrmlSnKd5e08-iuxen-646" value="" style="rounded=0;whiteSpace=wrap;html=1;fontSize=22;strokeColor=#82b366;fillColor=#d5e8d4;fontStyle=1" vertex="1" parent="K7jrmlSnKd5e08-iuxen-642">
          <mxGeometry x="20" width="10" height="10" as="geometry" />
        </mxCell>
        <mxCell id="K7jrmlSnKd5e08-iuxen-647" value="" style="rounded=0;whiteSpace=wrap;html=1;fontSize=22;strokeColor=#6c8ebf;fillColor=#dae8fc;fontStyle=1" vertex="1" parent="K7jrmlSnKd5e08-iuxen-642">
          <mxGeometry x="30" width="10" height="10" as="geometry" />
        </mxCell>
        <mxCell id="K7jrmlSnKd5e08-iuxen-659" value="&lt;i&gt;&lt;font face=&quot;Times New Roman&quot;&gt;E&lt;sub&gt;c-s&lt;/sub&gt;&lt;/font&gt;&lt;/i&gt;" style="text;html=1;strokeColor=none;fillColor=none;align=center;verticalAlign=middle;whiteSpace=wrap;rounded=0;" vertex="1" parent="1">
          <mxGeometry x="615.69" y="485" width="60" height="14.18" as="geometry" />
        </mxCell>
        <mxCell id="K7jrmlSnKd5e08-iuxen-660" style="rounded=0;orthogonalLoop=1;jettySize=auto;html=1;exitX=0;exitY=0;exitDx=0;exitDy=0;entryX=0.28;entryY=1.024;entryDx=0;entryDy=0;entryPerimeter=0;fontFamily=Times New Roman;fontColor=#000000;" edge="1" parent="1" source="K7jrmlSnKd5e08-iuxen-643" target="K7jrmlSnKd5e08-iuxen-1">
          <mxGeometry relative="1" as="geometry" />
        </mxCell>
        <mxCell id="K7jrmlSnKd5e08-iuxen-661" style="rounded=0;orthogonalLoop=1;jettySize=auto;html=1;entryX=0.28;entryY=1.059;entryDx=0;entryDy=0;entryPerimeter=0;fontFamily=Times New Roman;fontColor=#000000;" edge="1" parent="1">
          <mxGeometry relative="1" as="geometry">
            <mxPoint x="350" y="380" as="sourcePoint" />
            <mxPoint x="350" y="319.99999999999994" as="targetPoint" />
          </mxGeometry>
        </mxCell>
      </root>
    </mxGraphModel>
  </diagram>
</mxfile>
